<?xml version="1.0" standalone="no"?>
<!DOCTYPE svg PUBLIC "-//W3C//DTD SVG 1.1//EN" "http://www.w3.org/Graphics/SVG/1.1/DTD/svg11.dtd" >
<svg xmlns="http://www.w3.org/2000/svg" xmlns:xlink="http://www.w3.org/1999/xlink" version="1.1">
<metadata>
Created by FontForge 20141024 at Fri Nov  7 18:26:38 2014
 By Jimmy Warting
Copyright (c) The Font Bureau, Inc., 2006. All rights reserved.
</metadata>
<defs>
<font id="FordAntenna-Light" horiz-adv-x="620" >
  <font-face 
    font-family="Ford Antenna Light"
    font-weight="300"
    font-stretch="normal"
    units-per-em="1000"
    panose-1="2 0 5 5 0 0 0 2 0 4"
    ascent="800"
    descent="-200"
    x-height="552"
    cap-height="741"
    bbox="-80 -244 1534 1209"
    underline-thickness="50"
    underline-position="-50"
    unicode-range="U+0020-FB04"
  />
<missing-glyph horiz-adv-x="500" 
d="M0 0v700h500v-700h-500zM50 650v-600h400v600h-400z" />
    <glyph glyph-name="fi" unicode="fi" horiz-adv-x="609" 
d="M31 483v69h104v51c0 102 34 173 164 173h60v-67h-52c-78 0 -97 -45 -97 -106v-51h149v-69h-149v-483h-75v483h-104zM452 0v552h76v-552h-76zM452 625v108h76v-108h-76z" />
    <glyph glyph-name="fl" unicode="fl" horiz-adv-x="663" 
d="M31 483v69h104v58c0 102 34 173 164 173h60v-67h-52c-78 0 -97 -45 -97 -106v-58h149v-69h-149v-483h-75v483h-104zM567 -1c-90 0 -115 39 -115 133v644h76v-636c0 -54 7 -73 63 -73h24v-66c-8 -1 -26 -2 -48 -2z" />
    <glyph glyph-name="f_f" unicode="ff" horiz-adv-x="701" 
d="M452 0v483h-242v-483h-75v483h-104v69h104v51c0 102 34 173 164 173h60v-67h-52c-78 0 -97 -45 -97 -106v-51h242v51c0 102 34 173 164 173h61v-67h-53c-77 0 -96 -45 -96 -106v-51h149v-69h-149v-483h-76z" />
    <glyph glyph-name="f_f_i" unicode="ffi" horiz-adv-x="926" 
d="M452 0v483h-242v-483h-75v483h-104v69h104v51c0 102 34 173 164 173h60v-67h-52c-78 0 -97 -45 -97 -106v-51h242v51c0 102 34 173 164 173h61v-67h-53c-77 0 -96 -45 -96 -106v-51h149v-69h-149v-483h-76zM770 0v552h75v-552h-75zM769 625v108h77v-108h-77z" />
    <glyph glyph-name="f_f_l" unicode="ffl" horiz-adv-x="981" 
d="M452 0v483h-242v-483h-75v483h-104v69h104v51c0 102 34 173 164 173h60v-67h-52c-78 0 -97 -45 -97 -106v-51h242v51c0 102 34 173 164 173h61v-67h-53c-77 0 -96 -45 -96 -106v-51h149v-69h-149v-483h-76zM884 -1c-89 0 -114 39 -114 133v644h75v-636
c0 -54 7 -73 63 -73h24v-66c-7 -1 -27 -2 -48 -2z" />
    <glyph glyph-name="f_j" unicode="fj" horiz-adv-x="609" 
d="M31 483v69h104v51c0 102 34 173 164 173h60v-67h-52c-78 0 -97 -45 -97 -106v-51h149v-69h-149v-483h-75v483h-104zM373 -167v63h7c63 1 72 20 72 86v570h76v-570c0 -112 -26 -149 -142 -149h-13zM452 625v108h76v-108h-76z" />
    <glyph glyph-name="f_t" unicode="ft" horiz-adv-x="727" 
d="M598 -1c-124 0 -147 50 -147 143v341h-241v-483h-75v483h-104v69h104v51c0 102 34 173 164 173h60v-67h-52c-78 0 -97 -45 -97 -106v-51h243l13 166l60 11v-177h152v-69h-152v-332c0 -51 8 -84 84 -84h68v-67c-9 -1 -69 -1 -80 -1z" />
    <glyph glyph-name=".notdef" horiz-adv-x="500" 
d="M0 0v700h500v-700h-500zM50 650v-600h400v600h-400z" />
    <glyph glyph-name="space" unicode=" " horiz-adv-x="235" 
 />
    <glyph glyph-name="Eth" unicode="&#xd0;" horiz-adv-x="752" 
d="M0 351v66h87v324h242c278 0 380 -84 380 -370c0 -280 -117 -371 -393 -371h-229v351h-87zM166 72h153c234 0 311 79 311 299c0 224 -65 296 -300 296h-164v-250h168v-66h-168v-279z" />
    <glyph glyph-name="eth" unicode="&#xf0;" horiz-adv-x="631" 
d="M301 598v56l81 23c-23 26 -50 51 -81 76l67 32c33 -26 64 -53 92 -86l138 38v-56l-103 -29c53 -82 87 -194 87 -366c0 -205 -82 -297 -268 -297c-191 0 -265 101 -265 280c0 174 65 279 248 279c104 0 157 -23 191 -65c-13 53 -36 102 -69 148zM314 58
c139 0 191 73 191 212c0 140 -52 212 -191 212c-137 0 -189 -72 -189 -212c0 -139 52 -212 189 -212z" />
    <glyph glyph-name="Lslash" unicode="&#x141;" horiz-adv-x="587" 
d="M0 306v68l87 48v319h79v-275l167 94v-68l-167 -94v-326h394v-72h-473v354z" />
    <glyph glyph-name="lslash" unicode="&#x142;" horiz-adv-x="353" 
d="M22 390v65l100 58v263h76v-219l112 65v-66l-112 -65v-353c0 -55 7 -73 63 -73h24v-64c-8 -1 -26 -2 -48 -2c-90 0 -115 39 -115 132v316z" />
    <glyph glyph-name="Scaron" unicode="&#x160;" horiz-adv-x="703" 
d="M307 785l-152 156h76l120 -107l119 107h74l-152 -156h-85zM348 -10c-112 0 -213 23 -307 85l40 60c89 -56 176 -75 265 -75c153 0 221 43 221 145c0 105 -88 120 -221 144c-160 28 -268 55 -268 205c0 143 92 199 268 199c116 0 199 -26 258 -66l-42 -64
c-53 35 -132 58 -216 58c-133 0 -190 -37 -190 -125c0 -94 77 -112 209 -136c162 -29 279 -53 279 -212c0 -147 -94 -218 -296 -218z" />
    <glyph glyph-name="scaron" unicode="&#x161;" horiz-adv-x="522" 
d="M218 610l-152 156h76l120 -107l119 107h74l-152 -156h-85zM260 -10c-73 0 -155 13 -230 62l40 59c65 -42 136 -55 194 -55c100 0 146 19 146 97c0 62 -40 74 -146 95c-128 25 -208 47 -208 166c0 95 56 151 208 151c83 0 151 -18 202 -48l-36 -62c-42 23 -98 40 -165 40
c-104 0 -134 -31 -134 -81c0 -61 40 -76 137 -95c134 -27 215 -45 215 -163c0 -126 -70 -166 -223 -166z" />
    <glyph glyph-name="Yacute" unicode="&#xdd;" horiz-adv-x="700" 
d="M311 0v288l-298 453h86l252 -382l254 382h81l-297 -452v-289h-78zM272 785l151 156h93l-172 -156h-72z" />
    <glyph glyph-name="yacute" unicode="&#xfd;" horiz-adv-x="530" 
d="M126 -167c-8 0 -38 0 -48 1v62h43c51 0 71 14 86 57l20 51l-216 548h80l176 -459l174 459h78l-238 -607c-30 -79 -69 -112 -155 -112zM189 610l151 156h93l-172 -156h-72z" />
    <glyph glyph-name="Thorn" unicode="&#xde;" horiz-adv-x="706" 
d="M87 0v741h77v-122h248c186 0 250 -69 250 -222s-63 -233 -251 -233h-247v-164h-77zM164 236h249c121 0 171 43 171 159c0 117 -48 153 -174 153h-246v-312z" />
    <glyph glyph-name="thorn" unicode="&#xfe;" horiz-adv-x="647" 
d="M76 -165v941h76v-286c30 52 93 75 210 75c184 0 236 -114 236 -288c0 -172 -53 -287 -239 -287c-120 0 -178 23 -207 75v-230h-76zM347 60c136 0 174 80 174 215s-36 218 -174 218c-139 0 -195 -54 -195 -218c0 -163 54 -215 195 -215z" />
    <glyph glyph-name="Zcaron" unicode="&#x17d;" horiz-adv-x="665" 
d="M289 785l-152 156h76l120 -107l119 107h74l-152 -156h-85zM45 0v63l464 603h-447v75h544v-68l-462 -601h473v-72h-572z" />
    <glyph glyph-name="zcaron" unicode="&#x17e;" horiz-adv-x="502" 
d="M209 610l-152 156h76l120 -107l119 107h74l-152 -156h-85zM33 0v57l330 426h-313v69h410v-58l-330 -429h341v-65h-438z" />
    <glyph glyph-name="onehalf" unicode="&#xbd;" horiz-adv-x="940" 
d="M562 0v48l143 141c75 75 93 93 93 147c0 46 -26 68 -93 68c-49 0 -90 -12 -118 -26l-28 50c38 18 82 31 152 31c99 0 147 -33 147 -117c0 -72 -30 -106 -107 -183l-105 -106h211v-53h-295zM146 287v397h-90v57h153v-454h-63zM177 0l413 741h69l-413 -741h-69z" />
    <glyph glyph-name="onequarter" unicode="&#xbc;" horiz-adv-x="872" 
d="M695 0v106h-222v48l202 300h68l-200 -296h152l11 123h49v-123h75v-52h-75v-106h-60zM146 287v397h-90v57h153v-454h-63zM177 0l413 741h69l-413 -741h-69z" />
    <glyph glyph-name="onesuperior" horiz-adv-x="328" 
d="M152 289v397h-90v55h151v-452h-61z" />
    <glyph glyph-name="threequarters" unicode="&#xbe;" horiz-adv-x="966" 
d="M208 286c-67 0 -115 12 -170 43l33 48c46 -26 84 -36 132 -36c75 0 107 17 107 88c0 58 -21 84 -117 84h-63v53h61c81 0 107 15 107 68c0 48 -29 63 -96 63c-44 0 -89 -11 -123 -32l-31 48c43 27 103 40 161 40c106 0 150 -32 150 -108c0 -56 -21 -86 -65 -102
c53 -13 78 -53 78 -120c0 -103 -52 -137 -164 -137zM789 0v106h-221v48l201 300h69l-201 -296h153l11 123h49v-123h74v-52h-74v-106h-61zM272 0l413 741h69l-414 -741h-68z" />
    <glyph glyph-name="threesuperior" unicode="&#xb3;" horiz-adv-x="461" 
d="M223 283c-67 0 -115 11 -170 42l31 46c45 -26 86 -36 134 -36c75 0 108 19 108 90c0 58 -21 86 -118 86h-64v49h62c80 0 106 16 106 70c0 48 -28 64 -95 64c-44 0 -90 -11 -124 -31l-30 46c43 26 104 39 161 39c106 0 150 -32 150 -107c0 -56 -19 -87 -64 -102
c55 -13 77 -54 77 -120c0 -102 -52 -136 -164 -136z" />
    <glyph glyph-name="twosuperior" horiz-adv-x="441" 
d="M64 289v46l143 142c74 73 92 94 92 149c0 46 -26 68 -93 68c-49 0 -90 -11 -118 -25l-27 47c37 19 81 31 151 31c99 0 148 -33 148 -116c0 -72 -32 -108 -108 -183l-107 -108h220v-51h-301z" />
    <glyph glyph-name="brokenbar" unicode="&#xa6;" horiz-adv-x="324" 
d="M123 -165v392h77v-392h-77zM123 384v392h77v-392h-77z" />
    <glyph glyph-name="minus" unicode="&#x2212;" horiz-adv-x="696" 
d="M106 317v72h483v-72h-483z" />
    <glyph glyph-name="multiply" unicode="&#xd7;" horiz-adv-x="696" 
d="M188 146l-46 48l159 158l-159 159l47 49l159 -159l158 159l47 -49l-158 -159l158 -158l-47 -48l-158 159z" />
    <glyph glyph-name="exclam" unicode="!" horiz-adv-x="358" 
d="M129 0v110h100v-110h-100zM146 204l-9 537h84l-9 -537h-66z" />
    <glyph glyph-name="quotedbl" unicode="&#x22;" horiz-adv-x="479" 
d="M105 455l-7 286h78l-6 -286h-65zM309 455l-6 286h78l-6 -286h-66z" />
    <glyph glyph-name="numbersign" unicode="#" horiz-adv-x="736" 
d="M143 0l43 222h-120v69h133l30 157h-163v70h177l43 223h73l-44 -223h161l44 223h72l-42 -223h121v-70h-135l-30 -157h165v-69h-178l-43 -222h-73l43 222h-160l-43 -222h-74zM267 288h170l32 164h-170z" />
    <glyph glyph-name="dollar" unicode="$" horiz-adv-x="664" 
d="M301 -94v94c-81 3 -160 20 -236 72l37 57c71 -47 133 -61 202 -64v294c-111 23 -207 54 -207 190c0 124 64 184 204 192v65h70v-65c72 -5 136 -24 181 -54l-37 -59c-37 25 -91 40 -147 44v-257c120 -26 223 -59 223 -203c0 -128 -69 -201 -220 -211v-95h-70zM518 208
c0 88 -54 114 -150 137v-279c106 9 150 56 150 142zM171 552c0 -76 49 -102 133 -123v244c-100 -7 -133 -48 -133 -121z" />
    <glyph glyph-name="percent" unicode="%" horiz-adv-x="1109" 
d="M244 284c-144 0 -200 96 -200 234c0 137 56 235 200 235c141 0 198 -98 198 -235c0 -138 -57 -234 -198 -234zM244 346c98 0 129 74 129 172s-31 171 -129 171c-99 0 -130 -72 -130 -171c0 -98 30 -172 130 -172zM865 -10c-142 0 -198 96 -198 234c0 137 56 235 198 235
s199 -98 199 -235c0 -138 -57 -234 -199 -234zM865 52c99 0 129 74 129 172c0 97 -30 171 -129 171c-98 0 -129 -73 -129 -171s31 -172 129 -172zM311 0l413 742h72l-413 -742h-72z" />
    <glyph glyph-name="ampersand" unicode="&#x26;" horiz-adv-x="788" 
d="M293 -10c-182 0 -246 65 -246 207c0 111 75 175 157 223c-25 62 -39 123 -39 177c0 108 61 156 158 156c99 0 147 -47 147 -156c0 -103 -85 -155 -172 -205c36 -68 85 -135 140 -187c23 -22 44 -40 64 -56c46 63 77 156 109 280l66 -16c-33 -130 -68 -231 -120 -302
c67 -39 116 -42 160 -42h11v-69h-13c-69 0 -130 8 -208 57c-53 -45 -121 -67 -214 -67zM293 54c66 0 117 14 158 44c-22 17 -45 38 -70 62c-60 58 -111 129 -149 202c-61 -40 -111 -90 -111 -164c0 -89 27 -144 172 -144zM238 597c0 -44 12 -96 34 -149
c70 42 130 83 130 149c0 60 -20 89 -79 89c-58 0 -85 -29 -85 -89z" />
    <glyph glyph-name="quotesingle" unicode="'" horiz-adv-x="275" 
d="M105 455l-7 287h78l-6 -287h-65z" />
    <glyph glyph-name="parenleft" unicode="(" horiz-adv-x="477" 
d="M328 -184c-96 80 -214 247 -214 484c0 228 118 408 214 488l54 -41c-87 -80 -191 -227 -191 -447c0 -221 108 -369 191 -443z" />
    <glyph glyph-name="parenright" unicode=")" horiz-adv-x="477" 
d="M148 -184l-53 41c86 80 190 222 190 443c0 220 -107 374 -190 447l53 41c96 -80 214 -250 214 -488c0 -228 -118 -404 -214 -484z" />
    <glyph glyph-name="asterisk" unicode="*" horiz-adv-x="575" 
d="M257 268l7 191l-165 -100l-31 55l170 90l-170 92l31 55l165 -102l-7 193h61l-7 -193l165 102l31 -55l-170 -92l170 -90l-31 -55l-165 101l7 -192h-61z" />
    <glyph glyph-name="plus" unicode="+" horiz-adv-x="696" 
d="M310 113v204h-204v72h204v203h75v-203h204v-72h-204v-204h-75z" />
    <glyph glyph-name="comma" unicode="," horiz-adv-x="239" 
d="M86 -119l-22 41c44 24 55 38 55 78h-50v111h100v-84c0 -83 -15 -112 -83 -146z" />
    <glyph glyph-name="hyphen" unicode="-" horiz-adv-x="452" 
d="M52 272v71h347v-71h-347z" />
    <glyph glyph-name="hyphen" unicode="&#xad;" horiz-adv-x="452" 
d="M52 272v71h347v-71h-347z" />
    <glyph glyph-name="period" unicode="." horiz-adv-x="239" 
d="M69 0v111h100v-111h-100z" />
    <glyph glyph-name="slash" unicode="/" horiz-adv-x="494" 
d="M0 0l415 741h79l-415 -741h-79z" />
    <glyph glyph-name="zero" unicode="0" horiz-adv-x="729" 
d="M365 -11c-233 0 -285 159 -285 382c0 225 52 382 285 382c230 0 284 -157 284 -382c0 -223 -54 -382 -284 -382zM365 59c177 0 207 135 207 312c0 179 -30 310 -207 310c-178 0 -207 -131 -207 -310c0 -177 29 -312 207 -312z" />
    <glyph glyph-name="one" unicode="1" horiz-adv-x="373" 
d="M178 0v669h-141v72h216v-741h-75z" />
    <glyph glyph-name="two" unicode="2" horiz-adv-x="589" 
d="M38 0v64l249 250c109 110 156 159 156 252c0 81 -44 117 -158 117c-83 0 -154 -19 -200 -44l-34 62c61 32 132 52 240 52c151 0 227 -53 227 -181c0 -112 -52 -179 -169 -296l-208 -209h389v-67h-492z" />
    <glyph glyph-name="three" unicode="3" horiz-adv-x="611" 
d="M291 -12c-103 0 -181 19 -269 69l38 60c80 -43 147 -61 228 -61c127 0 182 38 182 160c0 102 -35 154 -200 154h-102v68h100c137 0 181 36 181 130c0 87 -46 116 -162 116c-68 0 -147 -17 -205 -52l-41 58c72 44 164 63 251 63c155 0 231 -45 231 -173
c0 -99 -39 -155 -95 -171c83 -18 116 -83 116 -198c0 -171 -90 -223 -253 -223z" />
    <glyph glyph-name="four" unicode="4" horiz-adv-x="667" 
d="M53 187v62l332 492h83l-331 -488h286l15 245h56v-245h138v-66h-138v-187h-72v187h-369z" />
    <glyph glyph-name="five" unicode="5" horiz-adv-x="636" 
d="M313 -11c-113 0 -191 31 -256 68l39 61c60 -32 124 -62 215 -62c112 0 201 33 201 180c0 144 -79 182 -190 182c-77 0 -124 -12 -175 -37l-64 19l19 341h433v-69h-365l-12 -220c34 18 97 35 180 35c142 0 250 -50 250 -249c0 -204 -117 -249 -275 -249z" />
    <glyph glyph-name="six" unicode="6" horiz-adv-x="689" 
d="M363 -11c-192 0 -287 85 -287 311c0 312 88 441 420 441h31v-69h-33c-270 0 -324 -104 -340 -247c40 51 119 73 229 73c189 0 245 -96 245 -252c0 -159 -64 -257 -265 -257zM364 55c149 0 189 74 189 189s-43 189 -189 189c-123 0 -211 -54 -211 -166
c0 -160 80 -212 211 -212z" />
    <glyph glyph-name="seven" unicode="7" horiz-adv-x="534" 
d="M140 0l296 672h-414v69h496v-61l-299 -680h-79z" />
    <glyph glyph-name="eight" unicode="8" horiz-adv-x="695" 
d="M348 -13c-200 0 -280 83 -280 220c0 104 42 178 124 200c-68 21 -99 83 -99 163c0 110 60 183 255 183s254 -73 254 -183c0 -80 -31 -144 -99 -163c88 -24 125 -97 125 -200c0 -137 -83 -220 -280 -220zM348 53c140 0 203 53 203 159s-63 160 -203 160
c-142 0 -204 -54 -204 -160s62 -159 204 -159zM348 436c133 0 181 44 181 126s-48 126 -181 126c-134 0 -182 -44 -182 -126s48 -126 182 -126z" />
    <glyph glyph-name="nine" unicode="9" horiz-adv-x="689" 
d="M164 0v67h33c272 0 325 108 340 249c-40 -51 -118 -73 -228 -73c-189 0 -245 99 -245 252c0 158 64 258 265 258c191 0 287 -85 287 -311c0 -312 -88 -442 -420 -442h-32zM327 306c124 0 211 55 211 166c0 160 -79 212 -209 212c-150 0 -191 -74 -191 -189
s44 -189 189 -189z" />
    <glyph glyph-name="colon" unicode=":" horiz-adv-x="259" 
d="M79 0v109h100v-109h-100zM79 443v109h100v-109h-100z" />
    <glyph glyph-name="semicolon" unicode=";" horiz-adv-x="259" 
d="M96 -119l-22 41c44 24 55 38 55 78h-50v109h100v-82c0 -83 -15 -112 -83 -146zM79 443v109h100v-109h-100z" />
    <glyph glyph-name="less" unicode="&#x3c;" horiz-adv-x="696" 
d="M552 91l-448 226v58l448 224v-71l-371 -182l371 -182v-73z" />
    <glyph glyph-name="equal" unicode="=" horiz-adv-x="696" 
d="M112 209v71h472v-71h-472zM112 425v70h472v-70h-472z" />
    <glyph glyph-name="greater" unicode="&#x3e;" horiz-adv-x="696" 
d="M144 91v73l371 181l-371 182v72l448 -225v-58z" />
    <glyph glyph-name="question" unicode="?" horiz-adv-x="664" 
d="M274 197c-13 131 8 176 110 234c92 52 120 73 120 140c0 68 -23 111 -169 111c-79 0 -156 -20 -217 -52l-33 66c65 36 165 57 255 57c189 0 241 -60 241 -176c0 -100 -50 -140 -139 -190c-90 -51 -102 -75 -93 -190h-75zM261 0v102h100v-102h-100z" />
    <glyph glyph-name="at" unicode="@" horiz-adv-x="1085" 
d="M549 -165c-312 0 -458 156 -458 457c0 305 154 462 451 462c300 0 454 -157 454 -462c0 -194 -34 -259 -167 -259c-112 0 -125 47 -128 84c-32 -55 -89 -80 -197 -80c-157 0 -215 102 -215 260c0 156 60 259 218 259c106 0 159 -22 186 -76l16 72l49 -3v-381
c0 -44 8 -89 84 -89c90 0 105 56 105 213c0 273 -131 414 -405 414c-269 0 -402 -141 -402 -414c0 -267 131 -409 409 -409c111 0 207 24 277 58l21 -42c-77 -39 -177 -64 -298 -64zM517 98c114 0 172 49 172 199c0 148 -56 193 -172 193c-115 0 -158 -72 -158 -193
c0 -124 43 -199 158 -199z" />
    <glyph glyph-name="A" unicode="A" horiz-adv-x="723" 
d="M25 0l297 746h79l297 -746h-80l-68 171h-380l-67 -171h-78zM197 243h325l-162 408z" />
    <glyph glyph-name="B" unicode="B" horiz-adv-x="703" 
d="M87 0v741h322c163 0 236 -60 236 -180c0 -85 -36 -151 -102 -171c81 -20 120 -81 120 -185c0 -150 -89 -205 -262 -205h-314zM164 71h245c120 0 175 41 175 141c0 94 -54 136 -177 136h-243v-277zM164 420h247c122 0 154 56 154 131c0 77 -44 118 -154 118h-247v-249z
" />
    <glyph glyph-name="C" unicode="C" horiz-adv-x="721" 
d="M409 -11c-249 0 -365 131 -365 382c0 259 134 382 369 382c105 0 194 -31 259 -93l-56 -56c-53 48 -123 74 -204 74c-191 0 -289 -103 -289 -308c0 -202 92 -307 290 -307c111 0 165 35 209 76l55 -53c-51 -50 -124 -97 -268 -97z" />
    <glyph glyph-name="D" unicode="D" horiz-adv-x="752" 
d="M87 0v741h242c278 0 380 -84 380 -370c0 -280 -114 -371 -393 -371h-229zM166 72h153c234 0 311 79 311 299c0 224 -65 296 -300 296h-164v-595z" />
    <glyph glyph-name="E" unicode="E" horiz-adv-x="639" 
d="M87 0v741h490v-75h-411v-245h401v-74h-401v-275h415v-72h-494z" />
    <glyph glyph-name="F" unicode="F" horiz-adv-x="600" 
d="M87 0v741h477v-75h-398v-251h389v-74h-389v-341h-79z" />
    <glyph glyph-name="G" unicode="G" horiz-adv-x="777" 
d="M408 -11c-263 0 -364 129 -364 382c0 267 132 382 368 382c142 0 222 -46 270 -92l-56 -57c-47 41 -109 74 -214 74c-193 0 -290 -98 -290 -308s80 -311 289 -311c199 0 243 85 243 249v24h-250v73h328v-84c0 -201 -52 -332 -324 -332z" />
    <glyph glyph-name="H" unicode="H" horiz-adv-x="777" 
d="M87 0v741h79v-316h445v316h78v-741h-78v348h-445v-348h-79z" />
    <glyph glyph-name="I" unicode="I" horiz-adv-x="267" 
d="M95 0v741h77v-741h-77z" />
    <glyph glyph-name="J" unicode="J" horiz-adv-x="400" 
d="M105 -1c-35 0 -47 0 -75 1v72h67c105 0 143 43 143 140v529h77v-532c0 -152 -72 -210 -212 -210z" />
    <glyph glyph-name="K" unicode="K" horiz-adv-x="704" 
d="M577 0l-265 393l-148 -162v-231h-77v741h77v-409l375 409h91l-266 -291l302 -450h-89z" />
    <glyph glyph-name="L" unicode="L" horiz-adv-x="587" 
d="M87 0v741h79v-669h394v-72h-473z" />
    <glyph glyph-name="M" unicode="M" horiz-adv-x="914" 
d="M87 0v741h102l268 -632l270 632h100v-741h-77v610l-261 -610h-66l-261 610v-610h-75z" />
    <glyph glyph-name="N" unicode="N" horiz-adv-x="779" 
d="M87 0v741h86l443 -611v611h76v-741h-72l-457 629v-629h-76z" />
    <glyph glyph-name="O" unicode="O" horiz-adv-x="834" 
d="M416 -12c-237 0 -372 118 -372 383c0 264 135 382 372 382c238 0 374 -118 374 -382c0 -265 -136 -383 -374 -383zM416 61c202 0 295 108 295 309c0 200 -93 308 -295 308c-201 0 -293 -108 -293 -308c0 -201 92 -309 293 -309z" />
    <glyph glyph-name="P" unicode="P" horiz-adv-x="706" 
d="M87 0v741h325c172 0 250 -69 250 -221c0 -154 -77 -235 -251 -235h-247v-285h-77zM164 358h249c110 0 171 42 171 159c0 116 -59 151 -174 151h-246v-310z" />
    <glyph glyph-name="Q" unicode="Q" horiz-adv-x="834" 
d="M539 -182c-149 0 -192 45 -184 178c-206 17 -311 133 -311 375c0 264 126 382 372 382c247 0 374 -118 374 -382c0 -260 -122 -373 -358 -378c-6 -84 14 -106 107 -106h77v-68c-8 0 -60 -1 -77 -1zM416 61c210 0 295 108 295 309c0 200 -85 308 -295 308
c-209 0 -293 -108 -293 -308c0 -201 84 -309 293 -309z" />
    <glyph glyph-name="R" unicode="R" horiz-adv-x="718" 
d="M562 0l-177 302h-221v-302h-77v741h320c172 0 250 -70 250 -217c0 -128 -61 -202 -190 -219l179 -305h-84zM164 374h244c105 0 170 32 170 147s-63 147 -173 147h-241v-294z" />
    <glyph glyph-name="S" unicode="S" horiz-adv-x="703" 
d="M348 -10c-112 0 -213 23 -307 85l40 60c89 -56 176 -75 265 -75c153 0 221 43 221 145c0 105 -88 120 -221 144c-160 28 -268 55 -268 205c0 143 92 199 268 199c116 0 199 -26 258 -66l-42 -64c-53 35 -132 58 -216 58c-133 0 -190 -37 -190 -125
c0 -94 77 -112 209 -136c162 -29 279 -53 279 -212c0 -147 -94 -218 -296 -218z" />
    <glyph glyph-name="T" unicode="T" horiz-adv-x="688" 
d="M305 0v666h-278v75h635v-75h-278v-666h-79z" />
    <glyph glyph-name="U" unicode="U" horiz-adv-x="778" 
d="M388 -12c-263 0 -306 133 -306 279v474h79v-465c0 -126 40 -215 227 -215c189 0 232 87 232 215v465h76v-474c0 -147 -46 -279 -308 -279z" />
    <glyph glyph-name="V" unicode="V" horiz-adv-x="723" 
d="M322 -5l-295 746h81l255 -647l253 647h81l-296 -746h-79z" />
    <glyph glyph-name="W" unicode="W" horiz-adv-x="1083" 
d="M274 -5l-239 746h81l195 -613l199 613h68l198 -613l196 613h76l-238 -746h-68l-200 617l-199 -617h-69z" />
    <glyph glyph-name="X" unicode="X" horiz-adv-x="709" 
d="M582 0l-231 329l-225 -329h-86l271 387l-247 354h86l207 -296l203 296h87l-249 -354l272 -387h-88z" />
    <glyph glyph-name="Y" unicode="Y" horiz-adv-x="700" 
d="M311 0v288l-298 453h86l252 -382l254 382h81l-297 -452v-289h-78z" />
    <glyph glyph-name="Z" unicode="Z" horiz-adv-x="665" 
d="M45 0v63l464 603h-447v75h544v-68l-462 -601h473v-72h-572z" />
    <glyph glyph-name="bracketleft" unicode="[" horiz-adv-x="462" 
d="M123 -165v941h238v-69h-161v-805h164v-67h-241z" />
    <glyph glyph-name="backslash" unicode="\" horiz-adv-x="494" 
d="M415 0l-415 741h79l415 -741h-79z" />
    <glyph glyph-name="bracketright" unicode="]" horiz-adv-x="462" 
d="M100 -165v67h162v805h-164v69h240v-941h-238z" />
    <glyph glyph-name="asciicircum" unicode="^" horiz-adv-x="590" 
d="M100 601l152 156h85l152 -156h-76l-120 107l-118 -107h-75z" />
    <glyph glyph-name="underscore" unicode="_" horiz-adv-x="453" 
d="M-37 -121v62h527v-62h-527z" />
    <glyph glyph-name="grave" unicode="`" horiz-adv-x="590" 
d="M300 610l-172 156h93l151 -156h-72z" />
    <glyph glyph-name="a" unicode="a" 
d="M238 -10c-155 0 -194 71 -194 164c0 157 88 204 368 204h33c-2 94 -22 136 -149 136c-70 0 -130 -25 -165 -48l-40 59c36 25 119 60 211 60c186 0 216 -65 216 -223v-208c0 -59 4 -67 57 -67v-66c-5 -2 -15 -2 -30 -2c-64 0 -81 20 -90 69c-34 -52 -93 -78 -217 -78z
M249 55c139 0 196 60 196 194v40h-29c-240 0 -299 -26 -299 -130c0 -66 30 -104 132 -104z" />
    <glyph glyph-name="b" unicode="b" horiz-adv-x="647" 
d="M358 -10c-122 0 -179 22 -214 75l-14 -68l-54 5v774h76v-287c31 53 93 76 210 76c184 0 236 -115 236 -288s-54 -287 -240 -287zM347 58c136 0 174 82 174 216c0 136 -36 219 -174 219c-139 0 -195 -55 -195 -219c0 -163 54 -216 195 -216z" />
    <glyph glyph-name="c" unicode="c" horiz-adv-x="563" 
d="M313 -10c-206 0 -264 112 -264 287s58 288 266 288c99 0 159 -36 199 -79l-55 -52c-27 27 -70 58 -144 58c-145 0 -190 -79 -190 -217c0 -136 43 -217 190 -217c63 0 106 20 148 58l51 -48c-55 -50 -109 -78 -201 -78z" />
    <glyph glyph-name="d" unicode="d" horiz-adv-x="647" 
d="M286 -10c-184 0 -237 115 -237 289c0 172 54 285 239 285c120 0 178 -23 207 -74v286h76v-773l-59 -5l-9 71c-35 -55 -95 -79 -217 -79zM300 60c139 0 195 55 195 219c0 162 -53 214 -195 214c-137 0 -174 -80 -174 -214c0 -136 37 -219 174 -219z" />
    <glyph glyph-name="e" unicode="e" horiz-adv-x="593" 
d="M314 -11c-222 0 -265 127 -265 288c0 160 48 288 262 288c222 0 229 -153 227 -314h-416c4 -116 38 -196 192 -196c91 0 134 24 178 56l41 -53c-55 -42 -117 -69 -219 -69zM309 497c-139 0 -178 -71 -186 -177h343c-5 98 -12 177 -157 177z" />
    <glyph glyph-name="f" unicode="f" horiz-adv-x="384" 
d="M31 483v69h104v51c0 102 34 173 164 173h60v-67h-52c-78 0 -97 -45 -97 -106v-51h149v-69h-149v-483h-75v483h-104z" />
    <glyph glyph-name="g" unicode="g" horiz-adv-x="597" 
d="M288 202c-37 0 -68 3 -96 9c-10 -12 -17 -27 -17 -41c0 -35 25 -42 116 -42c199 0 266 -28 266 -141s-70 -166 -272 -166c-177 0 -255 27 -255 138c0 64 23 120 109 137c-23 10 -35 35 -35 65c0 27 10 54 26 74c-46 29 -68 76 -68 145c0 124 68 185 226 185
c18 0 37 -1 54 -3l192 23v-63h-92c48 -26 74 -69 74 -142c0 -122 -71 -178 -228 -178zM288 268c110 0 153 34 153 112c0 79 -53 114 -153 114c-109 0 -152 -35 -152 -114c0 -78 43 -112 152 -112zM287 -116c157 0 193 34 193 98c0 67 -49 80 -193 80
c-159 0 -181 -42 -181 -92c0 -67 56 -86 181 -86z" />
    <glyph glyph-name="h" unicode="h" 
d="M76 0v776h76v-279c21 37 73 68 196 68c178 0 199 -92 199 -228v-337h-76v324c0 98 -9 166 -145 166c-147 0 -174 -76 -174 -180v-310h-76z" />
    <glyph glyph-name="i" unicode="i" horiz-adv-x="238" 
d="M81 0v552h75v-552h-75zM81 625v108h76v-108h-76z" />
    <glyph glyph-name="j" unicode="j" horiz-adv-x="238" 
d="M2 -167v63h6c63 1 73 20 73 86v570h75v-570c0 -112 -25 -149 -141 -149h-13zM81 625v108h76v-108h-76z" />
    <glyph glyph-name="k" unicode="k" horiz-adv-x="542" 
d="M76 0v776h75v-528l266 304h84l-200 -231l221 -321h-84l-187 266l-100 -113v-153h-75z" />
    <glyph glyph-name="l" unicode="l" horiz-adv-x="292" 
d="M196 -1c-90 0 -115 39 -115 133v644h75v-636c0 -54 7 -73 64 -73h24v-66c-8 -1 -27 -2 -48 -2z" />
    <glyph glyph-name="m" unicode="m" horiz-adv-x="993" 
d="M76 0v548l60 4l7 -58c21 38 75 71 199 71c122 0 157 -31 171 -75c25 43 87 75 214 75c178 0 194 -92 194 -228v-337h-76v324c0 98 -4 166 -140 166c-147 0 -169 -76 -169 -180v-310h-75v324c0 98 -4 166 -140 166c-147 0 -169 -76 -169 -180v-310h-76z" />
    <glyph glyph-name="n" unicode="n" 
d="M76 0v548l60 4l7 -58c24 38 77 71 205 71c178 0 199 -92 199 -228v-337h-76v324c0 98 -9 166 -145 166c-147 0 -174 -76 -174 -180v-310h-76z" />
    <glyph glyph-name="o" unicode="o" horiz-adv-x="631" 
d="M315 -11c-191 0 -266 98 -266 288s75 288 266 288s267 -98 267 -288s-76 -288 -267 -288zM315 58c139 0 190 76 190 217c0 142 -51 218 -190 218s-190 -76 -190 -218c0 -141 51 -217 190 -217z" />
    <glyph glyph-name="p" unicode="p" horiz-adv-x="647" 
d="M76 -165v713l60 4l7 -66c30 53 93 79 219 79c184 0 236 -114 236 -288c0 -172 -53 -286 -239 -286c-120 0 -178 23 -207 74v-230h-76zM347 60c136 0 174 80 174 215s-36 218 -174 218c-139 0 -195 -54 -195 -218c0 -163 54 -215 195 -215z" />
    <glyph glyph-name="q" unicode="q" horiz-adv-x="647" 
d="M495 -165v229c-38 -53 -93 -74 -209 -74c-184 0 -237 115 -237 288s54 287 239 287c123 0 181 -22 215 -74l14 70l54 -5v-721h-76zM300 60c139 0 195 55 195 218s-53 215 -195 215c-137 0 -174 -80 -174 -215s37 -218 174 -218z" />
    <glyph glyph-name="r" unicode="r" horiz-adv-x="359" 
d="M76 0v548l60 4l8 -74c21 43 89 80 191 81v-76c-135 0 -183 -77 -183 -185v-298h-76z" />
    <glyph glyph-name="s" unicode="s" horiz-adv-x="522" 
d="M260 -10c-73 0 -155 13 -230 62l40 59c65 -42 136 -55 194 -55c100 0 146 19 146 97c0 62 -40 74 -146 95c-128 25 -208 47 -208 166c0 95 56 151 208 151c83 0 151 -18 202 -48l-36 -62c-42 23 -98 40 -165 40c-104 0 -134 -31 -134 -81c0 -61 40 -76 137 -95
c134 -27 215 -45 215 -163c0 -126 -70 -166 -223 -166z" />
    <glyph glyph-name="t" unicode="t" horiz-adv-x="406" 
d="M31 483v69h101l13 166l60 11v-177h152v-69h-152v-332c0 -51 7 -84 84 -84h68v-67c-8 -1 -69 -1 -80 -1c-124 0 -147 50 -147 143v341h-99z" />
    <glyph glyph-name="u" unicode="u" horiz-adv-x="614" 
d="M309 -10c-214 0 -236 90 -236 237v325h75v-327c0 -91 0 -166 161 -166c160 0 158 75 158 170v323h74v-322c0 -150 -19 -240 -232 -240z" />
    <glyph glyph-name="v" unicode="v" horiz-adv-x="543" 
d="M231 -5l-220 557h80l181 -467l182 467h78l-220 -557h-81z" />
    <glyph glyph-name="w" unicode="w" horiz-adv-x="876" 
d="M214 -5l-199 557h79l159 -447l149 447h75l148 -446l159 446h77l-199 -557h-75l-149 443l-149 -443h-75z" />
    <glyph glyph-name="x" unicode="x" horiz-adv-x="541" 
d="M436 0l-169 234l-165 -234h-82l208 288l-190 264h83l152 -210l149 210h82l-192 -265l209 -287h-85z" />
    <glyph glyph-name="y" unicode="y" horiz-adv-x="530" 
d="M126 -167c-8 0 -38 0 -48 1v62h43c51 0 71 14 86 57l20 51l-216 548h80l176 -459l174 459h78l-238 -607c-30 -79 -69 -112 -155 -112z" />
    <glyph glyph-name="z" unicode="z" horiz-adv-x="502" 
d="M33 0v57l330 426h-313v69h410v-58l-330 -429h341v-65h-438z" />
    <glyph glyph-name="braceleft" unicode="{" horiz-adv-x="499" 
d="M324 -165c-125 0 -169 43 -169 130c0 63 55 201 55 254c0 44 -35 53 -128 53v66c87 0 128 6 128 55c0 52 -55 190 -55 253c0 87 44 130 169 130h77v-69h-63c-85 0 -106 -24 -106 -79c0 -49 53 -187 53 -247c0 -38 -18 -64 -56 -75c40 -13 56 -38 56 -76
c0 -60 -53 -199 -53 -248c0 -56 21 -80 106 -80h63v-67h-77z" />
    <glyph glyph-name="bar" unicode="|" horiz-adv-x="324" 
d="M123 -165v941h77v-941h-77z" />
    <glyph glyph-name="braceright" unicode="}" horiz-adv-x="499" 
d="M98 -165v67h64c85 0 105 24 105 80c0 49 -53 188 -53 248c0 38 18 64 56 76c-40 12 -56 38 -56 75c0 60 53 198 53 247c0 55 -20 79 -105 79h-64v69h77c126 0 170 -43 170 -130c0 -63 -56 -201 -56 -253c0 -45 36 -54 128 -54v-66c-87 0 -128 -6 -128 -54
c0 -53 56 -191 56 -254c0 -87 -44 -130 -170 -130h-77z" />
    <glyph glyph-name="asciitilde" unicode="~" horiz-adv-x="590" 
d="M151 424l-48 37c33 41 78 74 122 74c68 0 89 -48 139 -48c26 0 53 25 78 54l46 -37c-34 -42 -77 -81 -123 -81c-60 0 -90 49 -139 49c-24 0 -53 -19 -75 -48z" />
    <glyph glyph-name="Adieresis" unicode="&#xc4;" horiz-adv-x="726" 
d="M25 0l297 746h79l297 -746h-80l-68 171h-380l-67 -171h-78zM197 243h325l-162 408zM221 787v102h70v-102h-70zM432 787v102h69v-102h-69z" />
    <glyph glyph-name="Aring" unicode="&#xc5;" horiz-adv-x="726" 
d="M26 0l280 704c-44 18 -63 60 -63 112c0 68 35 122 119 122c81 0 120 -54 120 -122c0 -51 -21 -93 -64 -112l281 -704h-79l-68 170h-382l-66 -170h-78zM198 242h326l-163 409zM362 738c53 0 75 33 75 78c0 44 -22 78 -75 78s-75 -34 -75 -78c0 -45 22 -78 75 -78z" />
    <glyph glyph-name="Ccedilla" unicode="&#xc7;" horiz-adv-x="721" 
d="M368 -225c-50 0 -86 12 -116 29l23 42c26 -14 57 -23 90 -23c67 0 79 25 79 53c0 36 -21 49 -94 45l-22 16l11 56c-201 23 -295 152 -295 378c0 259 134 382 369 382c105 0 194 -31 259 -93l-56 -56c-53 48 -123 74 -204 74c-191 0 -289 -103 -289 -308
c0 -202 92 -307 290 -307c111 0 165 35 209 76l55 -53c-51 -50 -124 -97 -268 -97h-21l-6 -34c60 4 117 -5 117 -84c0 -56 -32 -96 -131 -96z" />
    <glyph glyph-name="Eacute" unicode="&#xc9;" horiz-adv-x="639" 
d="M241 785l151 156h93l-172 -156h-72zM87 0v741h490v-75h-411v-245h401v-74h-401v-275h415v-72h-494z" />
    <glyph glyph-name="Ntilde" unicode="&#xd1;" horiz-adv-x="779" 
d="M87 0v741h86l443 -611v611h76v-741h-72l-457 629v-629h-76zM244 788l-48 37c33 41 78 74 122 74c68 0 89 -48 139 -48c26 0 53 25 78 54l46 -37c-34 -42 -77 -81 -123 -81c-60 0 -90 49 -139 49c-24 0 -53 -19 -75 -48z" />
    <glyph glyph-name="Odieresis" unicode="&#xd6;" horiz-adv-x="834" 
d="M276 787v102h70v-102h-70zM487 787v102h69v-102h-69zM416 -12c-237 0 -372 118 -372 383c0 264 135 382 372 382c238 0 374 -118 374 -382c0 -265 -136 -383 -374 -383zM416 61c202 0 295 108 295 309c0 200 -93 308 -295 308c-201 0 -293 -108 -293 -308
c0 -201 92 -309 293 -309z" />
    <glyph glyph-name="Udieresis" unicode="&#xdc;" horiz-adv-x="778" 
d="M248 787v102h70v-102h-70zM459 787v102h69v-102h-69zM388 -12c-263 0 -306 133 -306 279v474h79v-465c0 -126 40 -215 227 -215c189 0 232 87 232 215v465h76v-474c0 -147 -46 -279 -308 -279z" />
    <glyph glyph-name="aacute" unicode="&#xe1;" 
d="M238 -10c-155 0 -194 71 -194 164c0 157 88 204 368 204h33c-2 94 -22 136 -149 136c-70 0 -130 -25 -165 -48l-40 59c36 25 119 60 211 60c186 0 216 -65 216 -223v-208c0 -59 4 -67 57 -67v-66c-5 -2 -15 -2 -30 -2c-64 0 -81 20 -90 69c-34 -52 -93 -78 -217 -78z
M249 55c139 0 196 60 196 194v40h-29c-240 0 -299 -26 -299 -130c0 -66 30 -104 132 -104zM234 610l151 156h93l-172 -156h-72z" />
    <glyph glyph-name="agrave" unicode="&#xe0;" 
d="M238 -10c-155 0 -194 71 -194 164c0 157 88 204 368 204h33c-2 94 -22 136 -149 136c-70 0 -130 -25 -165 -48l-40 59c36 25 119 60 211 60c186 0 216 -65 216 -223v-208c0 -59 4 -67 57 -67v-66c-5 -2 -15 -2 -30 -2c-64 0 -81 20 -90 69c-34 -52 -93 -78 -217 -78z
M249 55c139 0 196 60 196 194v40h-29c-240 0 -299 -26 -299 -130c0 -66 30 -104 132 -104zM316 610l-172 156h93l151 -156h-72z" />
    <glyph glyph-name="acircumflex" unicode="&#xe2;" 
d="M238 -10c-155 0 -194 71 -194 164c0 157 88 204 368 204h33c-2 94 -22 136 -149 136c-70 0 -130 -25 -165 -48l-40 59c36 25 119 60 211 60c186 0 216 -65 216 -223v-208c0 -59 4 -67 57 -67v-66c-5 -2 -15 -2 -30 -2c-64 0 -81 20 -90 69c-34 -52 -93 -78 -217 -78z
M249 55c139 0 196 60 196 194v40h-29c-240 0 -299 -26 -299 -130c0 -66 30 -104 132 -104zM116 610l152 156h85l152 -156h-76l-120 107l-118 -107h-75z" />
    <glyph glyph-name="adieresis" unicode="&#xe4;" 
d="M238 -10c-155 0 -194 71 -194 164c0 157 88 204 368 204h33c-2 94 -22 136 -149 136c-70 0 -130 -25 -165 -48l-40 59c36 25 119 60 211 60c186 0 216 -65 216 -223v-208c0 -59 4 -67 57 -67v-66c-5 -2 -15 -2 -30 -2c-64 0 -81 20 -90 69c-34 -52 -93 -78 -217 -78z
M249 55c139 0 196 60 196 194v40h-29c-240 0 -299 -26 -299 -130c0 -66 30 -104 132 -104zM171 612v102h70v-102h-70zM382 612v102h69v-102h-69z" />
    <glyph glyph-name="atilde" unicode="&#xe3;" 
d="M238 -10c-155 0 -194 71 -194 164c0 157 88 204 368 204h33c-2 94 -22 136 -149 136c-70 0 -130 -25 -165 -48l-40 59c36 25 119 60 211 60c186 0 216 -65 216 -223v-208c0 -59 4 -67 57 -67v-66c-5 -2 -15 -2 -30 -2c-64 0 -81 20 -90 69c-34 -52 -93 -78 -217 -78z
M249 55c139 0 196 60 196 194v40h-29c-240 0 -299 -26 -299 -130c0 -66 30 -104 132 -104zM167 613l-48 37c33 41 78 74 122 74c68 0 89 -48 139 -48c26 0 53 25 78 54l46 -37c-34 -42 -77 -81 -123 -81c-60 0 -90 49 -139 49c-24 0 -53 -19 -75 -48z" />
    <glyph glyph-name="aring" unicode="&#xe5;" 
d="M238 -10c-155 0 -194 71 -194 164c0 157 88 204 368 204h33c-2 94 -22 136 -149 136c-70 0 -130 -25 -165 -48l-40 59c36 25 119 60 211 60c186 0 216 -65 216 -223v-208c0 -59 4 -67 57 -67v-66c-5 -2 -15 -2 -30 -2c-64 0 -81 20 -90 69c-34 -52 -93 -78 -217 -78z
M249 55c139 0 196 60 196 194v40h-29c-240 0 -299 -26 -299 -130c0 -66 30 -104 132 -104zM311 599c-84 0 -120 53 -120 123s36 124 120 124c80 0 119 -54 119 -124s-39 -123 -119 -123zM311 644c52 0 74 34 74 78s-22 78 -74 78c-54 0 -75 -34 -75 -78s21 -78 75 -78z" />
    <glyph glyph-name="ccedilla" unicode="&#xe7;" horiz-adv-x="563" 
d="M290 -225c-50 0 -86 12 -116 29l23 42c26 -14 57 -23 90 -23c67 0 79 25 79 53c0 36 -21 49 -94 45l-22 16l11 56c-164 18 -212 124 -212 284c0 175 58 288 266 288c99 0 159 -36 199 -79l-55 -52c-27 27 -70 58 -144 58c-145 0 -190 -79 -190 -217
c0 -136 43 -217 190 -217c63 0 106 20 148 58l51 -48c-55 -50 -109 -78 -201 -78h-3l-6 -35c60 4 117 -5 117 -84c0 -56 -32 -96 -131 -96z" />
    <glyph glyph-name="eacute" unicode="&#xe9;" horiz-adv-x="593" 
d="M218 610l151 156h93l-172 -156h-72zM314 -11c-222 0 -265 127 -265 288c0 160 48 288 262 288c222 0 229 -153 227 -314h-416c4 -116 38 -196 192 -196c91 0 134 24 178 56l41 -53c-55 -42 -117 -69 -219 -69zM309 497c-139 0 -178 -71 -186 -177h343
c-5 98 -12 177 -157 177z" />
    <glyph glyph-name="egrave" unicode="&#xe8;" horiz-adv-x="593" 
d="M314 -11c-222 0 -265 127 -265 288c0 160 48 288 262 288c222 0 229 -153 227 -314h-416c4 -116 38 -196 192 -196c91 0 134 24 178 56l41 -53c-55 -42 -117 -69 -219 -69zM309 497c-139 0 -178 -71 -186 -177h343c-5 98 -12 177 -157 177zM300 610l-172 156h93l151 -156
h-72z" />
    <glyph glyph-name="ecircumflex" unicode="&#xea;" horiz-adv-x="593" 
d="M100 610l152 156h85l152 -156h-76l-120 107l-118 -107h-75zM314 -11c-222 0 -265 127 -265 288c0 160 48 288 262 288c222 0 229 -153 227 -314h-416c4 -116 38 -196 192 -196c91 0 134 24 178 56l41 -53c-55 -42 -117 -69 -219 -69zM309 497c-139 0 -178 -71 -186 -177
h343c-5 98 -12 177 -157 177z" />
    <glyph glyph-name="edieresis" unicode="&#xeb;" horiz-adv-x="593" 
d="M155 612v102h70v-102h-70zM366 612v102h69v-102h-69zM314 -11c-222 0 -265 127 -265 288c0 160 48 288 262 288c222 0 229 -153 227 -314h-416c4 -116 38 -196 192 -196c91 0 134 24 178 56l41 -53c-55 -42 -117 -69 -219 -69zM309 497c-139 0 -178 -71 -186 -177h343
c-5 98 -12 177 -157 177z" />
    <glyph glyph-name="iacute" unicode="&#xed;" horiz-adv-x="238" 
d="M83 610l113 155h93l-135 -155h-71zM81 0v552h75v-552h-75z" />
    <glyph glyph-name="igrave" unicode="&#xec;" horiz-adv-x="238" 
d="M85 610l-135 155h92l114 -155h-71zM81 0v552h75v-552h-75z" />
    <glyph glyph-name="icircumflex" unicode="&#xee;" horiz-adv-x="238" 
d="M-39 610l118 155h79l118 -155h-74l-84 108l-86 -108h-71zM81 0v552h75v-552h-75z" />
    <glyph glyph-name="idieresis" unicode="&#xef;" horiz-adv-x="238" 
d="M-7 624v101h64v-101h-64zM181 624v101h64v-101h-64zM81 0v552h75v-552h-75z" />
    <glyph glyph-name="ntilde" unicode="&#xf1;" 
d="M76 0v548l60 4l7 -58c24 38 77 71 205 71c178 0 199 -92 199 -228v-337h-76v324c0 98 -9 166 -145 166c-147 0 -174 -76 -174 -180v-310h-76zM165 613l-48 37c33 41 78 74 122 74c68 0 89 -48 139 -48c26 0 53 25 78 54l46 -37c-34 -42 -77 -81 -123 -81
c-60 0 -90 49 -139 49c-24 0 -53 -19 -75 -48z" />
    <glyph glyph-name="oacute" unicode="&#xf3;" horiz-adv-x="631" 
d="M237 610l151 156h93l-172 -156h-72zM315 -11c-191 0 -266 98 -266 288s75 288 266 288s267 -98 267 -288s-76 -288 -267 -288zM315 58c139 0 190 76 190 217c0 142 -51 218 -190 218s-190 -76 -190 -218c0 -141 51 -217 190 -217z" />
    <glyph glyph-name="ograve" unicode="&#xf2;" horiz-adv-x="631" 
d="M315 -11c-191 0 -266 98 -266 288s75 288 266 288s267 -98 267 -288s-76 -288 -267 -288zM315 58c139 0 190 76 190 217c0 142 -51 218 -190 218s-190 -76 -190 -218c0 -141 51 -217 190 -217zM319 610l-172 156h93l151 -156h-72z" />
    <glyph glyph-name="ocircumflex" unicode="&#xf4;" horiz-adv-x="631" 
d="M119 610l152 156h85l152 -156h-76l-120 107l-118 -107h-75zM315 -11c-191 0 -266 98 -266 288s75 288 266 288s267 -98 267 -288s-76 -288 -267 -288zM315 58c139 0 190 76 190 217c0 142 -51 218 -190 218s-190 -76 -190 -218c0 -141 51 -217 190 -217z" />
    <glyph glyph-name="odieresis" unicode="&#xf6;" horiz-adv-x="631" 
d="M174 612v102h70v-102h-70zM385 612v102h69v-102h-69zM315 -11c-191 0 -266 98 -266 288s75 288 266 288s267 -98 267 -288s-76 -288 -267 -288zM315 58c139 0 190 76 190 217c0 142 -51 218 -190 218s-190 -76 -190 -218c0 -141 51 -217 190 -217z" />
    <glyph glyph-name="otilde" unicode="&#xf5;" horiz-adv-x="631" 
d="M315 -11c-191 0 -266 98 -266 288s75 288 266 288s267 -98 267 -288s-76 -288 -267 -288zM315 58c139 0 190 76 190 217c0 142 -51 218 -190 218s-190 -76 -190 -218c0 -141 51 -217 190 -217zM170 613l-48 37c33 41 78 74 122 74c68 0 89 -48 139 -48c26 0 53 25 78 54
l46 -37c-34 -42 -77 -81 -123 -81c-60 0 -90 49 -139 49c-24 0 -53 -19 -75 -48z" />
    <glyph glyph-name="uacute" unicode="&#xfa;" horiz-adv-x="614" 
d="M229 610l151 156h93l-172 -156h-72zM309 -10c-214 0 -236 90 -236 237v325h75v-327c0 -91 0 -166 161 -166c160 0 158 75 158 170v323h74v-322c0 -150 -19 -240 -232 -240z" />
    <glyph glyph-name="ugrave" unicode="&#xf9;" horiz-adv-x="614" 
d="M309 -10c-214 0 -236 90 -236 237v325h75v-327c0 -91 0 -166 161 -166c160 0 158 75 158 170v323h74v-322c0 -150 -19 -240 -232 -240zM311 610l-172 156h93l151 -156h-72z" />
    <glyph glyph-name="ucircumflex" unicode="&#xfb;" horiz-adv-x="614" 
d="M111 610l152 156h85l152 -156h-76l-120 107l-118 -107h-75zM309 -10c-214 0 -236 90 -236 237v325h75v-327c0 -91 0 -166 161 -166c160 0 158 75 158 170v323h74v-322c0 -150 -19 -240 -232 -240z" />
    <glyph glyph-name="udieresis" unicode="&#xfc;" horiz-adv-x="614" 
d="M166 612v102h70v-102h-70zM377 612v102h69v-102h-69zM309 -10c-214 0 -236 90 -236 237v325h75v-327c0 -91 0 -166 161 -166c160 0 158 75 158 170v323h74v-322c0 -150 -19 -240 -232 -240z" />
    <glyph glyph-name="dagger" unicode="&#x2020;" horiz-adv-x="541" 
d="M233 -166v639h-175v71h175v232h75v-232h175v-71h-175v-639h-75z" />
    <glyph glyph-name="degree" unicode="&#xb0;" horiz-adv-x="569" 
d="M284 279c-154 0 -217 98 -217 237c0 138 63 237 217 237s218 -99 218 -237c0 -139 -64 -237 -218 -237zM284 340c112 0 154 71 154 175c0 103 -42 174 -154 174s-153 -71 -153 -174c0 -104 41 -175 153 -175z" />
    <glyph glyph-name="cent" unicode="&#xa2;" horiz-adv-x="558" 
d="M276 -94v88c-175 12 -226 120 -226 283c0 162 50 271 226 284v63h72v-63c80 -7 128 -38 164 -75l-54 -51c-23 23 -57 50 -115 56v-434c49 6 83 26 120 58l49 -47c-47 -43 -93 -68 -164 -74v-88h-72zM124 275c0 -125 37 -205 156 -217v433c-118 -13 -156 -90 -156 -216z
" />
    <glyph glyph-name="sterling" unicode="&#xa3;" horiz-adv-x="611" 
d="M413 -8c-77 0 -152 23 -205 51c-31 -28 -82 -43 -165 -43v66c127 0 137 34 137 116c0 46 -15 107 -31 170h-114v64h97c-13 52 -23 104 -23 146c0 115 55 192 216 192c77 0 136 -13 195 -38l-30 -66c-49 23 -106 32 -166 32c-108 0 -140 -51 -140 -129
c0 -38 10 -86 22 -137h230v-64h-214c14 -61 28 -121 28 -169c0 -32 -2 -59 -9 -83c46 -22 108 -40 171 -40c77 0 89 30 89 101v24h68v-26c0 -119 -35 -167 -156 -167z" />
    <glyph glyph-name="section" unicode="&#xa7;" horiz-adv-x="544" 
d="M150 -9c-15 0 -53 1 -60 1v64h53c88 0 96 46 96 106v66c-122 6 -185 50 -185 144c0 90 58 134 170 144v60c0 96 17 173 164 173c15 0 54 0 61 -1v-66h-53c-89 0 -97 -46 -97 -105v-60c125 -5 191 -50 191 -145c0 -91 -61 -134 -175 -143v-65c0 -95 -17 -173 -165 -173z
M271 282c103 0 155 25 155 89c0 63 -52 87 -155 87c-102 0 -153 -24 -153 -87c0 -64 51 -89 153 -89z" />
    <glyph glyph-name="bullet" unicode="&#x2022;" horiz-adv-x="342" 
d="M100 225v158h142v-158h-142z" />
    <glyph glyph-name="paragraph" unicode="&#xb6;" horiz-adv-x="619" 
d="M257 0v293c-151 12 -203 87 -203 227c0 152 64 221 250 221h221v-741h-72v291h-124v-291h-72zM300 356h153v315h-150c-125 0 -173 -37 -173 -154c0 -118 50 -161 170 -161z" />
    <glyph glyph-name="germandbls" unicode="&#xdf;" horiz-adv-x="648" 
d="M76 0v543c0 130 60 236 248 236c159 0 230 -63 230 -192c0 -100 -41 -154 -108 -177c111 -20 165 -78 165 -196c0 -132 -45 -214 -281 -214h-65v69h63c182 0 208 65 208 149c0 100 -50 148 -219 148v64c106 0 162 44 162 140c0 90 -45 133 -156 133
c-121 0 -172 -63 -172 -163v-540h-75z" />
    <glyph glyph-name="registered" unicode="&#xae;" horiz-adv-x="832" 
d="M414 -12c-248 0 -370 158 -370 383s122 383 370 383c249 0 372 -158 372 -383s-123 -383 -372 -383zM414 25c230 0 335 142 335 346s-105 346 -335 346c-229 0 -332 -142 -332 -346s103 -346 332 -346zM557 122l-119 205h-148v-205h-52v493h212c121 0 164 -46 164 -143
c0 -85 -35 -132 -123 -143l122 -207h-56zM290 374h160c74 0 112 23 112 97c0 73 -36 96 -113 96h-159v-193z" />
    <glyph glyph-name="copyright" unicode="&#xa9;" horiz-adv-x="832" 
d="M422 117c-160 0 -246 89 -246 258c0 174 97 256 248 256c67 0 130 -21 174 -62l-38 -39c-35 31 -85 49 -137 49c-120 0 -192 -69 -192 -204s68 -205 193 -205c71 0 112 23 141 50l36 -37c-35 -34 -87 -66 -179 -66zM414 -12c-248 0 -370 158 -370 383s122 383 370 383
c249 0 372 -158 372 -383s-123 -383 -372 -383zM414 25c230 0 335 142 335 346s-105 346 -335 346c-229 0 -332 -142 -332 -346s103 -346 332 -346z" />
    <glyph glyph-name="trademark" unicode="&#x2122;" horiz-adv-x="1085" 
d="M487 288v453h67l157 -374l157 374h68v-453h-59v347l-145 -347h-43l-146 347v-347h-56zM222 288v397h-157v56h374v-56h-158v-397h-59z" />
    <glyph glyph-name="acute" unicode="&#xb4;" horiz-adv-x="590" 
d="M218 610l151 156h93l-172 -156h-72z" />
    <glyph glyph-name="dieresis" unicode="&#xa8;" horiz-adv-x="590" 
d="M155 612v102h70v-102h-70zM366 612v102h69v-102h-69z" />
    <glyph glyph-name="notequal" unicode="&#x2260;" horiz-adv-x="696" 
d="M196 96l53 113h-137v70h169l69 147h-238v69h267l54 114h65l-54 -114h140v-69h-171l-69 -147h240v-70h-269l-52 -113h-67z" />
    <glyph glyph-name="AE" unicode="&#xc6;" horiz-adv-x="1070" 
d="M20 0l466 741h523v-75h-412v-245h402v-72h-402v-277h416v-72h-491v168h-317l-107 -168h-78zM245 236h277v434z" />
    <glyph glyph-name="Oslash" unicode="&#xd8;" horiz-adv-x="834" 
d="M416 -12c-65 0 -121 9 -169 25l-30 -54h-76l46 82c-95 59 -143 166 -143 330c0 264 126 382 372 382c60 0 112 -7 158 -21l29 51h76l-44 -77c102 -57 155 -166 155 -335c0 -265 -127 -383 -374 -383zM416 59c212 0 297 109 297 311c0 130 -36 221 -118 270l-314 -561
c38 -14 82 -20 135 -20zM121 370c0 -125 32 -214 106 -264l313 558c-35 10 -77 16 -124 16c-211 0 -295 -108 -295 -310z" />
    <glyph glyph-name="infinity" unicode="&#x221e;" horiz-adv-x="858" 
d="M242 186c-114 0 -175 60 -175 158c0 99 63 159 175 159c78 0 136 -55 188 -114c53 59 111 114 187 114c97 0 174 -44 174 -159c0 -114 -79 -158 -174 -158c-79 0 -136 54 -189 113c-52 -59 -110 -113 -186 -113zM243 247c55 0 100 44 147 96c-46 53 -92 99 -147 99
c-72 0 -113 -35 -113 -98c0 -62 39 -97 113 -97zM616 442c-55 0 -101 -45 -147 -97c46 -52 91 -98 147 -98c61 0 112 25 112 97c0 73 -50 98 -112 98z" />
    <glyph glyph-name="plusminus" unicode="&#xb1;" horiz-adv-x="696" 
d="M310 113v204h-204v72h204v203h75v-203h204v-72h-204v-204h-75zM106 17v71h483v-71h-483z" />
    <glyph glyph-name="lessequal" unicode="&#x2264;" horiz-adv-x="696" 
d="M552 107l-448 218v57l448 218v-72l-371 -176l371 -175v-70zM104 17v69h448v-69h-448z" />
    <glyph glyph-name="greaterequal" unicode="&#x2265;" horiz-adv-x="696" 
d="M144 107v70l371 175l-371 176v72l447 -218v-57zM144 17v69h447v-69h-447z" />
    <glyph glyph-name="yen" unicode="&#xa5;" horiz-adv-x="625" 
d="M66 235v67h209v17l-259 422h80l217 -356l216 356h80l-259 -421v-18h210v-67h-210v-84h210v-67h-210v-84h-75v84h-209v67h209v84h-209z" />
    <glyph glyph-name="mu" unicode="&#xb5;" horiz-adv-x="622" 
d="M276 -11c-58 0 -100 10 -129 29v-183h-71v717h75v-319c0 -101 11 -174 145 -174c147 0 173 81 173 186v307h76v-549l-58 -5l-9 65c-26 -40 -85 -74 -202 -74z" />
    <glyph glyph-name="partialdiff" unicode="&#x2202;" horiz-adv-x="631" 
d="M314 -11c-191 0 -265 101 -265 280c0 174 65 279 248 279c104 0 157 -23 191 -65c-24 102 -85 187 -187 270l67 32c121 -93 214 -213 214 -499c0 -205 -82 -297 -268 -297zM314 58c139 0 191 73 191 212c0 140 -52 212 -191 212c-137 0 -189 -72 -189 -212
c0 -139 52 -212 189 -212z" />
    <glyph glyph-name="summation" unicode="&#x2211;" horiz-adv-x="654" 
d="M45 -165v60l276 400l-265 381v65h532v-75h-434l256 -371l-265 -388h460v-72h-560z" />
    <glyph glyph-name="product" unicode="&#x220f;" horiz-adv-x="706" 
d="M87 -165v906h532v-906h-78v836h-377v-836h-77z" />
    <glyph glyph-name="pi" unicode="&#x3c0;" horiz-adv-x="624" 
d="M76 0v552h471v-552h-75v484h-321v-484h-75z" />
    <glyph glyph-name="integral" unicode="&#x222b;" horiz-adv-x="384" 
d="M-14 -166v64h53c78 0 96 47 96 108v605c0 101 34 172 164 172c14 0 54 0 60 -1v-64h-52c-78 0 -97 -46 -97 -106v-606c0 -101 -33 -173 -163 -173c-14 0 -54 1 -61 1z" />
    <glyph glyph-name="ordfeminine" unicode="&#xaa;" horiz-adv-x="589" 
d="M221 285c-114 0 -156 55 -156 136c0 127 93 163 300 163h23c-2 79 -19 109 -116 109c-54 0 -105 -21 -131 -38l-35 50c30 20 97 47 171 47c150 0 174 -52 174 -180v-166c0 -49 4 -55 47 -55v-58c-5 0 -11 -1 -23 -1c-58 0 -77 11 -81 75c-27 -56 -75 -82 -173 -82z
M234 341c103 0 154 48 154 157v34h-19c-181 0 -242 -23 -242 -107c0 -53 31 -84 107 -84zM107 150v59h346v-59h-346z" />
    <glyph glyph-name="ordmasculine" unicode="&#xba;" horiz-adv-x="592" 
d="M296 288c-146 0 -215 80 -215 233s69 232 215 232c144 0 215 -79 215 -232s-71 -233 -215 -233zM296 347c101 0 150 60 150 173c0 112 -49 171 -150 171c-102 0 -150 -59 -150 -171c0 -113 48 -173 150 -173zM108 149v60h376v-60h-376z" />
    <glyph glyph-name="Omega" unicode="&#x3a9;" horiz-adv-x="847" 
d="M424 753c251 0 373 -136 373 -338c0 -166 -84 -273 -221 -305v-41h223v-69h-282v147c139 31 201 126 201 259c0 171 -99 275 -294 275c-196 0 -296 -104 -296 -275c0 -133 63 -228 202 -259v-147h-282v69h223v41c-137 32 -221 139 -221 305c0 202 122 338 374 338z" />
    <glyph glyph-name="Omega" unicode="&#x2126;" horiz-adv-x="847" 
d="M424 753c251 0 373 -136 373 -338c0 -166 -84 -273 -221 -305v-41h223v-69h-282v147c139 31 201 126 201 259c0 171 -99 275 -294 275c-196 0 -296 -104 -296 -275c0 -133 63 -228 202 -259v-147h-282v69h223v41c-137 32 -221 139 -221 305c0 202 122 338 374 338z" />
    <glyph glyph-name="ae" unicode="&#xe6;" horiz-adv-x="985" 
d="M707 -11c-131 0 -196 43 -229 110c-44 -87 -120 -109 -239 -109c-130 0 -195 48 -195 164c0 157 88 204 368 204h33c-2 94 -22 136 -149 136c-70 0 -132 -25 -167 -47l-38 58c36 25 119 60 211 60c116 0 168 -29 190 -88c36 54 100 88 211 88c227 0 230 -153 227 -314
h-416c4 -116 38 -196 193 -196c90 0 133 24 177 56l41 -53c-56 -42 -115 -69 -218 -69zM250 55c138 0 195 60 195 194v40h-29c-240 0 -299 -26 -299 -130c0 -66 30 -104 133 -104zM702 497c-139 0 -179 -71 -187 -177h343c-4 98 -12 177 -156 177z" />
    <glyph glyph-name="oslash" unicode="&#xf8;" horiz-adv-x="631" 
d="M315 -11c-48 0 -88 6 -121 17l-29 -48h-71l45 76c-64 47 -90 128 -90 243c0 190 72 288 266 288c48 0 88 -7 122 -19l29 49h70l-44 -76c63 -47 90 -128 90 -242c0 -190 -74 -288 -267 -288zM315 56c140 0 192 77 192 219c0 82 -17 141 -58 178l-222 -383
c24 -9 53 -14 88 -14zM124 275c0 -81 16 -141 56 -177l221 383c-24 8 -52 13 -86 13c-141 0 -191 -76 -191 -219z" />
    <glyph glyph-name="questiondown" unicode="&#xbf;" horiz-adv-x="664" 
d="M323 -7c-189 0 -241 61 -241 177c0 99 50 140 139 189c91 51 102 76 93 190h75c14 -131 -7 -176 -110 -234c-91 -51 -119 -73 -119 -140s22 -110 168 -110c79 0 157 19 217 51l33 -66c-65 -35 -165 -57 -255 -57zM302 644v102h100v-102h-100z" />
    <glyph glyph-name="exclamdown" unicode="&#xa1;" horiz-adv-x="358" 
d="M137 0l9 537h67l8 -537h-84zM129 631v110h101v-110h-101z" />
    <glyph glyph-name="logicalnot" unicode="&#xac;" horiz-adv-x="696" 
d="M106 389h483v-276h-76v204h-407v72z" />
    <glyph glyph-name="radical" unicode="&#x221a;" horiz-adv-x="662" 
d="M227 -5l-163 413h79l125 -318l255 651h75l-293 -746h-78z" />
    <glyph glyph-name="florin" unicode="&#x192;" horiz-adv-x="530" 
d="M88 382v69h120l28 131c18 89 40 159 181 159h32v-71h-28c-89 0 -102 -50 -114 -109l-24 -110h166v-69h-180l-116 -548h-76l116 548h-105z" />
    <glyph glyph-name="approxequal" unicode="&#x2248;" horiz-adv-x="696" 
d="M157 396l-45 37c38 48 91 90 144 90c84 0 122 -59 187 -59c33 0 66 31 95 66l45 -39c-39 -46 -88 -91 -140 -91c-76 0 -114 59 -186 59c-36 0 -72 -27 -100 -63zM157 171l-45 37c38 48 91 89 144 89c84 0 122 -59 187 -59c33 0 66 31 95 66l45 -38
c-39 -46 -88 -92 -140 -92c-76 0 -114 59 -186 59c-36 0 -72 -27 -100 -62z" />
    <glyph glyph-name="Delta" unicode="&#x394;" horiz-adv-x="726" 
d="M27 0l297 746h77l298 -746h-672zM128 65h465l-232 586z" />
    <glyph glyph-name="Delta" unicode="&#x2206;" horiz-adv-x="726" 
d="M27 0l297 746h77l298 -746h-672zM128 65h465l-232 586z" />
    <glyph glyph-name="guillemotleft" unicode="&#xab;" horiz-adv-x="677" 
d="M246 0l-151 275l151 277h68l-146 -277l146 -275h-68zM489 0l-151 275l151 277h69l-147 -277l147 -275h-69z" />
    <glyph glyph-name="guillemotright" unicode="&#xbb;" horiz-adv-x="677" 
d="M121 0l146 276l-146 276h67l151 -276l-151 -276h-67zM363 0l146 276l-146 276h69l151 -276l-151 -276h-69z" />
    <glyph glyph-name="ellipsis" unicode="&#x2026;" horiz-adv-x="683" 
d="M69 0v111h100v-111h-100zM291 0v111h100v-111h-100zM514 0v111h100v-111h-100z" />
    <glyph glyph-name="Agrave" unicode="&#xc0;" horiz-adv-x="726" 
d="M25 0l297 746h79l297 -746h-80l-68 171h-380l-67 -171h-78zM197 243h325l-162 408zM366 785l-172 156h93l151 -156h-72z" />
    <glyph glyph-name="Atilde" unicode="&#xc3;" horiz-adv-x="726" 
d="M25 0l297 746h79l297 -746h-80l-68 171h-380l-67 -171h-78zM197 243h325l-162 408zM217 788l-48 37c33 41 78 74 122 74c68 0 89 -48 139 -48c26 0 53 25 78 54l46 -37c-34 -42 -77 -81 -123 -81c-60 0 -90 49 -139 49c-24 0 -53 -19 -75 -48z" />
    <glyph glyph-name="Otilde" unicode="&#xd5;" horiz-adv-x="834" 
d="M416 -12c-237 0 -372 118 -372 383c0 264 135 382 372 382c238 0 374 -118 374 -382c0 -265 -136 -383 -374 -383zM416 61c202 0 295 108 295 309c0 200 -93 308 -295 308c-201 0 -293 -108 -293 -308c0 -201 92 -309 293 -309zM272 788l-48 37c33 41 78 74 122 74
c68 0 89 -48 139 -48c26 0 53 25 78 54l46 -37c-34 -42 -77 -81 -123 -81c-60 0 -90 49 -139 49c-24 0 -53 -19 -75 -48z" />
    <glyph glyph-name="OE" unicode="&#x152;" horiz-adv-x="1260" 
d="M716 0v121c-56 -89 -155 -133 -300 -133c-246 0 -372 118 -372 383c0 264 126 382 372 382c145 0 244 -44 300 -132v120h482v-75h-411v-245h401v-72h-401v-277h415v-72h-486zM416 61c210 0 295 108 295 309c0 200 -85 308 -295 308c-209 0 -293 -108 -293 -308
c0 -201 84 -309 293 -309z" />
    <glyph glyph-name="oe" unicode="&#x153;" horiz-adv-x="1048" 
d="M770 -11c-131 0 -197 44 -229 111c-37 -73 -108 -111 -226 -111c-194 0 -266 98 -266 288s72 288 266 288c119 0 190 -39 227 -113c32 69 98 113 225 113c226 0 230 -153 227 -314h-416c4 -116 38 -196 192 -196c91 0 134 24 178 56l42 -53c-56 -42 -116 -69 -220 -69z
M315 58c139 0 190 76 190 217c0 142 -51 218 -190 218s-190 -76 -190 -218c0 -141 51 -217 190 -217zM765 497c-140 0 -179 -72 -186 -178h343c-5 98 -13 178 -157 178z" />
    <glyph glyph-name="endash" unicode="&#x2013;" horiz-adv-x="701" 
d="M52 272v71h597v-71h-597z" />
    <glyph glyph-name="emdash" unicode="&#x2014;" horiz-adv-x="921" 
d="M52 272v71h818v-71h-818z" />
    <glyph glyph-name="quotedblleft" unicode="&#x201c;" horiz-adv-x="418" 
d="M69 507v86c0 82 16 114 83 148l22 -41c-44 -23 -55 -39 -55 -81h49v-112h-99zM251 507v86c0 82 15 114 82 148l22 -41c-44 -23 -55 -39 -55 -81h49v-112h-98z" />
    <glyph glyph-name="quotedblright" unicode="&#x201d;" horiz-adv-x="418" 
d="M85 507l-21 40c43 24 55 39 55 82h-50v112h99v-86c0 -83 -15 -114 -83 -148zM266 507l-22 40c44 24 56 39 56 82h-49v112h98v-86c0 -83 -16 -114 -83 -148z" />
    <glyph glyph-name="quoteleft" unicode="&#x2018;" horiz-adv-x="239" 
d="M69 506v88c0 84 16 115 84 150l22 -41c-44 -24 -55 -41 -55 -83h49v-114h-100z" />
    <glyph glyph-name="quoteright" unicode="&#x2019;" horiz-adv-x="239" 
d="M86 503l-22 41c44 24 55 40 55 82h-50v115h100v-87c0 -85 -15 -117 -83 -151z" />
    <glyph glyph-name="divide" unicode="&#xf7;" horiz-adv-x="696" 
d="M302 108v93h92v-93h-92zM106 317v72h483v-72h-483zM302 505v93h92v-93h-92z" />
    <glyph glyph-name="lozenge" unicode="&#x25ca;" horiz-adv-x="628" 
d="M275 0l-228 371l229 370h73l229 -370l-229 -371h-74zM313 62l188 306l-190 311l-188 -308z" />
    <glyph glyph-name="ydieresis" unicode="&#xff;" horiz-adv-x="530" 
d="M126 -167c-8 0 -38 0 -48 1v62h43c51 0 71 14 86 57l20 51l-216 548h80l176 -459l174 459h78l-238 -607c-30 -79 -69 -112 -155 -112zM126 612v102h70v-102h-70zM337 612v102h69v-102h-69z" />
    <glyph glyph-name="Ydieresis" unicode="&#x178;" horiz-adv-x="700" 
d="M311 0v288l-298 453h86l252 -382l254 382h81l-297 -452v-289h-78zM209 787v102h70v-102h-70zM420 787v102h69v-102h-69z" />
    <glyph glyph-name="fraction" unicode="&#x2044;" horiz-adv-x="486" 
d="M0 0l415 741h71l-416 -741h-70z" />
    <glyph glyph-name="fraction" unicode="&#x2215;" horiz-adv-x="486" 
d="M0 0l415 741h71l-416 -741h-70z" />
    <glyph glyph-name="Euro" unicode="&#x20ac;" horiz-adv-x="663" 
d="M39 417v67h116c20 172 94 269 264 269c84 0 130 -13 178 -38l-35 -65c-39 21 -81 32 -142 32c-127 0 -177 -75 -193 -198h264v-67h-269v-42v-42h269v-67h-264c14 -133 64 -208 192 -208c54 0 98 7 144 35l38 -60c-53 -33 -106 -45 -185 -45c-175 0 -244 101 -262 278
h-115v67h110v40v44h-110z" />
    <glyph glyph-name="guilsinglleft" unicode="&#x2039;" horiz-adv-x="423" 
d="M240 0l-151 275l151 277h69l-146 -277l146 -275h-69z" />
    <glyph glyph-name="guilsinglright" unicode="&#x203a;" horiz-adv-x="423" 
d="M113 0l147 276l-147 276h70l151 -276l-151 -276h-70z" />
    <glyph glyph-name="daggerdbl" unicode="&#x2021;" horiz-adv-x="541" 
d="M233 -166v258h-175v72h175v309h-175v71h175v232h75v-232h175v-71h-175v-309h175v-72h-175v-258h-75z" />
    <glyph glyph-name="periodcentered" unicode="&#xb7;" horiz-adv-x="239" 
d="M69 274v113h100v-113h-100z" />
    <glyph glyph-name="periodcentered" unicode="&#x2219;" horiz-adv-x="239" 
d="M69 274v113h100v-113h-100z" />
    <glyph glyph-name="quotesinglbase" unicode="&#x201a;" horiz-adv-x="239" 
d="M86 -107l-22 41c44 24 55 40 55 83h-50v114h100v-88c0 -79 -15 -116 -83 -150z" />
    <glyph glyph-name="quotedblbase" unicode="&#x201e;" horiz-adv-x="418" 
d="M85 -105l-21 40c43 23 55 39 55 82h-50v112h99v-86c0 -79 -15 -115 -83 -148zM266 -105l-22 40c44 23 56 39 56 82h-49v112h98v-86c0 -79 -16 -115 -83 -148z" />
    <glyph glyph-name="perthousand" unicode="&#x2030;" horiz-adv-x="1551" 
d="M244 284c-144 0 -200 96 -200 234c0 137 56 235 200 235c141 0 198 -98 198 -235c0 -138 -57 -234 -198 -234zM244 346c98 0 129 74 129 172s-31 171 -129 171c-99 0 -130 -72 -130 -171c0 -98 30 -172 130 -172zM865 -10c-142 0 -198 96 -198 234c0 137 56 235 198 235
s199 -98 199 -235c0 -138 -57 -234 -199 -234zM865 52c99 0 129 74 129 172c0 97 -30 171 -129 171c-98 0 -129 -73 -129 -171s31 -172 129 -172zM1309 -10c-143 0 -199 96 -199 234c0 137 56 235 199 235c142 0 198 -98 198 -235c0 -138 -56 -234 -198 -234zM1309 52
c99 0 129 74 129 172c0 97 -31 171 -129 171s-130 -73 -130 -171s31 -172 130 -172zM311 0l413 742h72l-413 -742h-72z" />
    <glyph glyph-name="Acircumflex" unicode="&#xc2;" horiz-adv-x="726" 
d="M25 0l297 746h79l297 -746h-80l-68 171h-380l-67 -171h-78zM197 243h325l-162 408zM166 785l152 156h85l152 -156h-76l-120 107l-118 -107h-75z" />
    <glyph glyph-name="Ecircumflex" unicode="&#xca;" horiz-adv-x="639" 
d="M123 785l152 156h85l152 -156h-76l-120 107l-118 -107h-75zM87 0v741h490v-75h-411v-245h401v-74h-401v-275h415v-72h-494z" />
    <glyph glyph-name="Aacute" unicode="&#xc1;" horiz-adv-x="726" 
d="M25 0l297 746h79l297 -746h-80l-68 171h-380l-67 -171h-78zM197 243h325l-162 408zM284 785l151 156h93l-172 -156h-72z" />
    <glyph glyph-name="Edieresis" unicode="&#xcb;" horiz-adv-x="639" 
d="M178 787v102h70v-102h-70zM389 787v102h69v-102h-69zM87 0v741h490v-75h-411v-245h401v-74h-401v-275h415v-72h-494z" />
    <glyph glyph-name="Egrave" unicode="&#xc8;" horiz-adv-x="639" 
d="M87 0v741h490v-75h-411v-245h401v-74h-401v-275h415v-72h-494zM323 785l-172 156h93l151 -156h-72z" />
    <glyph glyph-name="Iacute" unicode="&#xcd;" horiz-adv-x="267" 
d="M95 785l130 156h95l-152 -156h-73zM95 0v741h77v-741h-77z" />
    <glyph glyph-name="Icircumflex" unicode="&#xce;" horiz-adv-x="267" 
d="M-37 785l129 156h82l128 -156h-75l-95 109l-95 -109h-74zM95 0v741h77v-741h-77z" />
    <glyph glyph-name="Idieresis" unicode="&#xcf;" horiz-adv-x="267" 
d="M95 0v741h77v-741h-77zM-6 787v102h70v-102h-70zM205 787v102h69v-102h-69z" />
    <glyph glyph-name="Igrave" unicode="&#xcc;" horiz-adv-x="267" 
d="M99 785l-153 156h95l131 -156h-73zM95 0v741h77v-741h-77z" />
    <glyph glyph-name="Oacute" unicode="&#xd3;" horiz-adv-x="834" 
d="M339 785l151 156h93l-172 -156h-72zM416 -12c-237 0 -372 118 -372 383c0 264 135 382 372 382c238 0 374 -118 374 -382c0 -265 -136 -383 -374 -383zM416 61c202 0 295 108 295 309c0 200 -93 308 -295 308c-201 0 -293 -108 -293 -308c0 -201 92 -309 293 -309z" />
    <glyph glyph-name="Ocircumflex" unicode="&#xd4;" horiz-adv-x="834" 
d="M221 785l152 156h85l152 -156h-76l-120 107l-118 -107h-75zM416 -12c-237 0 -372 118 -372 383c0 264 135 382 372 382c238 0 374 -118 374 -382c0 -265 -136 -383 -374 -383zM416 61c202 0 295 108 295 309c0 200 -93 308 -295 308c-201 0 -293 -108 -293 -308
c0 -201 92 -309 293 -309z" />
    <glyph glyph-name="apple" unicode="&#xf8ff;" horiz-adv-x="832" 
d="M172 654l-7 8c67 61 155 97 251 97s185 -37 252 -97l-7 -8c-65 59 -151 95 -245 95s-179 -36 -244 -95zM416 -17c-96 0 -185 37 -252 97l7 8c65 -59 151 -95 245 -95s179 36 244 94c0 1 7 -7 7 -7c-67 -61 -155 -97 -251 -97zM706 120c0 0 -3 3 -8 7c55 66 88 151 88 244
s-33 178 -88 244l8 7c56 -67 90 -155 90 -251c0 -95 -34 -183 -90 -251zM126 120c-56 67 -90 155 -90 251c0 95 34 183 90 250c0 0 3 -2 7 -6c-54 -66 -87 -151 -87 -244s33 -178 88 -244c-5 -4 -8 -7 -8 -7zM416 60c-78 0 -148 29 -201 77c0 0 7 8 7 7
c52 -46 120 -74 194 -74s142 28 193 74l7 -8c-53 -47 -123 -76 -200 -76zM610 597c-51 47 -119 75 -194 75c-74 0 -142 -28 -194 -74l-7 7c54 48 124 77 201 77s147 -29 201 -77zM183 170c-45 55 -72 124 -72 201c0 76 27 146 71 200l8 -7c-43 -52 -69 -120 -69 -193
c0 -74 26 -142 69 -194zM649 171l-7 6c43 53 69 120 69 194s-26 141 -70 193l8 7c45 -54 72 -124 72 -200s-27 -146 -72 -200zM416 121c-62 0 -118 23 -161 61l7 8c41 -37 95 -59 154 -59s113 22 153 59l7 -8c-42 -38 -98 -61 -160 -61zM604 211c0 0 -3 2 -8 7
c35 42 55 95 55 153s-20 112 -55 153l8 7c36 -43 57 -99 57 -160s-21 -117 -57 -160zM570 552c-41 37 -95 59 -154 59s-112 -22 -153 -58l-7 7c43 38 99 61 160 61c62 0 118 -23 161 -61zM228 211c-35 43 -57 99 -57 160s21 116 56 160l8 -7c-33 -41 -54 -95 -54 -153
s20 -112 54 -153c-2 -3 -5 -5 -7 -7zM295 516l-7 8c34 30 79 48 128 48s94 -18 128 -49c1 0 -6 -7 -6 -7c-33 29 -76 46 -122 46s-89 -17 -121 -46zM568 243l-8 7c27 33 43 75 43 121s-16 88 -43 121l8 7c28 -35 45 -79 45 -128s-17 -93 -45 -128zM264 243
c-28 35 -45 79 -45 128c0 48 17 93 45 128l8 -7c-27 -33 -43 -75 -43 -121s16 -88 43 -121zM416 170c-49 0 -94 19 -129 49l7 7c33 -29 75 -46 122 -46c46 0 89 17 121 46l7 -8c-34 -30 -79 -48 -128 -48zM540 269l-8 7c20 26 33 59 33 95s-13 69 -34 95l8 7
c23 -28 36 -63 36 -102s-13 -74 -35 -102zM416 209c-39 0 -75 15 -103 38l7 8c26 -22 60 -36 96 -36s70 14 96 36l6 -8c-27 -23 -63 -38 -102 -38zM292 269c-22 28 -35 64 -35 102c0 39 13 74 36 102l7 -7c-20 -26 -33 -59 -33 -95s13 -69 33 -95zM320 487l-7 8
c28 24 64 38 103 38s75 -15 102 -39l-6 -7c-26 23 -59 36 -96 36c-36 0 -70 -14 -96 -36zM416 240c-32 0 -61 11 -83 30l7 8c21 -17 48 -28 76 -28c29 0 55 11 75 28l7 -7c-22 -19 -50 -31 -82 -31zM316 289c-18 23 -28 51 -28 82s10 59 28 81c2 -2 5 -4 7 -7
c-15 -20 -25 -46 -25 -74s10 -54 26 -75zM516 290l-7 7c15 20 25 46 25 74s-10 54 -26 75l8 7c18 -23 28 -51 28 -82s-10 -59 -28 -81zM341 464l-7 7c22 19 51 31 82 31s60 -11 82 -30l-7 -8c-20 17 -46 28 -75 28c-28 0 -54 -10 -75 -28zM358 445c-4 3 -7 7 -8 8
c18 15 41 24 66 24s48 -9 66 -24l-8 -8c-16 14 -36 22 -58 22s-42 -8 -58 -22zM416 265c-25 0 -48 9 -66 24l7 8c16 -14 37 -22 59 -22s42 8 58 22l7 -8c-18 -15 -40 -24 -65 -24zM334 306c-13 18 -21 40 -21 65c0 24 8 47 21 65l8 -7c-12 -16 -19 -36 -19 -58
c0 -21 7 -41 19 -57zM498 306l-8 7c12 16 19 36 19 58s-7 42 -19 58l7 7c14 -18 22 -41 22 -65s-8 -46 -21 -65zM416 285c-20 0 -38 7 -53 19l7 8c13 -10 29 -17 46 -17s32 6 45 17l7 -8c-14 -12 -32 -19 -52 -19zM371 430l-7 8c14 12 33 19 52 19c20 0 38 -7 52 -19
c-4 -4 -7 -8 -7 -8c-12 11 -28 17 -45 17s-33 -6 -45 -17zM349 320c-10 14 -16 32 -16 51s6 37 16 51l8 -7c-9 -13 -14 -28 -14 -44s5 -31 14 -44zM482 319c-2 3 -4 5 -7 7c9 13 14 29 14 45c0 17 -5 32 -14 44c0 0 8 7 7 7c11 -14 17 -32 17 -51s-6 -37 -17 -52zM468 333
l-8 7c6 9 10 20 10 31s-4 22 -10 31l8 7c8 -11 12 -24 12 -38s-4 -27 -12 -38zM416 305c-15 0 -28 5 -40 14l7 7c10 -7 21 -12 33 -12s23 5 32 12l7 -7c-11 -9 -25 -14 -39 -14zM364 333c-8 11 -12 24 -12 38s4 27 12 38c2 -3 5 -5 7 -7c-5 -9 -9 -20 -9 -31s4 -22 9 -31z
M384 416l-7 7c11 9 24 14 39 14c14 0 27 -5 38 -14l-6 -7c-9 8 -20 12 -32 12s-23 -5 -32 -12zM416 324c-10 0 -19 3 -27 9c2 1 6 6 6 6c6 -4 13 -7 21 -7s15 2 21 7c0 0 2 -2 5 -6c-7 -6 -16 -9 -26 -9zM395 403l-5 6c7 6 16 9 26 9s19 -3 26 -9c-3 -3 -5 -6 -5 -6
c-6 4 -13 7 -21 7s-15 -2 -21 -7zM378 346c-4 7 -7 16 -7 25s3 18 7 25c4 -3 6 -5 6 -5c-3 -6 -5 -13 -5 -20s2 -14 5 -20c0 0 -2 -2 -6 -5zM454 346c-4 3 -6 5 -6 5c3 6 5 13 5 20s-2 14 -5 20l6 5c4 -7 7 -16 7 -25s-3 -18 -7 -25z" />
    <glyph glyph-name="Ograve" unicode="&#xd2;" horiz-adv-x="834" 
d="M416 -12c-237 0 -372 118 -372 383c0 264 135 382 372 382c238 0 374 -118 374 -382c0 -265 -136 -383 -374 -383zM416 61c202 0 295 108 295 309c0 200 -93 308 -295 308c-201 0 -293 -108 -293 -308c0 -201 92 -309 293 -309zM421 785l-172 156h93l151 -156h-72z" />
    <glyph glyph-name="Uacute" unicode="&#xda;" horiz-adv-x="778" 
d="M311 785l151 156h93l-172 -156h-72zM388 -12c-263 0 -306 133 -306 279v474h79v-465c0 -126 40 -215 227 -215c189 0 232 87 232 215v465h76v-474c0 -147 -46 -279 -308 -279z" />
    <glyph glyph-name="Ucircumflex" unicode="&#xdb;" horiz-adv-x="778" 
d="M193 785l152 156h85l152 -156h-76l-120 107l-118 -107h-75zM388 -12c-263 0 -306 133 -306 279v474h79v-465c0 -126 40 -215 227 -215c189 0 232 87 232 215v465h76v-474c0 -147 -46 -279 -308 -279z" />
    <glyph glyph-name="Ugrave" unicode="&#xd9;" horiz-adv-x="778" 
d="M388 -12c-263 0 -306 133 -306 279v474h79v-465c0 -126 40 -215 227 -215c189 0 232 87 232 215v465h76v-474c0 -147 -46 -279 -308 -279zM393 785l-172 156h93l151 -156h-72z" />
    <glyph glyph-name="dotlessi" unicode="&#x131;" horiz-adv-x="238" 
d="M81 0v552h75v-552h-75z" />
    <glyph glyph-name="circumflex" unicode="&#x2c6;" horiz-adv-x="590" 
d="M100 610l152 156h85l152 -156h-76l-120 107l-118 -107h-75z" />
    <glyph glyph-name="tilde" unicode="&#x2dc;" horiz-adv-x="590" 
d="M151 613l-48 37c33 41 78 74 122 74c68 0 89 -48 139 -48c26 0 53 25 78 54l46 -37c-34 -42 -77 -81 -123 -81c-60 0 -90 49 -139 49c-24 0 -53 -19 -75 -48z" />
    <glyph glyph-name="macron" unicode="&#xaf;" horiz-adv-x="590" 
d="M115 606v65h360v-65h-360z" />
    <glyph glyph-name="macron" unicode="&#x304;" horiz-adv-x="590" 
d="M115 606v65h360v-65h-360z" />
    <glyph glyph-name="breve" unicode="&#x2d8;" horiz-adv-x="590" 
d="M295 600c-132 0 -171 68 -187 148l58 12c12 -54 38 -97 129 -97c90 0 116 43 129 97l59 -11c-18 -81 -57 -149 -188 -149z" />
    <glyph glyph-name="dotaccent" unicode="&#x2d9;" horiz-adv-x="590" 
d="M257 609v107h76v-107h-76z" />
    <glyph glyph-name="ring" unicode="&#x2da;" horiz-adv-x="590" 
d="M295 599c-84 0 -120 53 -120 123s36 124 120 124c80 0 119 -54 119 -124s-39 -123 -119 -123zM295 644c52 0 74 34 74 78s-22 78 -74 78c-54 0 -75 -34 -75 -78s21 -78 75 -78z" />
    <glyph glyph-name="cedilla" unicode="&#xb8;" horiz-adv-x="590" 
d="M303 -225c-50 0 -86 12 -116 29l23 42c26 -14 57 -23 90 -23c67 0 79 25 79 53c0 36 -21 49 -94 45l-22 16l14 70h49l-9 -52c60 4 117 -5 117 -84c0 -56 -32 -96 -131 -96z" />
    <glyph glyph-name="hungarumlaut" unicode="&#x2dd;" horiz-adv-x="590" 
d="M110 610l126 155h90l-148 -155h-68zM337 610l126 155h89l-147 -155h-68z" />
    <glyph glyph-name="ogonek" unicode="&#x2db;" horiz-adv-x="590" 
d="M302 -217c-100 0 -123 44 -123 100c0 58 54 103 92 125h78c-65 -37 -102 -80 -102 -116c0 -26 9 -51 65 -51c33 0 67 10 86 19l23 -52c-28 -15 -74 -25 -119 -25z" />
    <glyph glyph-name="caron" unicode="&#x2c7;" horiz-adv-x="590" 
d="M252 610l-152 156h76l120 -107l119 107h74l-152 -156h-85z" />
    <glyph glyph-name="a.alt" horiz-adv-x="642" 
d="M286 -9c-183 0 -237 114 -237 288c0 172 54 285 239 285c120 0 179 -22 209 -74l15 71l54 -5v-553l-59 -5l-9 71c-35 -55 -90 -78 -212 -78zM300 60c137 0 190 55 190 219c0 162 -51 214 -190 214c-137 0 -174 -80 -174 -214c0 -136 37 -219 174 -219z" />
    <glyph glyph-name="g.alt" horiz-adv-x="647" 
d="M310 -179c-89 0 -180 18 -228 36l25 67c45 -16 126 -34 196 -34c177 0 192 57 192 160v21c-43 -55 -98 -74 -210 -74c-175 0 -236 111 -236 284s56 284 239 284c119 0 179 -21 214 -74l15 70l54 -5v-489c0 -152 -19 -246 -261 -246zM300 66c138 0 195 54 195 214
s-55 213 -195 213c-136 0 -174 -80 -174 -213c0 -132 37 -214 174 -214z" />
    <glyph glyph-name="l.alt" horiz-adv-x="238" 
d="M81 0v776h75v-776h-75z" />
    <glyph glyph-name="u.alt" horiz-adv-x="619" 
d="M273 -11c-176 0 -200 96 -200 233v330h75v-319c0 -101 11 -174 145 -174c147 0 173 81 173 186v307h76v-549l-58 -5l-9 65c-26 -40 -85 -74 -202 -74z" />
    <glyph glyph-name="aacute.alt" horiz-adv-x="642" 
d="M242 610l151 156h93l-172 -156h-72zM286 -9c-183 0 -237 114 -237 288c0 172 54 285 239 285c120 0 179 -22 209 -74l15 71l54 -5v-553l-59 -5l-9 71c-35 -55 -90 -78 -212 -78zM300 60c137 0 190 55 190 219c0 162 -51 214 -190 214c-137 0 -174 -80 -174 -214
c0 -136 37 -219 174 -219z" />
    <glyph glyph-name="abreve.alt" horiz-adv-x="642" 
d="M286 -9c-183 0 -237 114 -237 288c0 172 54 285 239 285c120 0 179 -22 209 -74l15 71l54 -5v-553l-59 -5l-9 71c-35 -55 -90 -78 -212 -78zM300 60c137 0 190 55 190 219c0 162 -51 214 -190 214c-137 0 -174 -80 -174 -214c0 -136 37 -219 174 -219zM319 600
c-132 0 -171 68 -187 148l58 12c12 -54 38 -97 129 -97c90 0 116 43 129 97l59 -11c-18 -81 -57 -149 -188 -149z" />
    <glyph glyph-name="acircumflex.alt" horiz-adv-x="642" 
d="M124 610l152 156h85l152 -156h-76l-120 107l-118 -107h-75zM286 -9c-183 0 -237 114 -237 288c0 172 54 285 239 285c120 0 179 -22 209 -74l15 71l54 -5v-553l-59 -5l-9 71c-35 -55 -90 -78 -212 -78zM300 60c137 0 190 55 190 219c0 162 -51 214 -190 214
c-137 0 -174 -80 -174 -214c0 -136 37 -219 174 -219z" />
    <glyph glyph-name="adieresis.alt" horiz-adv-x="642" 
d="M179 612v102h70v-102h-70zM390 612v102h69v-102h-69zM286 -9c-183 0 -237 114 -237 288c0 172 54 285 239 285c120 0 179 -22 209 -74l15 71l54 -5v-553l-59 -5l-9 71c-35 -55 -90 -78 -212 -78zM300 60c137 0 190 55 190 219c0 162 -51 214 -190 214
c-137 0 -174 -80 -174 -214c0 -136 37 -219 174 -219z" />
    <glyph glyph-name="agrave.alt" horiz-adv-x="642" 
d="M286 -9c-183 0 -237 114 -237 288c0 172 54 285 239 285c120 0 179 -22 209 -74l15 71l54 -5v-553l-59 -5l-9 71c-35 -55 -90 -78 -212 -78zM300 60c137 0 190 55 190 219c0 162 -51 214 -190 214c-137 0 -174 -80 -174 -214c0 -136 37 -219 174 -219zM324 610l-172 156
h93l151 -156h-72z" />
    <glyph glyph-name="amacron.alt" horiz-adv-x="642" 
d="M286 -9c-183 0 -237 114 -237 288c0 172 54 285 239 285c120 0 179 -22 209 -74l15 71l54 -5v-553l-59 -5l-9 71c-35 -55 -90 -78 -212 -78zM300 60c137 0 190 55 190 219c0 162 -51 214 -190 214c-137 0 -174 -80 -174 -214c0 -136 37 -219 174 -219zM139 606v65h360
v-65h-360z" />
    <glyph glyph-name="aogonek.alt" horiz-adv-x="642" 
d="M286 -9c-183 0 -237 114 -237 288c0 172 54 285 239 285c120 0 179 -22 209 -74l15 71l54 -5v-553c-65 -37 -97 -74 -97 -110c0 -26 9 -52 60 -52c29 0 54 6 72 13l23 -52c-22 -12 -60 -19 -105 -19c-92 0 -118 45 -118 102c0 61 50 109 103 136l-6 48
c-35 -55 -90 -78 -212 -78zM300 60c137 0 190 55 190 219c0 162 -51 214 -190 214c-137 0 -174 -80 -174 -214c0 -136 37 -219 174 -219z" />
    <glyph glyph-name="aring.alt" horiz-adv-x="642" 
d="M319 599c-84 0 -120 53 -120 123s36 124 120 124c80 0 119 -54 119 -124s-39 -123 -119 -123zM319 644c52 0 74 34 74 78s-22 78 -74 78c-54 0 -75 -34 -75 -78s21 -78 75 -78zM286 -9c-183 0 -237 114 -237 288c0 172 54 285 239 285c120 0 179 -22 209 -74l15 71l54 -5
v-553l-59 -5l-9 71c-35 -55 -90 -78 -212 -78zM300 60c137 0 190 55 190 219c0 162 -51 214 -190 214c-137 0 -174 -80 -174 -214c0 -136 37 -219 174 -219z" />
    <glyph glyph-name="atilde.alt" horiz-adv-x="642" 
d="M286 -9c-183 0 -237 114 -237 288c0 172 54 285 239 285c120 0 179 -22 209 -74l15 71l54 -5v-553l-59 -5l-9 71c-35 -55 -90 -78 -212 -78zM300 60c137 0 190 55 190 219c0 162 -51 214 -190 214c-137 0 -174 -80 -174 -214c0 -136 37 -219 174 -219zM175 613l-48 37
c33 41 78 74 122 74c68 0 89 -48 139 -48c26 0 53 25 78 54l46 -37c-34 -42 -77 -81 -123 -81c-60 0 -90 49 -139 49c-24 0 -53 -19 -75 -48z" />
    <glyph glyph-name="gbreve.alt" horiz-adv-x="647" 
d="M310 -179c-89 0 -180 18 -228 36l25 67c45 -16 126 -34 196 -34c177 0 192 57 192 160v21c-43 -55 -98 -74 -210 -74c-175 0 -236 111 -236 284s56 284 239 284c119 0 179 -21 214 -74l15 70l54 -5v-489c0 -152 -19 -246 -261 -246zM300 66c138 0 195 54 195 214
s-55 213 -195 213c-136 0 -174 -80 -174 -213c0 -132 37 -214 174 -214zM323 600c-132 0 -171 68 -187 148l58 12c12 -54 38 -97 129 -97c90 0 116 43 129 97l59 -11c-18 -81 -57 -149 -188 -149z" />
    <glyph glyph-name="gcommaaccent.alt" horiz-adv-x="647" 
d="M277 609v67c0 74 15 102 77 133l20 -36c-41 -22 -51 -36 -51 -75h45v-89h-91zM310 -179c-89 0 -180 18 -228 36l25 67c45 -16 126 -34 196 -34c177 0 192 57 192 160v21c-43 -55 -98 -74 -210 -74c-175 0 -236 111 -236 284s56 284 239 284c119 0 179 -21 214 -74l15 70
l54 -5v-489c0 -152 -19 -246 -261 -246zM300 66c138 0 195 54 195 214s-55 213 -195 213c-136 0 -174 -80 -174 -213c0 -132 37 -214 174 -214z" />
    <glyph glyph-name="lacute.alt" horiz-adv-x="238" 
d="M82 811l151 156h93l-172 -156h-72zM81 0v776h75v-776h-75z" />
    <glyph glyph-name="lcommaaccent.alt" horiz-adv-x="238" 
d="M88 -244l-20 35c41 22 51 37 51 75h-45v95h91v-73c0 -74 -15 -101 -77 -132zM81 0v776h75v-776h-75z" />
    <glyph glyph-name="lslash.alt" horiz-adv-x="278" 
d="M0 387v68l101 58v263h75v-219l101 59v-68l-101 -59v-489h-75v445z" />
    <glyph glyph-name="lcaron.alt" horiz-adv-x="335" 
d="M255 571l-20 36c40 22 51 36 51 74h-42v95h88v-72c0 -75 -15 -102 -77 -133zM81 0v776h75v-776h-75z" />
    <glyph glyph-name="uacute.alt" horiz-adv-x="619" 
d="M231 610l151 156h93l-172 -156h-72zM273 -11c-176 0 -200 96 -200 233v330h75v-319c0 -101 11 -174 145 -174c147 0 173 81 173 186v307h76v-549l-58 -5l-9 65c-26 -40 -85 -74 -202 -74z" />
    <glyph glyph-name="ucircumflex.alt" horiz-adv-x="619" 
d="M113 610l152 156h85l152 -156h-76l-120 107l-118 -107h-75zM273 -11c-176 0 -200 96 -200 233v330h75v-319c0 -101 11 -174 145 -174c147 0 173 81 173 186v307h76v-549l-58 -5l-9 65c-26 -40 -85 -74 -202 -74z" />
    <glyph glyph-name="udieresis.alt" horiz-adv-x="619" 
d="M168 612v102h70v-102h-70zM379 612v102h69v-102h-69zM273 -11c-176 0 -200 96 -200 233v330h75v-319c0 -101 11 -174 145 -174c147 0 173 81 173 186v307h76v-549l-58 -5l-9 65c-26 -40 -85 -74 -202 -74z" />
    <glyph glyph-name="ugrave.alt" horiz-adv-x="619" 
d="M313 610l-172 156h93l151 -156h-72zM273 -11c-176 0 -200 96 -200 233v330h75v-319c0 -101 11 -174 145 -174c147 0 173 81 173 186v307h76v-549l-58 -5l-9 65c-26 -40 -85 -74 -202 -74z" />
    <glyph glyph-name="uhungarumlaut.alt" horiz-adv-x="619" 
d="M123 610l126 155h90l-148 -155h-68zM350 610l126 155h89l-147 -155h-68zM273 -11c-176 0 -200 96 -200 233v330h75v-319c0 -101 11 -174 145 -174c147 0 173 81 173 186v307h76v-549l-58 -5l-9 65c-26 -40 -85 -74 -202 -74z" />
    <glyph glyph-name="umacron.alt" horiz-adv-x="619" 
d="M128 606v65h360v-65h-360zM273 -11c-176 0 -200 96 -200 233v330h75v-319c0 -101 11 -174 145 -174c147 0 173 81 173 186v307h76v-549l-58 -5l-9 65c-26 -40 -85 -74 -202 -74z" />
    <glyph glyph-name="uogonek.alt" horiz-adv-x="619" 
d="M273 -11c-176 0 -200 96 -200 233v330h75v-319c0 -101 11 -174 145 -174c147 0 173 81 173 186v307h76v-549c-65 -37 -97 -74 -97 -110c0 -26 9 -52 60 -52c29 0 54 6 72 13l23 -52c-22 -12 -60 -19 -105 -19c-92 0 -118 45 -118 102c0 62 50 110 103 137l-5 41
c-26 -40 -85 -74 -202 -74z" />
    <glyph glyph-name="uring.alt" horiz-adv-x="619" 
d="M308 599c-84 0 -120 53 -120 123s36 124 120 124c80 0 119 -54 119 -124s-39 -123 -119 -123zM308 644c52 0 74 34 74 78s-22 78 -74 78c-54 0 -75 -34 -75 -78s21 -78 75 -78zM273 -11c-176 0 -200 96 -200 233v330h75v-319c0 -101 11 -174 145 -174
c147 0 173 81 173 186v307h76v-549l-58 -5l-9 65c-26 -40 -85 -74 -202 -74z" />
    <glyph glyph-name="fl.alt" horiz-adv-x="609" 
d="M31 483v69h104v51c0 102 34 173 164 173h60v-67h-52c-78 0 -97 -45 -97 -106v-51h149v-69h-149v-483h-75v483h-104zM452 0v783h76v-783h-76z" />
    <glyph glyph-name="f_f_l.alt" horiz-adv-x="926" 
d="M452 0v483h-242v-483h-75v483h-104v69h104v51c0 102 34 173 164 173h60v-67h-52c-78 0 -97 -45 -97 -106v-51h242v51c0 102 34 173 164 173h61v-67h-53c-77 0 -96 -45 -96 -106v-51h149v-69h-149v-483h-76zM770 0v783h75v-783h-75z" />
    <glyph glyph-name="commaaccent" unicode="&#x326;" horiz-adv-x="239" 
d="M88 -244l-20 35c41 22 51 37 51 75h-45v95h91v-73c0 -74 -15 -101 -77 -132z" />
    <glyph glyph-name="commaaccent.2" horiz-adv-x="239" 
d="M74 609v67c0 74 15 102 77 133l20 -36c-41 -22 -51 -36 -51 -75h45v-89h-91z" />
    <glyph glyph-name="Abreve" unicode="&#x102;" horiz-adv-x="726" 
d="M25 0l297 746h79l297 -746h-80l-68 171h-380l-67 -171h-78zM197 243h325l-162 408zM361 775c-132 0 -171 68 -187 148l58 12c12 -54 38 -97 129 -97c90 0 116 43 129 97l59 -11c-18 -81 -57 -149 -188 -149z" />
    <glyph glyph-name="Amacron" unicode="&#x100;" horiz-adv-x="726" 
d="M25 0l297 746h79l297 -746h-80l-68 171h-380l-67 -171h-78zM197 243h325l-162 408zM181 781v65h360v-65h-360z" />
    <glyph glyph-name="Aogonek" unicode="&#x104;" horiz-adv-x="726" 
d="M25 0l297 746h79l297 -746h-25c-62 -36 -92 -72 -92 -107c0 -26 9 -52 60 -52c29 0 54 6 72 13l23 -52c-22 -12 -60 -19 -105 -19c-92 0 -118 45 -118 102c0 59 46 106 97 133l-60 153h-380l-67 -171h-78zM197 243h325l-162 408z" />
    <glyph glyph-name="Cacute" unicode="&#x106;" horiz-adv-x="721" 
d="M283 785l151 156h93l-172 -156h-72zM409 -11c-249 0 -365 131 -365 382c0 259 134 382 369 382c105 0 194 -31 259 -93l-56 -56c-53 48 -123 74 -204 74c-191 0 -289 -103 -289 -308c0 -202 92 -307 290 -307c111 0 165 35 209 76l55 -53c-51 -50 -124 -97 -268 -97z" />
    <glyph glyph-name="Ccaron" unicode="&#x10c;" horiz-adv-x="721" 
d="M317 785l-152 156h76l120 -107l119 107h74l-152 -156h-85zM409 -11c-249 0 -365 131 -365 382c0 259 134 382 369 382c105 0 194 -31 259 -93l-56 -56c-53 48 -123 74 -204 74c-191 0 -289 -103 -289 -308c0 -202 92 -307 290 -307c111 0 165 35 209 76l55 -53
c-51 -50 -124 -97 -268 -97z" />
    <glyph glyph-name="Dcaron" unicode="&#x10e;" horiz-adv-x="752" 
d="M332 785l-152 156h76l120 -107l119 107h74l-152 -156h-85zM87 0v741h242c278 0 380 -84 380 -370c0 -280 -114 -371 -393 -371h-229zM166 72h153c234 0 311 79 311 299c0 224 -65 296 -300 296h-164v-595z" />
    <glyph glyph-name="Dcroat" unicode="&#x110;" horiz-adv-x="752" 
d="M0 351v66h87v324h242c278 0 380 -84 380 -370c0 -280 -117 -371 -393 -371h-229v351h-87zM166 72h153c234 0 311 79 311 299c0 224 -65 296 -300 296h-164v-250h168v-66h-168v-279z" />
    <glyph glyph-name="Emacron" unicode="&#x112;" horiz-adv-x="639" 
d="M87 0v741h490v-75h-411v-245h401v-74h-401v-275h415v-72h-494zM138 781v65h360v-65h-360z" />
    <glyph glyph-name="Edotaccent" unicode="&#x116;" horiz-adv-x="639" 
d="M87 0v741h490v-75h-411v-245h401v-74h-401v-275h415v-72h-494zM280 784v107h76v-107h-76z" />
    <glyph glyph-name="Eogonek" unicode="&#x118;" horiz-adv-x="639" 
d="M87 0v741h490v-75h-411v-245h401v-74h-401v-275h415v-72h-79c-56 -35 -88 -74 -88 -108c0 -26 9 -51 65 -51c33 0 67 10 86 19l23 -52c-28 -15 -74 -25 -119 -25c-100 0 -123 44 -123 100c0 52 43 93 79 117h-338z" />
    <glyph glyph-name="Ecaron" unicode="&#x11a;" horiz-adv-x="639" 
d="M275 785l-152 156h76l120 -107l119 107h74l-152 -156h-85zM87 0v741h490v-75h-411v-245h401v-74h-401v-275h415v-72h-494z" />
    <glyph glyph-name="Gbreve" unicode="&#x11e;" horiz-adv-x="777" 
d="M408 -11c-263 0 -364 129 -364 382c0 267 132 382 368 382c142 0 222 -46 270 -92l-56 -57c-47 41 -109 74 -214 74c-193 0 -290 -98 -290 -308s80 -311 289 -311c199 0 243 85 243 249v24h-250v73h328v-84c0 -201 -52 -332 -324 -332zM388 775c-132 0 -171 68 -187 148
l58 12c12 -54 38 -97 129 -97c90 0 116 43 129 97l59 -11c-18 -81 -57 -149 -188 -149z" />
    <glyph glyph-name="Gcommaaccent" unicode="&#x122;" horiz-adv-x="777" 
d="M357 -244l-20 35c41 22 51 37 51 75h-45v95h91v-73c0 -74 -15 -101 -77 -132zM408 -11c-263 0 -364 129 -364 382c0 267 132 382 368 382c142 0 222 -46 270 -92l-56 -57c-47 41 -109 74 -214 74c-193 0 -290 -98 -290 -308s80 -311 289 -311c199 0 243 85 243 249v24
h-250v73h328v-84c0 -201 -52 -332 -324 -332z" />
    <glyph glyph-name="Imacron" unicode="&#x12a;" horiz-adv-x="267" 
d="M95 0v741h77v-741h-77zM-46 781v65h360v-65h-360z" />
    <glyph glyph-name="Iogonek" unicode="&#x12e;" horiz-adv-x="267" 
d="M125 -217c-92 0 -118 45 -118 102c0 56 41 100 88 128v728h77v-741c-69 -37 -97 -71 -97 -107c0 -26 9 -52 60 -52c29 0 54 6 72 13l23 -52c-22 -12 -60 -19 -105 -19z" />
    <glyph glyph-name="Kcommaaccent" unicode="&#x136;" horiz-adv-x="704" 
d="M320 -244l-20 35c41 22 51 37 51 75h-45v95h91v-73c0 -74 -15 -101 -77 -132zM577 0l-265 393l-148 -162v-231h-77v741h77v-409l375 409h91l-266 -291l302 -450h-89z" />
    <glyph glyph-name="Lacute" unicode="&#x139;" horiz-adv-x="587" 
d="M94 785l151 156h93l-172 -156h-72zM87 0v741h79v-669h394v-72h-473z" />
    <glyph glyph-name="Lcommaaccent" unicode="&#x13b;" horiz-adv-x="587" 
d="M261 -244l-20 35c41 22 51 37 51 75h-45v95h91v-73c0 -74 -15 -101 -77 -132zM87 0v741h79v-669h394v-72h-473z" />
    <glyph glyph-name="Lcaron" unicode="&#x13d;" horiz-adv-x="587" 
d="M287 571l-20 36c40 22 51 36 51 74h-43v95h88v-72c0 -75 -14 -102 -76 -133zM87 0v741h79v-669h394v-72h-473z" />
    <glyph glyph-name="Nacute" unicode="&#x143;" horiz-adv-x="779" 
d="M311 785l151 156h93l-172 -156h-72zM87 0v741h86l443 -611v611h76v-741h-72l-457 629v-629h-76z" />
    <glyph glyph-name="Ncommaaccent" unicode="&#x145;" horiz-adv-x="779" 
d="M357 -244l-20 35c41 22 51 37 51 75h-45v95h91v-73c0 -74 -15 -101 -77 -132zM87 0v741h86l443 -611v611h76v-741h-72l-457 629v-629h-76z" />
    <glyph glyph-name="Ncaron" unicode="&#x147;" horiz-adv-x="779" 
d="M345 785l-152 156h76l120 -107l119 107h74l-152 -156h-85zM87 0v741h86l443 -611v611h76v-741h-72l-457 629v-629h-76z" />
    <glyph glyph-name="Omacron" unicode="&#x14c;" horiz-adv-x="834" 
d="M236 781v65h360v-65h-360zM416 -12c-237 0 -372 118 -372 383c0 264 135 382 372 382c238 0 374 -118 374 -382c0 -265 -136 -383 -374 -383zM416 61c202 0 295 108 295 309c0 200 -93 308 -295 308c-201 0 -293 -108 -293 -308c0 -201 92 -309 293 -309z" />
    <glyph glyph-name="Ohungarumlaut" unicode="&#x150;" horiz-adv-x="834" 
d="M231 785l126 155h90l-148 -155h-68zM458 785l126 155h89l-147 -155h-68zM416 -12c-237 0 -372 118 -372 383c0 264 135 382 372 382c238 0 374 -118 374 -382c0 -265 -136 -383 -374 -383zM416 61c202 0 295 108 295 309c0 200 -93 308 -295 308
c-201 0 -293 -108 -293 -308c0 -201 92 -309 293 -309z" />
    <glyph glyph-name="Racute" unicode="&#x154;" horiz-adv-x="718" 
d="M280 785l151 156h93l-172 -156h-72zM562 0l-177 302h-221v-302h-77v741h320c172 0 250 -70 250 -217c0 -128 -61 -202 -190 -219l179 -305h-84zM164 374h244c105 0 170 32 170 147s-63 147 -173 147h-241v-294z" />
    <glyph glyph-name="Rcommaaccent" unicode="&#x156;" horiz-adv-x="718" 
d="M327 -244l-20 35c41 22 51 37 51 75h-45v95h91v-73c0 -74 -15 -101 -77 -132zM562 0l-177 302h-221v-302h-77v741h320c172 0 250 -70 250 -217c0 -128 -61 -202 -190 -219l179 -305h-84zM164 374h244c105 0 170 32 170 147s-63 147 -173 147h-241v-294z" />
    <glyph glyph-name="Rcaron" unicode="&#x158;" horiz-adv-x="718" 
d="M314 785l-152 156h76l120 -107l119 107h74l-152 -156h-85zM562 0l-177 302h-221v-302h-77v741h320c172 0 250 -70 250 -217c0 -128 -61 -202 -190 -219l179 -305h-84zM164 374h244c105 0 170 32 170 147s-63 147 -173 147h-241v-294z" />
    <glyph glyph-name="Sacute" unicode="&#x15a;" horiz-adv-x="703" 
d="M273 785l151 156h93l-172 -156h-72zM348 -10c-112 0 -213 23 -307 85l40 60c89 -56 176 -75 265 -75c153 0 221 43 221 145c0 105 -88 120 -221 144c-160 28 -268 55 -268 205c0 143 92 199 268 199c116 0 199 -26 258 -66l-42 -64c-53 35 -132 58 -216 58
c-133 0 -190 -37 -190 -125c0 -94 77 -112 209 -136c162 -29 279 -53 279 -212c0 -147 -94 -218 -296 -218z" />
    <glyph glyph-name="Scedilla" unicode="&#x15e;" horiz-adv-x="703" 
d="M358 -225c-50 0 -86 12 -116 29l23 42c26 -14 57 -23 90 -23c67 0 79 25 79 53c0 36 -21 49 -94 45l-22 16l10 53c-104 3 -199 26 -287 85l40 60c89 -56 176 -75 265 -75c153 0 221 43 221 145c0 105 -88 120 -221 144c-160 28 -268 55 -268 205c0 143 92 199 268 199
c116 0 199 -26 258 -66l-42 -64c-53 35 -132 58 -216 58c-133 0 -190 -37 -190 -125c0 -94 77 -112 209 -136c162 -29 279 -53 279 -212c0 -140 -85 -210 -266 -217l-6 -36c60 4 117 -5 117 -84c0 -56 -32 -96 -131 -96z" />
    <glyph glyph-name="Scommaaccent" unicode="&#x218;" horiz-adv-x="703" 
d="M319 -244l-20 35c41 22 51 37 51 75h-45v95h91v-73c0 -74 -15 -101 -77 -132zM348 -10c-112 0 -213 23 -307 85l40 60c89 -56 176 -75 265 -75c153 0 221 43 221 145c0 105 -88 120 -221 144c-160 28 -268 55 -268 205c0 143 92 199 268 199c116 0 199 -26 258 -66
l-42 -64c-53 35 -132 58 -216 58c-133 0 -190 -37 -190 -125c0 -94 77 -112 209 -136c162 -29 279 -53 279 -212c0 -147 -94 -218 -296 -218z" />
    <glyph glyph-name="Tcommaaccent" unicode="&#x162;" horiz-adv-x="688" 
d="M312 -244l-20 35c41 22 51 37 51 75h-45v95h91v-73c0 -74 -15 -101 -77 -132zM305 0v666h-278v75h635v-75h-278v-666h-79z" />
    <glyph glyph-name="Tcommaaccent" unicode="&#x21a;" horiz-adv-x="688" 
d="M312 -244l-20 35c41 22 51 37 51 75h-45v95h91v-73c0 -74 -15 -101 -77 -132zM305 0v666h-278v75h635v-75h-278v-666h-79z" />
    <glyph glyph-name="Tcaron" unicode="&#x164;" horiz-adv-x="688" 
d="M300 785l-152 156h76l120 -107l119 107h74l-152 -156h-85zM305 0v666h-278v75h635v-75h-278v-666h-79z" />
    <glyph glyph-name="Umacron" unicode="&#x16a;" horiz-adv-x="778" 
d="M388 -12c-263 0 -306 133 -306 279v474h79v-465c0 -126 40 -215 227 -215c189 0 232 87 232 215v465h76v-474c0 -147 -46 -279 -308 -279zM208 781v65h360v-65h-360z" />
    <glyph glyph-name="Uring" unicode="&#x16e;" horiz-adv-x="778" 
d="M388 774c-84 0 -120 53 -120 123s36 124 120 124c80 0 119 -54 119 -124s-39 -123 -119 -123zM388 819c52 0 74 34 74 78s-22 78 -74 78c-54 0 -75 -34 -75 -78s21 -78 75 -78zM388 -12c-263 0 -306 133 -306 279v474h79v-465c0 -126 40 -215 227 -215
c189 0 232 87 232 215v465h76v-474c0 -147 -46 -279 -308 -279z" />
    <glyph glyph-name="Uhungarumlaut" unicode="&#x170;" horiz-adv-x="778" 
d="M388 -12c-263 0 -306 133 -306 279v474h79v-465c0 -126 40 -215 227 -215c189 0 232 87 232 215v465h76v-474c0 -147 -46 -279 -308 -279zM203 785l126 155h90l-148 -155h-68zM430 785l126 155h89l-147 -155h-68z" />
    <glyph glyph-name="Uogonek" unicode="&#x172;" horiz-adv-x="778" 
d="M498 -214c-99 0 -117 39 -117 89c0 49 38 92 75 117c-21 -3 -43 -4 -68 -4c-263 0 -306 132 -306 278v475h79v-467c0 -126 39 -216 228 -216c190 0 231 88 231 216v467h76v-475c0 -113 -25 -204 -142 -255c-74 -33 -116 -87 -116 -129c0 -27 10 -49 69 -49
c36 0 67 11 89 22l18 -40c-31 -16 -71 -29 -116 -29z" />
    <glyph glyph-name="Zacute" unicode="&#x179;" horiz-adv-x="665" 
d="M255 785l151 156h93l-172 -156h-72zM45 0v63l464 603h-447v75h544v-68l-462 -601h473v-72h-572z" />
    <glyph glyph-name="Zdotaccent" unicode="&#x17b;" horiz-adv-x="665" 
d="M45 0v63l464 603h-447v75h544v-68l-462 -601h473v-72h-572zM294 784v107h76v-107h-76z" />
    <glyph glyph-name="abreve" unicode="&#x103;" 
d="M238 -10c-155 0 -194 71 -194 164c0 157 88 204 368 204h33c-2 94 -22 136 -149 136c-70 0 -130 -25 -165 -48l-40 59c36 25 119 60 211 60c186 0 216 -65 216 -223v-208c0 -59 4 -67 57 -67v-66c-5 -2 -15 -2 -30 -2c-64 0 -81 20 -90 69c-34 -52 -93 -78 -217 -78z
M249 55c139 0 196 60 196 194v40h-29c-240 0 -299 -26 -299 -130c0 -66 30 -104 132 -104zM311 600c-132 0 -171 68 -187 148l58 12c12 -54 38 -97 129 -97c90 0 116 43 129 97l59 -11c-18 -81 -57 -149 -188 -149z" />
    <glyph glyph-name="amacron" unicode="&#x101;" 
d="M238 -10c-155 0 -194 71 -194 164c0 157 88 204 368 204h33c-2 94 -22 136 -149 136c-70 0 -130 -25 -165 -48l-40 59c36 25 119 60 211 60c186 0 216 -65 216 -223v-208c0 -59 4 -67 57 -67v-66c-5 -2 -15 -2 -30 -2c-64 0 -81 20 -90 69c-34 -52 -93 -78 -217 -78z
M249 55c139 0 196 60 196 194v40h-29c-240 0 -299 -26 -299 -130c0 -66 30 -104 132 -104zM131 606v65h360v-65h-360z" />
    <glyph glyph-name="aogonek" unicode="&#x105;" 
d="M238 -10c-155 0 -194 71 -194 164c0 157 88 204 368 204h33c-2 94 -22 136 -149 136c-70 0 -130 -25 -165 -48l-40 59c36 25 119 60 211 60c186 0 216 -65 216 -223v-208c0 -59 4 -67 57 -67v-66c-1 0 -1 -1 -1 -1c-65 -36 -101 -71 -101 -107c0 -26 9 -52 65 -52
c29 0 54 6 72 13l23 -52c-22 -12 -60 -19 -105 -19c-100 0 -123 45 -123 102c0 56 51 99 89 121c-13 5 -21 13 -27 24c-6 10 -9 23 -12 38c-34 -52 -93 -78 -217 -78zM249 55c139 0 196 60 196 194v40h-29c-240 0 -299 -26 -299 -130c0 -66 30 -104 132 -104z" />
    <glyph glyph-name="cacute" unicode="&#x107;" horiz-adv-x="563" 
d="M205 610l151 156h93l-172 -156h-72zM313 -10c-206 0 -264 112 -264 287s58 288 266 288c99 0 159 -36 199 -79l-55 -52c-27 27 -70 58 -144 58c-145 0 -190 -79 -190 -217c0 -136 43 -217 190 -217c63 0 106 20 148 58l51 -48c-55 -50 -109 -78 -201 -78z" />
    <glyph glyph-name="ccaron" unicode="&#x10d;" horiz-adv-x="563" 
d="M239 610l-152 156h76l120 -107l119 107h74l-152 -156h-85zM313 -10c-206 0 -264 112 -264 287s58 288 266 288c99 0 159 -36 199 -79l-55 -52c-27 27 -70 58 -144 58c-145 0 -190 -79 -190 -217c0 -136 43 -217 190 -217c63 0 106 20 148 58l51 -48
c-55 -50 -109 -78 -201 -78z" />
    <glyph glyph-name="dcaron" unicode="&#x10f;" horiz-adv-x="749" 
d="M669 571l-20 36c40 22 51 36 51 74h-42v95h87v-72c0 -75 -14 -102 -76 -133zM286 -10c-184 0 -237 115 -237 289c0 172 54 285 239 285c120 0 178 -23 207 -74v286h76v-773l-59 -5l-9 71c-35 -55 -95 -79 -217 -79zM300 60c139 0 195 55 195 219c0 162 -53 214 -195 214
c-137 0 -174 -80 -174 -214c0 -136 37 -219 174 -219z" />
    <glyph glyph-name="dcroat" unicode="&#x111;" horiz-adv-x="647" 
d="M329 623v67h166v86h76v-86h76v-67h-76v-620l-59 -5l-9 71c-35 -55 -95 -79 -217 -79c-184 0 -237 115 -237 289c0 172 54 285 239 285c120 0 178 -23 207 -74v133h-166zM300 60c139 0 195 55 195 219c0 162 -53 214 -195 214c-137 0 -174 -80 -174 -214
c0 -136 37 -219 174 -219z" />
    <glyph glyph-name="emacron" unicode="&#x113;" horiz-adv-x="593" 
d="M314 -11c-222 0 -265 127 -265 288c0 160 48 288 262 288c222 0 229 -153 227 -314h-416c4 -116 38 -196 192 -196c91 0 134 24 178 56l41 -53c-55 -42 -117 -69 -219 -69zM309 497c-139 0 -178 -71 -186 -177h343c-5 98 -12 177 -157 177zM115 606v65h360v-65h-360z" />
    <glyph glyph-name="edotaccent" unicode="&#x117;" horiz-adv-x="593" 
d="M314 -11c-222 0 -265 127 -265 288c0 160 48 288 262 288c222 0 229 -153 227 -314h-416c4 -116 38 -196 192 -196c91 0 134 24 178 56l41 -53c-55 -42 -117 -69 -219 -69zM309 497c-139 0 -178 -71 -186 -177h343c-5 98 -12 177 -157 177zM257 609v107h76v-107h-76z" />
    <glyph glyph-name="eogonek" unicode="&#x119;" horiz-adv-x="593" 
d="M314 -11c-222 0 -265 127 -265 288c0 160 48 288 262 288c222 0 229 -153 227 -314h-416c4 -116 38 -196 192 -196c91 0 134 24 178 56l41 -53c-28 -21 -56 -38 -91 -50h1c-65 -37 -102 -80 -102 -116c0 -26 9 -51 65 -51c33 0 67 10 86 19l23 -52
c-28 -15 -74 -25 -119 -25c-100 0 -123 44 -123 100c0 45 32 82 64 107c-8 -1 -15 -1 -23 -1zM309 497c-139 0 -178 -71 -186 -177h343c-5 98 -12 177 -157 177z" />
    <glyph glyph-name="ecaron" unicode="&#x11b;" horiz-adv-x="593" 
d="M252 610l-152 156h76l120 -107l119 107h74l-152 -156h-85zM314 -11c-222 0 -265 127 -265 288c0 160 48 288 262 288c222 0 229 -153 227 -314h-416c4 -116 38 -196 192 -196c91 0 134 24 178 56l41 -53c-55 -42 -117 -69 -219 -69zM309 497c-139 0 -178 -71 -186 -177
h343c-5 98 -12 177 -157 177z" />
    <glyph glyph-name="gbreve" unicode="&#x11f;" horiz-adv-x="597" 
d="M288 202c-37 0 -68 3 -96 9c-10 -12 -17 -27 -17 -41c0 -35 25 -42 116 -42c199 0 266 -28 266 -141s-70 -166 -272 -166c-177 0 -255 27 -255 138c0 64 23 120 109 137c-23 10 -35 35 -35 65c0 27 10 54 26 74c-46 29 -68 76 -68 145c0 124 68 185 226 185
c18 0 37 -1 54 -3l192 23v-63h-92c48 -26 74 -69 74 -142c0 -122 -71 -178 -228 -178zM288 268c110 0 153 34 153 112c0 79 -53 114 -153 114c-109 0 -152 -35 -152 -114c0 -78 43 -112 152 -112zM287 -116c157 0 193 34 193 98c0 67 -49 80 -193 80
c-159 0 -181 -42 -181 -92c0 -67 56 -86 181 -86zM297 600c-132 0 -171 68 -187 148l58 12c12 -54 38 -97 129 -97c90 0 116 43 129 97l59 -11c-18 -81 -57 -149 -188 -149z" />
    <glyph glyph-name="gcommaaccent" unicode="&#x123;" horiz-adv-x="597" 
d="M252 609v67c0 74 15 102 77 133l20 -36c-41 -22 -51 -36 -51 -75h45v-89h-91zM288 202c-37 0 -68 3 -96 9c-10 -12 -17 -27 -17 -41c0 -35 25 -42 116 -42c199 0 266 -28 266 -141s-70 -166 -272 -166c-177 0 -255 27 -255 138c0 64 23 120 109 137c-23 10 -35 35 -35 65
c0 27 10 54 26 74c-46 29 -68 76 -68 145c0 124 68 185 226 185c18 0 37 -1 54 -3l192 23v-63h-92c48 -26 74 -69 74 -142c0 -122 -71 -178 -228 -178zM288 268c110 0 153 34 153 112c0 79 -53 114 -153 114c-109 0 -152 -35 -152 -114c0 -78 43 -112 152 -112zM287 -116
c157 0 193 34 193 98c0 67 -49 80 -193 80c-159 0 -181 -42 -181 -92c0 -67 56 -86 181 -86z" />
    <glyph glyph-name="imacron" unicode="&#x12b;" horiz-adv-x="238" 
d="M81 0v552h75v-552h-75zM-60 606v65h360v-65h-360z" />
    <glyph glyph-name="iogonek" unicode="&#x12f;" horiz-adv-x="238" 
d="M109 -217c-92 0 -118 45 -118 102c0 56 42 102 90 129v538h75v-552c-65 -37 -97 -71 -97 -107c0 -26 9 -52 60 -52c29 0 54 6 72 13l23 -52c-22 -12 -60 -19 -105 -19zM81 625v108h76v-108h-76z" />
    <glyph glyph-name="kcommaaccent" unicode="&#x137;" horiz-adv-x="542" 
d="M238 -244l-20 35c41 22 51 37 51 75h-45v95h91v-73c0 -74 -15 -101 -77 -132zM76 0v776h75v-528l266 304h84l-200 -231l221 -321h-84l-187 266l-100 -113v-153h-75z" />
    <glyph glyph-name="lacute" unicode="&#x13a;" horiz-adv-x="292" 
d="M81 810l151 156h93l-172 -156h-72zM196 -1c-90 0 -115 39 -115 133v644h75v-636c0 -54 7 -73 64 -73h24v-66c-8 -1 -27 -2 -48 -2z" />
    <glyph glyph-name="lcommaaccent" unicode="&#x13c;" horiz-adv-x="292" 
d="M114 -244l-20 35c41 22 51 37 51 75h-45v95h91v-73c0 -74 -15 -101 -77 -132zM196 -1c-90 0 -115 39 -115 133v644h75v-636c0 -54 7 -73 64 -73h24v-66c-8 -1 -27 -2 -48 -2z" />
    <glyph glyph-name="lcaron" unicode="&#x13e;" horiz-adv-x="340" 
d="M260 571l-20 36c40 22 51 36 51 74h-43v95h88v-72c0 -75 -14 -102 -76 -133zM196 -1c-90 0 -115 39 -115 133v644h75v-636c0 -54 7 -73 64 -73h24v-66c-8 -1 -27 -2 -48 -2z" />
    <glyph glyph-name="nacute" unicode="&#x144;" 
d="M232 610l151 156h93l-172 -156h-72zM76 0v548l60 4l7 -58c24 38 77 71 205 71c178 0 199 -92 199 -228v-337h-76v324c0 98 -9 166 -145 166c-147 0 -174 -76 -174 -180v-310h-76z" />
    <glyph glyph-name="ncommaaccent" unicode="&#x146;" 
d="M277 -244l-20 35c41 22 51 37 51 75h-45v95h91v-73c0 -74 -15 -101 -77 -132zM76 0v548l60 4l7 -58c24 38 77 71 205 71c178 0 199 -92 199 -228v-337h-76v324c0 98 -9 166 -145 166c-147 0 -174 -76 -174 -180v-310h-76z" />
    <glyph glyph-name="ncaron" unicode="&#x148;" 
d="M266 610l-152 156h76l120 -107l119 107h74l-152 -156h-85zM76 0v548l60 4l7 -58c24 38 77 71 205 71c178 0 199 -92 199 -228v-337h-76v324c0 98 -9 166 -145 166c-147 0 -174 -76 -174 -180v-310h-76z" />
    <glyph glyph-name="omacron" unicode="&#x14d;" horiz-adv-x="631" 
d="M134 606v65h360v-65h-360zM315 -11c-191 0 -266 98 -266 288s75 288 266 288s267 -98 267 -288s-76 -288 -267 -288zM315 58c139 0 190 76 190 217c0 142 -51 218 -190 218s-190 -76 -190 -218c0 -141 51 -217 190 -217z" />
    <glyph glyph-name="ohungarumlaut" unicode="&#x151;" horiz-adv-x="631" 
d="M129 610l126 155h90l-148 -155h-68zM356 610l126 155h89l-147 -155h-68zM315 -11c-191 0 -266 98 -266 288s75 288 266 288s267 -98 267 -288s-76 -288 -267 -288zM315 58c139 0 190 76 190 217c0 142 -51 218 -190 218s-190 -76 -190 -218c0 -141 51 -217 190 -217z" />
    <glyph glyph-name="racute" unicode="&#x155;" horiz-adv-x="359" 
d="M113 610l151 156h93l-172 -156h-72zM76 0v548l60 4l8 -74c21 43 89 80 191 81v-76c-135 0 -183 -77 -183 -185v-298h-76z" />
    <glyph glyph-name="rcommaaccent" unicode="&#x157;" horiz-adv-x="359" 
d="M84 -244l-20 35c41 22 51 37 51 75h-45v95h91v-73c0 -74 -15 -101 -77 -132zM76 0v548l60 4l8 -74c21 43 89 80 191 81v-76c-135 0 -183 -77 -183 -185v-298h-76z" />
    <glyph glyph-name="rcaron" unicode="&#x159;" horiz-adv-x="351" 
d="M133 610l-152 156h76l120 -107l119 107h74l-152 -156h-85zM76 0v548l60 4l8 -74c21 43 89 80 191 81v-76c-135 0 -183 -77 -183 -185v-298h-76z" />
    <glyph glyph-name="sacute" unicode="&#x15b;" horiz-adv-x="522" 
d="M184 610l151 156h93l-172 -156h-72zM260 -10c-73 0 -155 13 -230 62l40 59c65 -42 136 -55 194 -55c100 0 146 19 146 97c0 62 -40 74 -146 95c-128 25 -208 47 -208 166c0 95 56 151 208 151c83 0 151 -18 202 -48l-36 -62c-42 23 -98 40 -165 40
c-104 0 -134 -31 -134 -81c0 -61 40 -76 137 -95c134 -27 215 -45 215 -163c0 -126 -70 -166 -223 -166z" />
    <glyph glyph-name="scedilla" unicode="&#x15f;" horiz-adv-x="522" 
d="M269 -225c-50 0 -86 12 -116 29l23 42c26 -14 57 -23 90 -23c67 0 79 25 79 53c0 36 -21 49 -94 45l-22 16l10 53c-67 3 -141 17 -209 62l40 59c65 -42 136 -55 194 -55c100 0 146 19 146 97c0 62 -40 74 -146 95c-128 25 -208 47 -208 166c0 95 56 151 208 151
c83 0 151 -18 202 -48l-36 -62c-42 23 -98 40 -165 40c-104 0 -134 -31 -134 -81c0 -61 40 -76 137 -95c134 -27 215 -45 215 -163s-61 -160 -194 -165l-6 -36c60 4 117 -5 117 -84c0 -56 -32 -96 -131 -96z" />
    <glyph glyph-name="scommaaccent" unicode="&#x219;" horiz-adv-x="522" 
d="M228 -244l-20 35c41 22 51 37 51 75h-45v95h91v-73c0 -74 -15 -101 -77 -132zM260 -10c-73 0 -155 13 -230 62l40 59c65 -42 136 -55 194 -55c100 0 146 19 146 97c0 62 -40 74 -146 95c-128 25 -208 47 -208 166c0 95 56 151 208 151c83 0 151 -18 202 -48l-36 -62
c-42 23 -98 40 -165 40c-104 0 -134 -31 -134 -81c0 -61 40 -76 137 -95c134 -27 215 -45 215 -163c0 -126 -70 -166 -223 -166z" />
    <glyph glyph-name="tcommaaccent" unicode="&#x163;" horiz-adv-x="406" 
d="M142 -244l-20 35c41 22 51 37 51 75h-45v95h91v-73c0 -74 -15 -101 -77 -132zM31 483v69h101l13 166l60 11v-177h152v-69h-152v-332c0 -51 7 -84 84 -84h68v-67c-8 -1 -69 -1 -80 -1c-124 0 -147 50 -147 143v341h-99z" />
    <glyph glyph-name="tcommaaccent" unicode="&#x21b;" horiz-adv-x="406" 
d="M142 -244l-20 35c41 22 51 37 51 75h-45v95h91v-73c0 -74 -15 -101 -77 -132zM31 483v69h101l13 166l60 11v-177h152v-69h-152v-332c0 -51 7 -84 84 -84h68v-67c-8 -1 -69 -1 -80 -1c-124 0 -147 50 -147 143v341h-99z" />
    <glyph glyph-name="tcaron" unicode="&#x165;" horiz-adv-x="406" 
d="M308 652l-19 35c39 22 50 36 50 74h-41v92h85v-71c0 -73 -14 -99 -75 -130zM31 483v69h101l13 166l60 11v-177h152v-69h-152v-332c0 -51 7 -84 84 -84h68v-67c-8 -1 -69 -1 -80 -1c-124 0 -147 50 -147 143v341h-99z" />
    <glyph glyph-name="umacron" unicode="&#x16b;" horiz-adv-x="614" 
d="M309 -10c-214 0 -236 90 -236 237v325h75v-327c0 -91 0 -166 161 -166c160 0 158 75 158 170v323h74v-322c0 -150 -19 -240 -232 -240zM126 606v65h360v-65h-360z" />
    <glyph glyph-name="uring" unicode="&#x16f;" horiz-adv-x="614" 
d="M306 599c-84 0 -120 53 -120 123s36 124 120 124c80 0 119 -54 119 -124s-39 -123 -119 -123zM306 644c52 0 74 34 74 78s-22 78 -74 78c-54 0 -75 -34 -75 -78s21 -78 75 -78zM309 -10c-214 0 -236 90 -236 237v325h75v-327c0 -91 0 -166 161 -166c160 0 158 75 158 170
v323h74v-322c0 -150 -19 -240 -232 -240z" />
    <glyph glyph-name="uhungarumlaut" unicode="&#x171;" horiz-adv-x="614" 
d="M309 -10c-214 0 -236 90 -236 237v325h75v-327c0 -91 0 -166 161 -166c160 0 158 75 158 170v323h74v-322c0 -150 -19 -240 -232 -240zM121 610l126 155h90l-148 -155h-68zM348 610l126 155h89l-147 -155h-68z" />
    <glyph glyph-name="uogonek" unicode="&#x173;" horiz-adv-x="614" 
d="M397 -214c-99 0 -117 39 -117 89c0 49 39 91 75 117c-14 -3 -31 -3 -48 -3c-213 0 -234 91 -234 236v326h75v-327c0 -93 -1 -168 160 -168s159 75 159 171v324h74v-322c0 -110 -11 -182 -98 -223c-63 -30 -106 -82 -106 -124c0 -27 11 -49 70 -49c35 0 67 11 88 22
l19 -40c-32 -16 -72 -29 -117 -29z" />
    <glyph glyph-name="zacute" unicode="&#x17a;" horiz-adv-x="502" 
d="M175 610l151 156h93l-172 -156h-72zM33 0v57l330 426h-313v69h410v-58l-330 -429h341v-65h-438z" />
    <glyph glyph-name="zdotaccent" unicode="&#x17c;" horiz-adv-x="502" 
d="M33 0v57l330 426h-313v69h410v-58l-330 -429h341v-65h-438zM214 609v107h76v-107h-76z" />
    <glyph glyph-name="space.lftab" horiz-adv-x="375" 
 />
    <glyph glyph-name="comma.lftab" horiz-adv-x="375" 
d="M153 -118l-22 40c45 23 56 38 56 78h-50v108h100v-82c0 -81 -15 -110 -84 -144z" />
    <glyph glyph-name="period.lftab" horiz-adv-x="375" 
d="M137 0v108h100v-108h-100z" />
    <glyph glyph-name="minus.lftab" horiz-adv-x="750" 
d="M133 317v72h483v-72h-483z" />
    <glyph glyph-name="multiply.lftab" horiz-adv-x="750" 
d="M215 146l-46 48l159 158l-159 159l47 49l159 -159l158 159l47 -49l-158 -159l158 -158l-47 -48l-158 159z" />
    <glyph glyph-name="quotedbl.lftab" horiz-adv-x="750" 
d="M240 455l-7 286h78l-6 -286h-65zM444 455l-6 286h78l-6 -286h-66z" />
    <glyph glyph-name="numbersign.lftab" horiz-adv-x="750" 
d="M150 0l43 222h-120v69h133l30 157h-163v70h177l43 223h73l-44 -223h161l44 223h72l-42 -223h121v-70h-135l-30 -157h165v-69h-178l-43 -222h-73l43 222h-160l-43 -222h-74zM274 288h170l32 164h-170z" />
    <glyph glyph-name="dollar.lftab" horiz-adv-x="750" 
d="M344 -94v94c-81 3 -160 20 -236 72l37 57c71 -47 133 -61 202 -64v294c-111 23 -207 54 -207 190c0 124 64 184 204 192v65h70v-65c72 -5 136 -24 181 -54l-37 -59c-37 25 -91 40 -147 44v-257c120 -26 223 -59 223 -203c0 -128 -69 -201 -220 -211v-95h-70zM561 208
c0 88 -54 114 -150 137v-279c106 9 150 56 150 142zM214 552c0 -76 49 -102 133 -123v244c-100 -7 -133 -48 -133 -121z" />
    <glyph glyph-name="percent.lftab" horiz-adv-x="1160" 
d="M273 284c-138 0 -188 90 -188 233s50 234 188 234c139 0 191 -91 191 -234s-52 -233 -191 -233zM273 341c96 0 124 70 124 174c0 105 -28 176 -124 176c-93 0 -121 -71 -121 -176c0 -104 28 -174 121 -174zM886 -10c-139 0 -190 91 -190 234s51 234 190 234
c138 0 189 -91 189 -234s-51 -234 -189 -234zM886 48c94 0 123 70 123 174s-29 176 -123 176c-95 0 -122 -72 -122 -176s27 -174 122 -174zM347 0l395 741h70l-394 -741h-71z" />
    <glyph glyph-name="quotesingle.lftab" horiz-adv-x="750" 
d="M342 455l-7 287h78l-6 -287h-65z" />
    <glyph glyph-name="plus.lftab" horiz-adv-x="750" 
d="M337 113v204h-204v72h204v203h75v-203h204v-72h-204v-204h-75z" />
    <glyph glyph-name="zero.lftab" horiz-adv-x="750" 
d="M375 -11c-233 0 -285 159 -285 382c0 225 52 382 285 382c230 0 284 -157 284 -382c0 -223 -54 -382 -284 -382zM375 59c177 0 207 135 207 312c0 179 -30 310 -207 310c-178 0 -207 -131 -207 -310c0 -177 29 -312 207 -312z" />
    <glyph glyph-name="one.lftab" horiz-adv-x="750" 
d="M178 0v64h190v608h-189v69h264v-677h175v-64h-440z" />
    <glyph glyph-name="two.lftab" horiz-adv-x="750" 
d="M118 0v64l249 250c109 110 156 159 156 252c0 81 -44 117 -158 117c-83 0 -154 -19 -200 -44l-34 62c61 32 132 52 240 52c151 0 227 -53 227 -181c0 -112 -52 -179 -169 -296l-208 -209h389v-67h-492z" />
    <glyph glyph-name="three.lftab" horiz-adv-x="750" 
d="M360 -12c-103 0 -181 19 -269 69l38 60c80 -43 147 -61 228 -61c127 0 182 38 182 160c0 102 -35 154 -200 154h-102v68h100c137 0 181 36 181 130c0 87 -46 116 -162 116c-68 0 -147 -17 -205 -52l-41 58c72 44 164 63 251 63c155 0 231 -45 231 -173
c0 -99 -39 -155 -95 -171c83 -18 116 -83 116 -198c0 -171 -90 -223 -253 -223z" />
    <glyph glyph-name="four.lftab" horiz-adv-x="750" 
d="M94 187v62l332 492h83l-331 -488h286l15 245h56v-245h138v-66h-138v-187h-72v187h-369z" />
    <glyph glyph-name="five.lftab" horiz-adv-x="750" 
d="M370 -11c-113 0 -191 31 -256 68l39 61c60 -32 124 -62 215 -62c112 0 201 33 201 180c0 144 -79 182 -190 182c-77 0 -124 -12 -175 -37l-64 19l19 341h433v-69h-365l-12 -220c34 18 97 35 180 35c142 0 250 -50 250 -249c0 -204 -117 -249 -275 -249z" />
    <glyph glyph-name="six.lftab" horiz-adv-x="750" 
d="M393 -11c-192 0 -287 85 -287 311c0 312 88 441 420 441h31v-69h-33c-270 0 -324 -104 -340 -247c40 51 119 73 229 73c189 0 245 -96 245 -252c0 -159 -64 -257 -265 -257zM394 55c149 0 189 74 189 189s-43 189 -189 189c-123 0 -211 -54 -211 -166
c0 -160 80 -212 211 -212z" />
    <glyph glyph-name="seven.lftab" horiz-adv-x="750" 
d="M248 0l296 672h-414v69h496v-61l-299 -680h-79z" />
    <glyph glyph-name="eight.lftab" horiz-adv-x="750" 
d="M375 -13c-200 0 -280 83 -280 220c0 104 42 178 124 200c-68 21 -99 83 -99 163c0 110 60 183 255 183s254 -73 254 -183c0 -80 -31 -144 -99 -163c88 -24 125 -97 125 -200c0 -137 -83 -220 -280 -220zM375 53c140 0 203 53 203 159s-63 160 -203 160
c-142 0 -204 -54 -204 -160s62 -159 204 -159zM375 436c133 0 181 44 181 126s-48 126 -181 126c-134 0 -182 -44 -182 -126s48 -126 182 -126z" />
    <glyph glyph-name="nine.lftab" horiz-adv-x="750" 
d="M194 0v67h33c272 0 325 108 340 249c-40 -51 -118 -73 -228 -73c-189 0 -245 99 -245 252c0 158 64 258 265 258c191 0 287 -85 287 -311c0 -312 -88 -442 -420 -442h-32zM357 306c124 0 211 55 211 166c0 160 -79 212 -209 212c-150 0 -191 -74 -191 -189
s44 -189 189 -189z" />
    <glyph glyph-name="less.lftab" horiz-adv-x="750" 
d="M579 91l-448 226v58l448 224v-71l-371 -182l371 -182v-73z" />
    <glyph glyph-name="equal.lftab" horiz-adv-x="750" 
d="M139 209v71h472v-71h-472zM139 425v70h472v-70h-472z" />
    <glyph glyph-name="greater.lftab" horiz-adv-x="750" 
d="M171 91v73l371 181l-371 182v72l448 -225v-58z" />
    <glyph glyph-name="degree.lftab" horiz-adv-x="750" 
d="M374 279c-154 0 -217 98 -217 237c0 138 63 237 217 237s218 -99 218 -237c0 -139 -64 -237 -218 -237zM374 340c112 0 154 71 154 175c0 103 -42 174 -154 174s-153 -71 -153 -174c0 -104 41 -175 153 -175z" />
    <glyph glyph-name="cent.lftab" horiz-adv-x="750" 
d="M372 -94v88c-175 12 -226 120 -226 283c0 162 50 271 226 284v63h72v-63c80 -7 128 -38 164 -75l-54 -51c-23 23 -57 50 -115 56v-434c49 6 83 26 120 58l49 -47c-47 -43 -93 -68 -164 -74v-88h-72zM220 275c0 -125 37 -205 156 -217v433c-118 -13 -156 -90 -156 -216z
" />
    <glyph glyph-name="sterling.lftab" horiz-adv-x="750" 
d="M482 -8c-77 0 -152 23 -205 51c-31 -28 -82 -43 -165 -43v66c127 0 137 34 137 116c0 46 -15 107 -31 170h-114v64h97c-13 52 -23 104 -23 146c0 115 55 192 216 192c77 0 136 -13 195 -38l-30 -66c-49 23 -106 32 -166 32c-108 0 -140 -51 -140 -129
c0 -38 10 -86 22 -137h230v-64h-214c14 -61 28 -121 28 -169c0 -32 -2 -59 -9 -83c46 -22 108 -40 171 -40c77 0 89 30 89 101v24h68v-26c0 -119 -35 -167 -156 -167z" />
    <glyph glyph-name="section.lftab" horiz-adv-x="750" 
d="M253 -9c-15 0 -53 1 -60 1v64h53c88 0 96 46 96 106v66c-122 6 -185 50 -185 144c0 90 58 134 170 144v60c0 96 17 173 164 173c15 0 54 0 61 -1v-66h-53c-89 0 -97 -46 -97 -105v-60c125 -5 191 -50 191 -145c0 -91 -61 -134 -175 -143v-65c0 -95 -17 -173 -165 -173z
M374 282c103 0 155 25 155 89c0 63 -52 87 -155 87c-102 0 -153 -24 -153 -87c0 -64 51 -89 153 -89z" />
    <glyph glyph-name="yen.lftab" horiz-adv-x="750" 
d="M128 235v67h209v17l-259 422h80l217 -356l216 356h80l-259 -421v-18h210v-67h-210v-84h210v-67h-210v-84h-75v84h-209v67h209v84h-209z" />
    <glyph glyph-name="ordfeminine.lftab" horiz-adv-x="750" 
d="M301 285c-114 0 -156 55 -156 136c0 127 93 163 300 163h23c-2 79 -19 109 -116 109c-54 0 -105 -21 -131 -38l-35 50c30 20 97 47 171 47c150 0 174 -52 174 -180v-166c0 -49 4 -55 47 -55v-58c-5 0 -11 -1 -23 -1c-58 0 -77 11 -81 75c-27 -56 -75 -82 -173 -82z
M314 341c103 0 154 48 154 157v34h-19c-181 0 -242 -23 -242 -107c0 -53 31 -84 107 -84zM187 150v59h346v-59h-346z" />
    <glyph glyph-name="ordmasculine.lftab" horiz-adv-x="750" 
d="M375 288c-146 0 -215 80 -215 233s69 232 215 232c144 0 215 -79 215 -232s-71 -233 -215 -233zM375 347c101 0 150 60 150 173c0 112 -49 171 -150 171c-102 0 -150 -59 -150 -171c0 -113 48 -173 150 -173zM187 149v60h376v-60h-376z" />
    <glyph glyph-name="florin.lftab" horiz-adv-x="750" 
d="M198 382v69h120l28 131c18 89 40 159 181 159h32v-71h-28c-89 0 -102 -50 -114 -109l-24 -110h166v-69h-180l-116 -548h-76l116 548h-105z" />
    <glyph glyph-name="divide.lftab" horiz-adv-x="750" 
d="M329 108v93h92v-93h-92zM133 317v72h483v-72h-483zM329 505v93h92v-93h-92z" />
    <glyph glyph-name="fraction.lftab" horiz-adv-x="750" 
d="M132 0l415 741h71l-416 -741h-70z" />
    <glyph glyph-name="Euro.lftab" horiz-adv-x="750" 
d="M82 417v67h116c20 172 94 269 264 269c84 0 130 -13 178 -38l-35 -65c-39 21 -81 32 -142 32c-127 0 -177 -75 -193 -198h264v-67h-269v-42v-42h269v-67h-264c14 -133 64 -208 192 -208c54 0 98 7 144 35l38 -60c-53 -33 -106 -45 -185 -45c-175 0 -244 101 -262 278
h-115v67h110v40v44h-110z" />
    <glyph glyph-name="perthousand.lftab" horiz-adv-x="1640" 
d="M301 284c-138 0 -188 90 -188 233s50 234 188 234c139 0 191 -91 191 -234s-52 -233 -191 -233zM302 341c95 0 123 70 123 174c0 105 -28 176 -123 176c-94 0 -121 -71 -121 -176c0 -104 27 -174 121 -174zM914 -10c-139 0 -189 91 -189 234s50 234 189 234
c138 0 190 -91 190 -234s-52 -234 -190 -234zM914 48c95 0 123 70 123 174s-28 176 -123 176c-94 0 -122 -72 -122 -176s28 -174 122 -174zM1344 -10c-138 0 -188 91 -188 234s50 234 188 234s190 -91 190 -234s-52 -234 -190 -234zM1344 48c95 0 123 70 123 174
s-28 176 -123 176c-94 0 -122 -72 -122 -176s28 -174 122 -174zM376 0l395 741h70l-395 -741h-70z" />
    <glyph glyph-name="zero.superior" unicode="&#x2070;" horiz-adv-x="533" 
d="M266 283c-141 0 -176 97 -176 234c0 136 35 232 176 232s177 -96 177 -232c0 -137 -36 -234 -177 -234zM266 336c102 0 116 73 116 181c0 106 -14 177 -116 177s-115 -71 -115 -177c0 -108 13 -181 115 -181z" />
    <glyph glyph-name="one.superior" unicode="&#xb9;" horiz-adv-x="328" 
d="M152 289v397h-90v55h151v-452h-61z" />
    <glyph glyph-name="two.superior" unicode="&#xb2;" horiz-adv-x="441" 
d="M64 289v46l143 142c74 73 92 94 92 149c0 46 -26 68 -93 68c-49 0 -90 -11 -118 -25l-27 47c37 19 81 31 151 31c99 0 148 -33 148 -116c0 -72 -32 -108 -108 -183l-107 -108h220v-51h-301z" />
    <glyph glyph-name="three.superior" horiz-adv-x="461" 
d="M223 283c-67 0 -115 11 -170 42l31 46c45 -26 86 -36 134 -36c75 0 108 19 108 90c0 58 -21 86 -118 86h-64v49h62c80 0 106 16 106 70c0 48 -28 64 -95 64c-44 0 -90 -11 -124 -31l-30 46c43 26 104 39 161 39c106 0 150 -32 150 -107c0 -56 -19 -87 -64 -102
c55 -13 77 -54 77 -120c0 -102 -52 -136 -164 -136z" />
    <glyph glyph-name="four.superior" unicode="&#x2074;" horiz-adv-x="494" 
d="M72 392v50l202 299h67l-202 -298h158l11 144h48v-144h77v-51h-77v-103h-59v103h-225z" />
    <glyph glyph-name="five.superior" unicode="&#x2075;" horiz-adv-x="487" 
d="M240 284c-73 0 -124 19 -165 42l32 48c36 -20 75 -37 129 -37c74 0 121 16 121 102c0 84 -44 102 -114 102c-42 0 -69 -5 -96 -18l-49 13l12 205h274v-53h-222l-7 -112c27 10 59 16 100 16c91 0 163 -25 163 -153c0 -131 -74 -155 -178 -155z" />
    <glyph glyph-name="six.superior" unicode="&#x2076;" horiz-adv-x="510" 
d="M267 283c-119 0 -180 50 -180 193c0 185 59 265 253 265h21v-53h-23c-139 0 -177 -45 -190 -139c25 36 71 50 132 50c119 0 152 -59 152 -156c0 -99 -39 -160 -165 -160zM267 332c86 0 105 43 105 110c0 66 -20 109 -105 109c-71 0 -118 -30 -118 -96
c0 -92 42 -123 118 -123z" />
    <glyph glyph-name="seven.superior" unicode="&#x2077;" horiz-adv-x="412" 
d="M119 289l174 397h-240v55h308v-48l-177 -404h-65z" />
    <glyph glyph-name="eight.superior" unicode="&#x2078;" horiz-adv-x="519" 
d="M259 283c-126 0 -177 50 -177 136c0 61 21 101 77 120c-48 17 -62 49 -62 98c0 69 38 113 162 113s163 -44 163 -113c0 -49 -15 -82 -64 -99c57 -18 79 -59 79 -119c0 -86 -52 -136 -178 -136zM259 331c80 0 117 30 117 92c0 61 -37 90 -117 90c-81 0 -116 -29 -116 -90
c0 -62 35 -92 116 -92zM259 557c77 0 103 25 103 73c0 47 -26 71 -103 71s-102 -24 -102 -71c0 -48 25 -73 102 -73z" />
    <glyph glyph-name="nine.superior" unicode="&#x2079;" horiz-adv-x="510" 
d="M151 289v52h23c138 0 178 48 191 142c-26 -37 -71 -52 -133 -52c-119 0 -153 59 -153 157c0 99 39 160 166 160c119 0 180 -51 180 -193c0 -186 -59 -266 -252 -266h-22zM245 478c71 0 117 30 117 95c0 93 -41 124 -117 124c-86 0 -106 -43 -106 -110s21 -109 106 -109z
" />
    <glyph glyph-name="zero.inferior" unicode="&#x2080;" horiz-adv-x="533" 
d="M266 -6c-141 0 -176 97 -176 234c0 136 35 232 176 232s177 -96 177 -232c0 -137 -36 -234 -177 -234zM266 47c102 0 116 73 116 181c0 106 -14 177 -116 177s-115 -71 -115 -177c0 -108 13 -181 115 -181z" />
    <glyph glyph-name="one.inferior" unicode="&#x2081;" horiz-adv-x="328" 
d="M152 0v397h-90v55h151v-452h-61z" />
    <glyph glyph-name="two.inferior" unicode="&#x2082;" horiz-adv-x="441" 
d="M64 0v46l143 142c74 73 92 94 92 149c0 46 -26 68 -93 68c-49 0 -90 -11 -118 -25l-27 47c37 19 81 31 151 31c99 0 148 -33 148 -116c0 -72 -32 -108 -108 -183l-107 -108h220v-51h-301z" />
    <glyph glyph-name="three.inferior" unicode="&#x2083;" horiz-adv-x="461" 
d="M223 -6c-67 0 -115 11 -170 42l31 46c45 -26 86 -36 134 -36c75 0 108 19 108 90c0 58 -21 86 -118 86h-64v49h62c80 0 106 16 106 70c0 48 -28 64 -95 64c-44 0 -90 -11 -124 -31l-30 46c43 26 104 39 161 39c106 0 150 -32 150 -107c0 -56 -19 -87 -64 -102
c55 -13 77 -54 77 -120c0 -102 -52 -136 -164 -136z" />
    <glyph glyph-name="four.inferior" unicode="&#x2084;" horiz-adv-x="494" 
d="M72 103v50l202 299h67l-202 -298h158l11 144h48v-144h77v-51h-77v-103h-59v103h-225z" />
    <glyph glyph-name="five.inferior" unicode="&#x2085;" horiz-adv-x="487" 
d="M240 -5c-73 0 -124 19 -165 42l32 48c36 -20 75 -37 129 -37c74 0 121 16 121 102c0 84 -44 102 -114 102c-42 0 -69 -5 -96 -18l-49 13l12 205h274v-53h-222l-7 -112c27 10 59 16 100 16c91 0 163 -25 163 -153c0 -131 -74 -155 -178 -155z" />
    <glyph glyph-name="six.inferior" unicode="&#x2086;" horiz-adv-x="510" 
d="M267 -6c-119 0 -180 50 -180 193c0 185 59 265 253 265h21v-53h-23c-139 0 -177 -45 -190 -139c25 36 71 50 132 50c119 0 152 -59 152 -156c0 -99 -39 -160 -165 -160zM267 43c86 0 105 43 105 110c0 66 -20 109 -105 109c-71 0 -118 -30 -118 -96
c0 -92 42 -123 118 -123z" />
    <glyph glyph-name="seven.inferior" unicode="&#x2087;" horiz-adv-x="412" 
d="M119 0l174 397h-240v55h308v-48l-177 -404h-65z" />
    <glyph glyph-name="eight.inferior" unicode="&#x2088;" horiz-adv-x="519" 
d="M259 -6c-126 0 -177 50 -177 136c0 61 21 101 77 120c-48 17 -62 49 -62 98c0 69 38 113 162 113s163 -44 163 -113c0 -49 -15 -82 -64 -99c57 -18 79 -59 79 -119c0 -86 -52 -136 -178 -136zM259 42c80 0 117 30 117 92c0 61 -37 90 -117 90c-81 0 -116 -29 -116 -90
c0 -62 35 -92 116 -92zM259 268c77 0 103 25 103 73c0 47 -26 71 -103 71s-102 -24 -102 -71c0 -48 25 -73 102 -73z" />
    <glyph glyph-name="nine.inferior" unicode="&#x2089;" horiz-adv-x="510" 
d="M151 0v52h23c138 0 178 48 191 142c-26 -37 -71 -52 -133 -52c-119 0 -153 59 -153 157c0 99 39 160 166 160c119 0 180 -51 180 -193c0 -186 -59 -266 -252 -266h-22zM245 189c71 0 117 30 117 95c0 93 -41 124 -117 124c-86 0 -106 -43 -106 -110s21 -109 106 -109z
" />
    <glyph glyph-name="zero.numerator" horiz-adv-x="473" 
d="M236 283c-141 0 -176 97 -176 234c0 136 35 232 176 232s177 -96 177 -232c0 -137 -36 -234 -177 -234zM236 336c102 0 116 73 116 181c0 106 -14 177 -116 177s-115 -71 -115 -177c0 -108 13 -181 115 -181z" />
    <glyph glyph-name="one.numerator" horiz-adv-x="268" 
d="M122 289v397h-90v55h151v-452h-61z" />
    <glyph glyph-name="two.numerator" horiz-adv-x="381" 
d="M34 289v46l143 142c74 73 92 94 92 149c0 46 -26 68 -93 68c-49 0 -90 -11 -118 -25l-27 47c37 19 81 31 151 31c99 0 148 -33 148 -116c0 -72 -32 -108 -108 -183l-107 -108h220v-51h-301z" />
    <glyph glyph-name="three.numerator" horiz-adv-x="401" 
d="M193 283c-67 0 -115 11 -170 42l31 46c45 -26 86 -36 134 -36c75 0 108 19 108 90c0 58 -21 86 -118 86h-64v49h62c80 0 106 16 106 70c0 48 -28 64 -95 64c-44 0 -90 -11 -124 -31l-30 46c43 26 104 39 161 39c106 0 150 -32 150 -107c0 -56 -19 -87 -64 -102
c55 -13 77 -54 77 -120c0 -102 -52 -136 -164 -136z" />
    <glyph glyph-name="four.numerator" horiz-adv-x="434" 
d="M42 392v50l202 299h67l-202 -298h158l11 144h48v-144h77v-51h-77v-103h-59v103h-225z" />
    <glyph glyph-name="five.numerator" horiz-adv-x="427" 
d="M210 284c-73 0 -124 19 -165 42l32 48c36 -20 75 -37 129 -37c74 0 121 16 121 102c0 84 -44 102 -114 102c-42 0 -69 -5 -96 -18l-49 13l12 205h274v-53h-222l-7 -112c27 10 59 16 100 16c91 0 163 -25 163 -153c0 -131 -74 -155 -178 -155z" />
    <glyph glyph-name="six.numerator" horiz-adv-x="450" 
d="M237 283c-119 0 -180 50 -180 193c0 185 59 265 253 265h21v-53h-23c-139 0 -177 -45 -190 -139c25 36 71 50 132 50c119 0 152 -59 152 -156c0 -99 -39 -160 -165 -160zM237 332c86 0 105 43 105 110c0 66 -20 109 -105 109c-71 0 -118 -30 -118 -96
c0 -92 42 -123 118 -123z" />
    <glyph glyph-name="seven.numerator" horiz-adv-x="352" 
d="M89 289l174 397h-240v55h308v-48l-177 -404h-65z" />
    <glyph glyph-name="eight.numerator" horiz-adv-x="459" 
d="M229 283c-126 0 -177 50 -177 136c0 61 21 101 77 120c-48 17 -62 49 -62 98c0 69 38 113 162 113s163 -44 163 -113c0 -49 -15 -82 -64 -99c57 -18 79 -59 79 -119c0 -86 -52 -136 -178 -136zM229 331c80 0 117 30 117 92c0 61 -37 90 -117 90c-81 0 -116 -29 -116 -90
c0 -62 35 -92 116 -92zM229 557c77 0 103 25 103 73c0 47 -26 71 -103 71s-102 -24 -102 -71c0 -48 25 -73 102 -73z" />
    <glyph glyph-name="nine.numerator" horiz-adv-x="450" 
d="M121 289v52h23c138 0 178 48 191 142c-26 -37 -71 -52 -133 -52c-119 0 -153 59 -153 157c0 99 39 160 166 160c119 0 180 -51 180 -193c0 -186 -59 -266 -252 -266h-22zM215 478c71 0 117 30 117 95c0 93 -41 124 -117 124c-86 0 -106 -43 -106 -110s21 -109 106 -109z
" />
    <glyph glyph-name="zero.denominator" horiz-adv-x="473" 
d="M236 -6c-141 0 -176 97 -176 234c0 136 35 232 176 232s177 -96 177 -232c0 -137 -36 -234 -177 -234zM236 47c102 0 116 73 116 181c0 106 -14 177 -116 177s-115 -71 -115 -177c0 -108 13 -181 115 -181z" />
    <glyph glyph-name="one.denominator" horiz-adv-x="268" 
d="M122 0v397h-90v55h151v-452h-61z" />
    <glyph glyph-name="two.denominator" horiz-adv-x="381" 
d="M34 0v46l143 142c74 73 92 94 92 149c0 46 -26 68 -93 68c-49 0 -90 -11 -118 -25l-27 47c37 19 81 31 151 31c99 0 148 -33 148 -116c0 -72 -32 -108 -108 -183l-107 -108h220v-51h-301z" />
    <glyph glyph-name="three.denominator" horiz-adv-x="401" 
d="M193 -6c-67 0 -115 11 -170 42l31 46c45 -26 86 -36 134 -36c75 0 108 19 108 90c0 58 -21 86 -118 86h-64v49h62c80 0 106 16 106 70c0 48 -28 64 -95 64c-44 0 -90 -11 -124 -31l-30 46c43 26 104 39 161 39c106 0 150 -32 150 -107c0 -56 -19 -87 -64 -102
c55 -13 77 -54 77 -120c0 -102 -52 -136 -164 -136z" />
    <glyph glyph-name="four.denominator" horiz-adv-x="434" 
d="M42 103v50l202 299h67l-202 -298h158l11 144h48v-144h77v-51h-77v-103h-59v103h-225z" />
    <glyph glyph-name="five.denominator" horiz-adv-x="427" 
d="M210 -5c-73 0 -124 19 -165 42l32 48c36 -20 75 -37 129 -37c74 0 121 16 121 102c0 84 -44 102 -114 102c-42 0 -69 -5 -96 -18l-49 13l12 205h274v-53h-222l-7 -112c27 10 59 16 100 16c91 0 163 -25 163 -153c0 -131 -74 -155 -178 -155z" />
    <glyph glyph-name="six.denominator" horiz-adv-x="450" 
d="M237 -6c-119 0 -180 50 -180 193c0 185 59 265 253 265h21v-53h-23c-139 0 -177 -45 -190 -139c25 36 71 50 132 50c119 0 152 -59 152 -156c0 -99 -39 -160 -165 -160zM237 43c86 0 105 43 105 110c0 66 -20 109 -105 109c-71 0 -118 -30 -118 -96
c0 -92 42 -123 118 -123z" />
    <glyph glyph-name="seven.denominator" horiz-adv-x="352" 
d="M89 0l174 397h-240v55h308v-48l-177 -404h-65z" />
    <glyph glyph-name="eight.denominator" horiz-adv-x="459" 
d="M229 -6c-126 0 -177 50 -177 136c0 61 21 101 77 120c-48 17 -62 49 -62 98c0 69 38 113 162 113s163 -44 163 -113c0 -49 -15 -82 -64 -99c57 -18 79 -59 79 -119c0 -86 -52 -136 -178 -136zM229 42c80 0 117 30 117 92c0 61 -37 90 -117 90c-81 0 -116 -29 -116 -90
c0 -62 35 -92 116 -92zM229 268c77 0 103 25 103 73c0 47 -26 71 -103 71s-102 -24 -102 -71c0 -48 25 -73 102 -73z" />
    <glyph glyph-name="nine.denominator" horiz-adv-x="450" 
d="M121 0v52h23c138 0 178 48 191 142c-26 -37 -71 -52 -133 -52c-119 0 -153 59 -153 157c0 99 39 160 166 160c119 0 180 -51 180 -193c0 -186 -59 -266 -252 -266h-22zM215 189c71 0 117 30 117 95c0 93 -41 124 -117 124c-86 0 -106 -43 -106 -110s21 -109 106 -109z
" />
    <glyph glyph-name="uni00A0" unicode="&#xa0;" horiz-adv-x="235" 
 />
    <glyph glyph-name="afii10017" unicode="&#x410;" horiz-adv-x="726" 
d="M25 0l297 746h79l297 -746h-80l-68 171h-380l-67 -171h-78zM197 243h325l-162 408z" />
    <glyph glyph-name="afii10018" unicode="&#x411;" horiz-adv-x="710" 
d="M87 0v741h485v-75h-410v-232h250c172 0 250 -58 250 -210c0 -154 -77 -224 -251 -224h-324zM162 69h251c110 0 171 35 171 151c0 117 -59 144 -174 144h-248v-295z" />
    <glyph glyph-name="afii10019" unicode="&#x412;" horiz-adv-x="703" 
d="M87 0v741h322c163 0 236 -60 236 -180c0 -85 -36 -151 -102 -171c81 -20 120 -81 120 -185c0 -150 -89 -205 -262 -205h-314zM164 71h245c120 0 175 41 175 141c0 94 -54 136 -177 136h-243v-277zM164 420h247c122 0 154 56 154 131c0 77 -44 118 -154 118h-247v-249z
" />
    <glyph glyph-name="afii10020" unicode="&#x413;" horiz-adv-x="588" 
d="M87 0v741h473v-75h-394v-666h-79z" />
    <glyph glyph-name="afii10021" unicode="&#x414;" horiz-adv-x="869" 
d="M48 -166v238h26c55 0 63 19 63 73v596h597v-669h87v-238h-79v166h-616v-166h-78zM194 70h461v598h-441v-526c0 -31 0 -56 -20 -72z" />
    <glyph glyph-name="afii10022" unicode="&#x415;" horiz-adv-x="639" 
d="M87 0v741h490v-75h-411v-245h401v-74h-401v-275h415v-72h-494z" />
    <glyph glyph-name="afii10024" unicode="&#x416;" horiz-adv-x="1160" 
d="M1031 0l-281 365h-131v-365h-78v365h-132l-280 -365h-91l312 407l-276 334h90l249 -300h128v300h78v-300h128l249 300h90l-276 -334l312 -407h-91z" />
    <glyph glyph-name="afii10025" unicode="&#x417;" horiz-adv-x="663" 
d="M330 -12c-117 0 -218 19 -304 69l38 65c80 -43 170 -61 263 -61c153 0 216 31 216 154c0 98 -35 149 -234 149h-158v72h156c161 0 215 34 215 129c0 89 -59 115 -196 115c-77 0 -179 -19 -240 -53l-40 63c70 42 190 63 285 63c174 0 270 -43 270 -173
c0 -101 -28 -146 -107 -171c100 -26 128 -83 128 -198c0 -172 -108 -223 -292 -223z" />
    <glyph glyph-name="afii10026" unicode="&#x418;" horiz-adv-x="779" 
d="M87 0v741h74v-607l445 607h86v-741h-74v626l-459 -626h-72z" />
    <glyph glyph-name="afii10027" unicode="&#x419;" horiz-adv-x="779" 
d="M87 0v741h74v-607l445 607h86v-741h-74v626l-459 -626h-72zM388 775c-132 0 -171 68 -187 148l58 12c12 -54 38 -97 129 -97c90 0 116 43 129 97l59 -11c-18 -81 -57 -149 -188 -149z" />
    <glyph glyph-name="afii10028" unicode="&#x41a;" horiz-adv-x="707" 
d="M577 0l-280 365h-132v-365h-77v741h77v-300h129l249 300h90l-276 -334l312 -407h-92z" />
    <glyph glyph-name="afii10029" unicode="&#x41b;" horiz-adv-x="821" 
d="M48 1v71h24c56 0 63 19 63 73v596h599v-741h-79v668h-441v-536c0 -94 -28 -133 -118 -133c-10 0 -43 1 -48 2z" />
    <glyph glyph-name="afii10030" unicode="&#x41c;" horiz-adv-x="914" 
d="M87 0v741h102l268 -632l270 632h100v-741h-77v610l-261 -610h-66l-261 610v-610h-75z" />
    <glyph glyph-name="afii10031" unicode="&#x41d;" horiz-adv-x="777" 
d="M87 0v741h79v-316h445v316h78v-741h-78v348h-445v-348h-79z" />
    <glyph glyph-name="afii10032" unicode="&#x41e;" horiz-adv-x="834" 
d="M416 -12c-237 0 -372 118 -372 383c0 264 135 382 372 382c238 0 374 -118 374 -382c0 -265 -136 -383 -374 -383zM416 61c202 0 295 108 295 309c0 200 -93 308 -295 308c-201 0 -293 -108 -293 -308c0 -201 92 -309 293 -309z" />
    <glyph glyph-name="afii10033" unicode="&#x41f;" horiz-adv-x="772" 
d="M87 0v741h598v-741h-78v668h-443v-668h-77z" />
    <glyph glyph-name="afii10034" unicode="&#x420;" horiz-adv-x="706" 
d="M87 0v741h325c172 0 250 -69 250 -221c0 -154 -77 -235 -251 -235h-247v-285h-77zM164 358h249c110 0 171 42 171 159c0 116 -59 151 -174 151h-246v-310z" />
    <glyph glyph-name="afii10035" unicode="&#x421;" horiz-adv-x="721" 
d="M409 -11c-249 0 -365 131 -365 382c0 259 134 382 369 382c105 0 194 -31 259 -93l-56 -56c-53 48 -123 74 -204 74c-191 0 -289 -103 -289 -308c0 -202 92 -307 290 -307c111 0 165 35 209 76l55 -53c-51 -50 -124 -97 -268 -97z" />
    <glyph glyph-name="afii10036" unicode="&#x422;" horiz-adv-x="688" 
d="M305 0v666h-278v75h635v-75h-278v-666h-79z" />
    <glyph glyph-name="afii10037" unicode="&#x423;" horiz-adv-x="693" 
d="M211 -1c-15 0 -49 0 -60 1v70h49c50 0 66 13 88 59l29 59l-291 553h83l253 -482l236 482h79l-316 -629c-39 -80 -67 -113 -150 -113z" />
    <glyph glyph-name="afii10038" unicode="&#x424;" horiz-adv-x="892" 
d="M406 0v54c-233 10 -362 121 -362 317c0 195 129 306 362 316v54h79v-54c233 -10 363 -121 363 -316c0 -196 -129 -307 -363 -317v-54h-79zM769 369c0 138 -86 235 -284 246v-490c198 11 284 109 284 244zM122 369c0 -136 87 -233 284 -244v490
c-198 -12 -284 -108 -284 -246z" />
    <glyph glyph-name="afii10039" unicode="&#x425;" horiz-adv-x="709" 
d="M582 0l-231 329l-225 -329h-86l271 387l-247 354h86l207 -296l203 296h87l-249 -354l272 -387h-88z" />
    <glyph glyph-name="afii10040" unicode="&#x426;" horiz-adv-x="821" 
d="M694 -166v166h-607v741h79v-670h441v670h78v-669h88v-238h-79z" />
    <glyph glyph-name="afii10041" unicode="&#x427;" horiz-adv-x="732" 
d="M566 0v326c-21 -45 -98 -94 -248 -94c-216 0 -253 95 -253 231v278h77v-264c0 -104 27 -169 198 -169c184 0 226 79 226 184v249h79v-741h-79z" />
    <glyph glyph-name="afii10042" unicode="&#x428;" horiz-adv-x="1172" 
d="M87 0v745h79v-674h381v674h79v-674h381v674h77v-745h-997z" />
    <glyph glyph-name="afii10043" unicode="&#x429;" horiz-adv-x="1220" 
d="M1093 -166v166h-1006v745h79v-674h381v674h79v-674h381v674h77v-673h88v-238h-79z" />
    <glyph glyph-name="afii10044" unicode="&#x42a;" horiz-adv-x="745" 
d="M126 0v666h-87v75h164v-297h248c172 0 250 -64 250 -216c0 -153 -77 -228 -251 -228h-324zM203 70h249c110 0 171 39 171 155s-59 149 -174 149h-246v-304z" />
    <glyph glyph-name="afii10045" unicode="&#x42b;" horiz-adv-x="900" 
d="M87 0v741h77v-297h248c172 0 250 -64 250 -216c0 -153 -77 -228 -251 -228h-324zM164 70h249c110 0 171 39 171 155s-59 149 -174 149h-246v-304zM735 0v741h79v-741h-79z" />
    <glyph glyph-name="afii10046" unicode="&#x42c;" horiz-adv-x="706" 
d="M87 0v741h77v-297h248c172 0 250 -64 250 -216c0 -153 -77 -228 -251 -228h-324zM164 70h249c110 0 171 39 171 155s-59 149 -174 149h-246v-304z" />
    <glyph glyph-name="afii10047" unicode="&#x42d;" horiz-adv-x="721" 
d="M312 -11c-140 0 -217 47 -268 97l52 54c44 -42 105 -77 216 -77c178 0 278 95 286 280h-460v74h459c-16 174 -119 261 -288 261c-78 0 -154 -26 -207 -74l-53 56c65 62 159 93 263 93c224 0 365 -123 365 -382c0 -251 -124 -382 -365 -382z" />
    <glyph glyph-name="afii10048" unicode="&#x42e;" horiz-adv-x="1087" 
d="M87 0v741h79v-323h135c15 231 145 335 368 335c238 0 374 -118 374 -382c0 -265 -136 -383 -374 -383c-229 0 -360 110 -369 356h-134v-344h-79zM669 61c202 0 294 108 294 309c0 200 -92 308 -294 308c-201 0 -294 -108 -294 -308c0 -201 93 -309 294 -309z" />
    <glyph glyph-name="afii10049" unicode="&#x42f;" horiz-adv-x="718" 
d="M72 0l179 305c-130 17 -191 91 -191 219c0 147 78 217 251 217h320v-741h-77v302h-222l-176 -302h-84zM310 373h244v297h-241c-110 0 -174 -34 -174 -149s66 -148 171 -148z" />
    <glyph glyph-name="afii10050" unicode="&#x490;" horiz-adv-x="588" 
d="M87 0v741h395v166h78v-241h-394v-666h-79z" />
    <glyph glyph-name="afii10055" unicode="&#x406;" horiz-adv-x="267" 
d="M95 0v741h77v-741h-77z" />
    <glyph glyph-name="afii10051" unicode="&#x402;" horiz-adv-x="866" 
d="M620 -167v63h7c63 1 73 20 73 86v342c0 99 -8 167 -144 167c-144 0 -172 -74 -172 -174v-317h-79v666h-278v75h635v-75h-278v-169c21 37 72 68 194 68c178 0 200 -92 200 -228v-355c0 -112 -28 -149 -144 -149h-14z" />
    <glyph glyph-name="afii10099" unicode="&#x452;" horiz-adv-x="627" 
d="M-6 621v69h89v86h76v-86h144v-69h-144v-124c21 37 74 68 196 68c178 0 199 -93 199 -229v-368c0 -100 -30 -135 -141 -135h-14v63h7c61 1 72 19 73 80v347c0 98 -10 167 -146 167c-147 0 -174 -77 -174 -181v-309h-76v621h-89z" />
    <glyph glyph-name="afii10052" unicode="&#x403;" horiz-adv-x="588" 
d="M216 785l151 156h93l-172 -156h-72zM87 0v741h473v-75h-394v-666h-79z" />
    <glyph glyph-name="afii10100" unicode="&#x453;" horiz-adv-x="504" 
d="M176 610l151 156h93l-172 -156h-72zM76 0v552h404v-69h-328v-483h-76z" />
    <glyph glyph-name="afii10103" unicode="&#x456;" horiz-adv-x="238" 
d="M81 0v552h75v-552h-75zM81 625v108h76v-108h-76z" />
    <glyph glyph-name="afii10098" unicode="&#x491;" horiz-adv-x="504" 
d="M76 0v552h332v165h72v-234h-328v-483h-76z" />
    <glyph glyph-name="afii10057" unicode="&#x408;" horiz-adv-x="400" 
d="M105 -1c-35 0 -47 0 -75 1v72h67c105 0 143 43 143 140v529h77v-532c0 -152 -72 -210 -212 -210z" />
    <glyph glyph-name="afii10053" unicode="&#x404;" horiz-adv-x="721" 
d="M408 -11c-241 0 -364 131 -364 382c0 259 141 382 364 382c104 0 199 -31 264 -93l-53 -56c-53 48 -129 74 -207 74c-171 0 -274 -87 -289 -261h459v-74h-461c9 -185 108 -280 287 -280c111 0 173 35 217 77l52 -54c-52 -50 -129 -97 -269 -97z" />
    <glyph glyph-name="afii10101" unicode="&#x454;" horiz-adv-x="563" 
d="M313 -10c-206 0 -264 106 -264 287c0 180 58 288 266 288c99 0 160 -36 199 -79l-52 -52c-27 28 -73 61 -147 61c-131 0 -181 -58 -190 -179h326v-68h-326c5 -129 52 -190 190 -190c63 0 109 20 151 58l48 -48c-55 -50 -109 -78 -201 -78z" />
    <glyph glyph-name="afii10056" unicode="&#x407;" horiz-adv-x="267" 
d="M95 0v741h77v-741h-77zM-6 787v102h70v-102h-70zM205 787v102h69v-102h-69z" />
    <glyph glyph-name="afii10104" unicode="&#x457;" horiz-adv-x="238" 
d="M-7 624v102h64v-102h-64zM181 624v102h64v-102h-64zM81 0v552h75v-552h-75z" />
    <glyph glyph-name="afii10058" unicode="&#x409;" horiz-adv-x="1271" 
d="M45 1v71h24c56 0 63 19 63 73v596h597v-297h247c172 0 251 -64 251 -216c0 -153 -78 -228 -252 -228h-323v668h-442v-536c0 -94 -27 -133 -117 -133c-11 0 -44 1 -48 2zM729 70h249c110 0 171 39 171 155s-59 149 -174 149h-246v-304z" />
    <glyph glyph-name="afii10106" unicode="&#x459;" horiz-adv-x="1052" 
d="M45 1v66h24c56 0 64 19 64 73v412h465v-172h211c129 0 192 -63 192 -186s-63 -194 -193 -194h-284v484h-316v-352c0 -94 -25 -133 -115 -133c-11 0 -44 1 -48 2zM598 64h201c81 0 125 38 125 127c0 90 -43 124 -128 124h-198v-251z" />
    <glyph glyph-name="afii10059" unicode="&#x40a;" horiz-adv-x="1230" 
d="M87 0v741h79v-316h445v316h77v-297h247c172 0 251 -64 251 -216c0 -153 -77 -228 -252 -228h-323v348h-445v-348h-79zM688 70h249c110 0 171 39 171 155s-59 149 -174 149h-246v-304z" />
    <glyph glyph-name="afii10107" unicode="&#x45a;" horiz-adv-x="996" 
d="M76 0v552h76v-229h317v229h74v-172h211c128 0 191 -63 191 -186s-62 -194 -192 -194h-284v251h-317v-251h-76zM543 64h200c81 0 125 38 125 127c0 90 -42 124 -127 124h-198v-251z" />
    <glyph glyph-name="afii10105" unicode="&#x458;" horiz-adv-x="238" 
d="M2 -167v63h6c63 1 73 20 73 86v570h75v-570c0 -112 -25 -149 -141 -149h-13zM81 625v108h76v-108h-76z" />
    <glyph glyph-name="afii10054" unicode="&#x405;" horiz-adv-x="703" 
d="M348 -10c-112 0 -213 23 -307 85l40 60c89 -56 176 -75 265 -75c153 0 221 43 221 145c0 105 -88 120 -221 144c-160 28 -268 55 -268 205c0 143 92 199 268 199c116 0 199 -26 258 -66l-42 -64c-53 35 -132 58 -216 58c-133 0 -190 -37 -190 -125
c0 -94 77 -112 209 -136c162 -29 279 -53 279 -212c0 -147 -94 -218 -296 -218z" />
    <glyph glyph-name="afii10060" unicode="&#x40b;" horiz-adv-x="866" 
d="M305 0v666h-278v75h635v-75h-278v-169c21 37 72 68 194 68c178 0 200 -92 200 -228v-337h-78v324c0 99 -8 166 -144 166c-144 0 -172 -73 -172 -173v-317h-79z" />
    <glyph glyph-name="afii10108" unicode="&#x45b;" horiz-adv-x="627" 
d="M-6 621v69h89v86h76v-86h144v-69h-144v-124c21 37 74 68 196 68c178 0 199 -93 199 -229v-336h-75v323c0 98 -10 167 -146 167c-147 0 -174 -77 -174 -181v-309h-76v621h-89z" />
    <glyph glyph-name="afii10061" unicode="&#x40c;" horiz-adv-x="707" 
d="M274 785l151 156h93l-172 -156h-72zM577 0l-280 365h-132v-365h-77v741h77v-300h129l249 300h90l-276 -334l312 -407h-92z" />
    <glyph glyph-name="afii10109" unicode="&#x45c;" horiz-adv-x="547" 
d="M151 552v-218h89l178 218h88l-205 -253l226 -299h-89l-197 259h-90v-259h-75v552h75zM214 610l151 156h93l-172 -156h-72z" />
    <glyph glyph-name="afii10102" unicode="&#x455;" horiz-adv-x="522" 
d="M260 -10c-73 0 -155 13 -230 62l40 59c65 -42 136 -55 194 -55c100 0 146 19 146 97c0 62 -40 74 -146 95c-128 25 -208 47 -208 166c0 95 56 151 208 151c83 0 151 -18 202 -48l-36 -62c-42 23 -98 40 -165 40c-104 0 -134 -31 -134 -81c0 -61 40 -76 137 -95
c134 -27 215 -45 215 -163c0 -126 -70 -166 -223 -166z" />
    <glyph glyph-name="afii10062" unicode="&#x40e;" horiz-adv-x="693" 
d="M211 -1c-15 0 -49 0 -60 1v70h49c50 0 66 13 88 59l29 59l-291 553h83l253 -482l236 482h79l-316 -629c-39 -80 -67 -113 -150 -113zM345 775c-132 0 -171 68 -187 148l58 12c12 -54 38 -97 129 -97c90 0 116 43 129 97l59 -11c-18 -81 -57 -149 -188 -149z" />
    <glyph glyph-name="afii10110" unicode="&#x45e;" horiz-adv-x="530" 
d="M126 -167c-8 0 -38 0 -48 1v62h43c51 0 71 14 86 57l20 51l-216 548h80l176 -459l174 459h78l-238 -607c-30 -79 -69 -112 -155 -112zM266 600c-132 0 -171 68 -187 148l58 12c12 -54 38 -97 129 -97c90 0 116 43 129 97l59 -11c-18 -81 -57 -149 -188 -149z" />
    <glyph glyph-name="afii10145" unicode="&#x40f;" horiz-adv-x="772" 
d="M347 -166v166h-260v741h79v-670h441v670h78v-741h-259v-166h-79z" />
    <glyph glyph-name="afii10193" unicode="&#x45f;" horiz-adv-x="624" 
d="M276 -166v166h-200v552h76v-486h320v486h75v-552h-199v-166h-72z" />
    <glyph glyph-name="afii61352" unicode="&#x2116;" horiz-adv-x="1327" 
d="M87 0v741h86l445 -607v607h74v-741h-72l-459 626v-626h-74zM1012 288c-145 0 -214 80 -214 233s69 232 214 232c144 0 215 -79 215 -232s-71 -233 -215 -233zM1012 347c101 0 150 60 150 173c0 112 -49 171 -150 171s-149 -59 -149 -171c0 -113 48 -173 149 -173z
M825 149v60h375v-60h-375z" />
    <glyph glyph-name="afii10023" unicode="&#x401;" horiz-adv-x="639" 
d="M178 787v102h70v-102h-70zM389 787v102h69v-102h-69zM87 0v741h490v-75h-411v-245h401v-74h-401v-275h415v-72h-494z" />
    <glyph glyph-name="afii10071" unicode="&#x451;" horiz-adv-x="593" 
d="M155 612v102h70v-102h-70zM366 612v102h69v-102h-69zM314 -11c-222 0 -265 127 -265 288c0 160 48 288 262 288c222 0 229 -153 227 -314h-416c4 -116 38 -196 192 -196c91 0 134 24 178 56l41 -53c-55 -42 -117 -69 -219 -69zM309 497c-139 0 -178 -71 -186 -177h343
c-5 98 -12 177 -157 177z" />
    <glyph glyph-name="afii10097" unicode="&#x44f;" horiz-adv-x="621" 
d="M63 0l124 213c-85 15 -132 67 -132 167c0 119 68 172 193 172h297v-552h-76v208h-204l-121 -208h-81zM248 273h221v211h-219c-76 0 -118 -23 -118 -106c0 -82 42 -105 116 -105z" />
    <glyph glyph-name="afii10065" unicode="&#x430;" 
d="M238 -10c-155 0 -194 71 -194 164c0 157 88 204 368 204h33c-2 94 -22 136 -149 136c-70 0 -130 -25 -165 -48l-40 59c36 25 119 60 211 60c186 0 216 -65 216 -223v-208c0 -59 4 -67 57 -67v-66c-5 -2 -15 -2 -30 -2c-64 0 -81 20 -90 69c-34 -52 -93 -78 -217 -78z
M249 55c139 0 196 60 196 194v40h-29c-240 0 -299 -26 -299 -130c0 -66 30 -104 132 -104z" />
    <glyph glyph-name="afii10066" unicode="&#x431;" horiz-adv-x="631" 
d="M316 -11c-185 0 -267 92 -267 297v125c0 321 146 365 310 365h76v-70h-73c-144 0 -237 -57 -237 -238c32 55 96 84 210 84c190 0 247 -109 247 -283c0 -179 -73 -280 -266 -280zM316 58c138 0 189 73 189 212c0 140 -51 212 -189 212s-191 -72 -191 -212
c0 -139 53 -212 191 -212z" />
    <glyph glyph-name="afii10067" unicode="&#x432;" horiz-adv-x="608" 
d="M76 0v552h275c130 0 189 -33 189 -132c0 -67 -12 -112 -73 -129c66 -16 88 -57 88 -138c0 -124 -69 -153 -210 -153h-269zM148 66h203c88 0 130 19 130 95c0 69 -40 92 -132 92h-201v-187zM148 320h204c91 0 115 32 115 87c0 58 -33 76 -115 76h-204v-163z" />
    <glyph glyph-name="afii10068" unicode="&#x433;" horiz-adv-x="504" 
d="M76 0v552h404v-69h-328v-483h-76z" />
    <glyph glyph-name="afii10069" unicode="&#x434;" horiz-adv-x="735" 
d="M45 -166v233h24c56 0 63 19 63 73v412h471v-485h87v-233h-72v166h-502v-166h-71zM187 64h341v420h-320v-348c0 -34 -3 -56 -21 -72z" />
    <glyph glyph-name="afii10070" unicode="&#x435;" horiz-adv-x="593" 
d="M314 -11c-222 0 -265 127 -265 288c0 160 48 288 262 288c222 0 229 -153 227 -314h-416c4 -116 38 -196 192 -196c91 0 134 24 178 56l41 -53c-55 -42 -117 -69 -219 -69zM309 497c-139 0 -178 -71 -186 -177h343c-5 98 -12 177 -157 177z" />
    <glyph glyph-name="afii10072" unicode="&#x436;" horiz-adv-x="866" 
d="M470 552v-218h89l178 218h88l-205 -253l226 -299h-89l-197 259h-90v-259h-74v259h-91l-196 -259h-89l225 299l-204 253h88l178 -218h89v218h74z" />
    <glyph glyph-name="afii10073" unicode="&#x437;" horiz-adv-x="560" 
d="M268 -12c-93 0 -178 15 -244 53l34 60c59 -32 128 -45 203 -45c125 0 169 17 169 105c0 74 -21 104 -183 104h-122v69h120c135 0 169 16 169 86c0 65 -41 76 -154 76c-64 0 -140 -13 -185 -39l-38 60c57 32 155 48 232 48c154 0 222 -29 222 -131
c0 -74 -19 -110 -76 -129c78 -20 91 -64 91 -149c0 -134 -77 -168 -238 -168z" />
    <glyph glyph-name="afii10074" unicode="&#x438;" horiz-adv-x="626" 
d="M76 0v552h74v-428l316 428h84v-552h-74v446l-330 -446h-70z" />
    <glyph glyph-name="afii10075" unicode="&#x439;" horiz-adv-x="626" 
d="M76 0v552h74v-428l316 428h84v-552h-74v446l-330 -446h-70zM312 600c-132 0 -171 68 -187 148l58 12c12 -54 38 -97 129 -97c90 0 116 43 129 97l59 -11c-18 -81 -57 -149 -188 -149z" />
    <glyph glyph-name="afii10076" unicode="&#x43a;" horiz-adv-x="547" 
d="M151 552v-218h89l178 218h88l-205 -253l226 -299h-89l-197 259h-90v-259h-75v552h75z" />
    <glyph glyph-name="afii10077" unicode="&#x43b;" horiz-adv-x="680" 
d="M45 1v66h24c56 0 64 19 64 73v412h471v-552h-76v484h-320v-352c0 -94 -25 -133 -115 -133c-11 0 -44 1 -48 2z" />
    <glyph glyph-name="afii10078" unicode="&#x43c;" horiz-adv-x="732" 
d="M76 0v552h95l203 -453l203 453h93v-552h-75v432l-193 -432h-63l-192 432v-432h-71z" />
    <glyph glyph-name="afii10079" unicode="&#x43d;" horiz-adv-x="625" 
d="M76 0v552h76v-229h320v229h76v-552h-76v251h-320v-251h-76z" />
    <glyph glyph-name="afii10080" unicode="&#x43e;" horiz-adv-x="631" 
d="M315 -11c-191 0 -266 98 -266 288s75 288 266 288s267 -98 267 -288s-76 -288 -267 -288zM315 58c139 0 190 76 190 217c0 142 -51 218 -190 218s-190 -76 -190 -218c0 -141 51 -217 190 -217z" />
    <glyph glyph-name="afii10081" unicode="&#x43f;" horiz-adv-x="624" 
d="M76 0v552h471v-552h-75v484h-321v-484h-75z" />
    <glyph glyph-name="afii10082" unicode="&#x440;" horiz-adv-x="647" 
d="M76 -165v713l60 4l7 -66c30 53 93 79 219 79c184 0 236 -114 236 -288c0 -172 -53 -286 -239 -286c-120 0 -178 23 -207 74v-230h-76zM347 60c136 0 174 80 174 215s-36 218 -174 218c-139 0 -195 -54 -195 -218c0 -163 54 -215 195 -215z" />
    <glyph glyph-name="afii10083" unicode="&#x441;" horiz-adv-x="563" 
d="M313 -10c-206 0 -264 112 -264 287s58 288 266 288c99 0 159 -36 199 -79l-55 -52c-27 27 -70 58 -144 58c-145 0 -190 -79 -190 -217c0 -136 43 -217 190 -217c63 0 106 20 148 58l51 -48c-55 -50 -109 -78 -201 -78z" />
    <glyph glyph-name="afii10084" unicode="&#x442;" horiz-adv-x="542" 
d="M233 0v483h-209v69h494v-69h-209v-483h-76z" />
    <glyph glyph-name="afii10085" unicode="&#x443;" horiz-adv-x="530" 
d="M126 -167c-8 0 -38 0 -48 1v62h43c51 0 71 14 86 57l20 51l-216 548h80l176 -459l174 459h78l-238 -607c-30 -79 -69 -112 -155 -112z" />
    <glyph glyph-name="afii10086" unicode="&#x444;" horiz-adv-x="1063" 
d="M495 -165v231c-36 -53 -95 -76 -209 -76c-184 0 -237 115 -237 289c0 172 54 286 239 286c120 0 178 -23 207 -74v285h72v-286c30 52 94 75 211 75c184 0 235 -114 235 -288c0 -172 -52 -286 -238 -286c-120 0 -178 23 -208 74v-230h-72zM300 60c139 0 195 55 195 219
c0 162 -53 214 -195 214c-137 0 -174 -80 -174 -214c0 -136 37 -219 174 -219zM763 60c136 0 174 80 174 215s-37 218 -174 218c-139 0 -196 -54 -196 -218c0 -163 55 -215 196 -215z" />
    <glyph glyph-name="afii10087" unicode="&#x445;" horiz-adv-x="541" 
d="M436 0l-169 234l-165 -234h-82l208 288l-190 264h83l152 -210l149 210h82l-192 -265l209 -287h-85z" />
    <glyph glyph-name="afii10088" unicode="&#x446;" horiz-adv-x="679" 
d="M562 -166v166h-486v552h76v-486h320v486h75v-485h88v-233h-73z" />
    <glyph glyph-name="afii10089" unicode="&#x447;" horiz-adv-x="619" 
d="M467 0v213c-21 -39 -81 -72 -203 -72c-178 0 -206 92 -206 228v183h75v-170c0 -98 17 -166 153 -166c147 0 181 76 181 180v156h75v-552h-75z" />
    <glyph glyph-name="afii10090" unicode="&#x448;" horiz-adv-x="996" 
d="M76 0v552h76v-486h309v486h75v-486h309v486h74v-552h-843z" />
    <glyph glyph-name="afii10091" unicode="&#x449;" horiz-adv-x="1051" 
d="M935 -166v166h-859v552h76v-486h309v486h75v-486h309v486h74v-485h87v-233h-71z" />
    <glyph glyph-name="afii10092" unicode="&#x44a;" horiz-adv-x="664" 
d="M132 0v483h-87v69h162v-172h214c129 0 192 -63 192 -186s-62 -194 -193 -194h-288zM207 64h203c82 0 126 38 126 127c0 90 -43 124 -128 124h-201v-251z" />
    <glyph glyph-name="afii10093" unicode="&#x44b;" horiz-adv-x="774" 
d="M76 0v552h75v-172h214c129 0 192 -63 192 -186s-62 -194 -193 -194h-288zM151 64h204c81 0 126 38 126 127c0 90 -44 124 -128 124h-202v-251zM621 0v552h76v-552h-76z" />
    <glyph glyph-name="afii10094" unicode="&#x44c;" horiz-adv-x="609" 
d="M76 0v552h75v-171h214c129 0 192 -64 192 -187s-62 -194 -193 -194h-288zM151 64h204c81 0 126 38 126 127c0 90 -44 124 -128 124h-202v-251z" />
    <glyph glyph-name="afii10095" unicode="&#x44d;" horiz-adv-x="563" 
d="M251 -10c-93 0 -147 28 -202 78l47 48c43 -38 89 -58 152 -58c138 0 184 61 190 190h-326v68h325c-8 121 -57 179 -189 179c-72 0 -119 -33 -146 -61l-52 52c39 43 100 79 200 79c206 0 264 -108 264 -288c0 -181 -58 -287 -263 -287z" />
    <glyph glyph-name="afii10096" unicode="&#x44e;" horiz-adv-x="824" 
d="M76 0v552h76v-231h94c11 162 86 244 262 244c190 0 266 -96 266 -288s-76 -288 -266 -288c-183 0 -257 88 -263 263h-93v-252h-76zM508 58c139 0 190 71 190 217c0 147 -51 218 -190 218c-140 0 -189 -71 -189 -218c0 -146 49 -217 189 -217z" />
    <glyph glyph-name="registered.superior" horiz-adv-x="644" 
d="M322 200c-174 0 -268 113 -268 276c0 164 94 278 268 278c173 0 269 -114 269 -278c0 -163 -96 -276 -269 -276zM322 232c156 0 236 101 236 244c0 145 -80 246 -236 246c-157 0 -235 -101 -235 -246c0 -143 78 -244 235 -244zM407 302l-80 139h-85v-139h-45v352h142
c85 0 123 -33 123 -105c0 -62 -28 -97 -88 -106l82 -141h-49zM242 479h96c49 0 78 16 78 68c0 53 -28 68 -79 68h-95v-136z" />
    <glyph glyph-name="AEacute" unicode="&#x1fc;" horiz-adv-x="1070" 
d="M434 785l151 156h93l-172 -156h-72zM20 0l466 741h523v-75h-412v-245h402v-72h-402v-277h416v-72h-491v168h-317l-107 -168h-78zM245 236h277v434z" />
    <glyph glyph-name="Aringacute" unicode="&#x1fa;" horiz-adv-x="726" 
d="M284 970l151 156h93l-172 -156h-72zM26 0l280 704c-44 18 -63 60 -63 112c0 68 35 122 119 122c81 0 120 -54 120 -122c0 -51 -21 -93 -64 -112l281 -704h-79l-68 170h-382l-66 -170h-78zM198 242h326l-163 409zM362 738c53 0 75 33 75 78c0 44 -22 78 -75 78
s-75 -34 -75 -78c0 -45 22 -78 75 -78z" />
    <glyph glyph-name="Ccircumflex" unicode="&#x108;" horiz-adv-x="721" 
d="M194 785l152 156h85l152 -156h-76l-120 107l-118 -107h-75zM409 -11c-249 0 -365 131 -365 382c0 259 134 382 369 382c105 0 194 -31 259 -93l-56 -56c-53 48 -123 74 -204 74c-191 0 -289 -103 -289 -308c0 -202 92 -307 290 -307c111 0 165 35 209 76l55 -53
c-51 -50 -124 -97 -268 -97z" />
    <glyph glyph-name="Cdotaccent" unicode="&#x10a;" horiz-adv-x="721" 
d="M409 -11c-249 0 -365 131 -365 382c0 259 134 382 369 382c105 0 194 -31 259 -93l-56 -56c-53 48 -123 74 -204 74c-191 0 -289 -103 -289 -308c0 -202 92 -307 290 -307c111 0 165 35 209 76l55 -53c-51 -50 -124 -97 -268 -97zM348 784v107h76v-107h-76z" />
    <glyph glyph-name="Ebreve" unicode="&#x114;" horiz-adv-x="639" 
d="M87 0v741h490v-75h-411v-245h401v-74h-401v-275h415v-72h-494zM319 775c-132 0 -171 68 -187 148l58 12c12 -54 38 -97 129 -97c90 0 116 43 129 97l59 -11c-18 -81 -57 -149 -188 -149z" />
    <glyph glyph-name="Eng" unicode="&#x14a;" horiz-adv-x="779" 
d="M87 0v741h86l445 -613v613h74v-707c0 -151 -72 -209 -213 -209c-23 0 -64 0 -74 1v68h67c93 0 134 36 142 114l-453 624v-632h-74z" />
    <glyph glyph-name="Gcircumflex" unicode="&#x11c;" horiz-adv-x="777" 
d="M194 785l152 156h85l152 -156h-76l-120 107l-118 -107h-75zM408 -11c-263 0 -364 129 -364 382c0 267 132 382 368 382c142 0 222 -46 270 -92l-56 -57c-47 41 -109 74 -214 74c-193 0 -290 -98 -290 -308s80 -311 289 -311c199 0 243 85 243 249v24h-250v73h328v-84
c0 -201 -52 -332 -324 -332z" />
    <glyph glyph-name="Gdotaccent" unicode="&#x120;" horiz-adv-x="777" 
d="M408 -11c-263 0 -364 129 -364 382c0 267 132 382 368 382c142 0 222 -46 270 -92l-56 -57c-47 41 -109 74 -214 74c-193 0 -290 -98 -290 -308s80 -311 289 -311c199 0 243 85 243 249v24h-250v73h328v-84c0 -201 -52 -332 -324 -332zM352 784v107h76v-107h-76z" />
    <glyph glyph-name="Hbar" unicode="&#x126;" horiz-adv-x="777" 
d="M20 547v62h67v132h79v-132h445v132h78v-132h67v-62h-67v-547h-78v348h-445v-348h-79v547h-67zM166 425h445v122h-445v-122z" />
    <glyph glyph-name="Hcircumflex" unicode="&#x124;" horiz-adv-x="777" 
d="M192 785l152 156h85l152 -156h-76l-120 107l-118 -107h-75zM87 0v741h79v-316h445v316h78v-741h-78v348h-445v-348h-79z" />
    <glyph glyph-name="Ibreve" unicode="&#x12c;" horiz-adv-x="267" 
d="M95 0v741h77v-741h-77zM134 775c-132 0 -171 68 -187 148l58 12c12 -54 38 -97 129 -97c90 0 116 43 129 97l59 -11c-18 -81 -57 -149 -188 -149z" />
    <glyph glyph-name="Itilde" unicode="&#x128;" horiz-adv-x="267" 
d="M95 0v741h77v-741h-77zM-11 788l-48 37c33 41 78 74 122 74c68 0 89 -48 139 -48c26 0 53 25 78 54l46 -37c-34 -42 -77 -81 -123 -81c-60 0 -90 49 -139 49c-24 0 -53 -19 -75 -48z" />
    <glyph glyph-name="Idotaccent" unicode="&#x130;" horiz-adv-x="267" 
d="M95 0v741h77v-741h-77zM96 784v107h76v-107h-76z" />
    <glyph glyph-name="IJ" unicode="&#x132;" horiz-adv-x="666" 
d="M95 0v741h77v-741h-77zM371 -1c-35 0 -47 0 -75 1v72h67c105 0 143 43 143 140v529h77v-532c0 -152 -72 -210 -212 -210z" />
    <glyph glyph-name="Jcircumflex" unicode="&#x134;" horiz-adv-x="400" 
d="M84 785l152 156h85l152 -156h-76l-120 107l-118 -107h-75zM105 -1c-35 0 -47 0 -75 1v72h67c105 0 143 43 143 140v529h77v-532c0 -152 -72 -210 -212 -210z" />
    <glyph glyph-name="Ldot" unicode="&#x13f;" horiz-adv-x="619" 
d="M87 0v741h79v-669h394v-72h-473zM387 322v113h100v-113h-100z" />
    <glyph glyph-name="Obreve" unicode="&#x14e;" horiz-adv-x="834" 
d="M416 -12c-237 0 -372 118 -372 383c0 264 135 382 372 382c238 0 374 -118 374 -382c0 -265 -136 -383 -374 -383zM416 61c202 0 295 108 295 309c0 200 -93 308 -295 308c-201 0 -293 -108 -293 -308c0 -201 92 -309 293 -309zM416 775c-132 0 -171 68 -187 148l58 12
c12 -54 38 -97 129 -97c90 0 116 43 129 97l59 -11c-18 -81 -57 -149 -188 -149z" />
    <glyph glyph-name="Oslashacute" unicode="&#x1fe;" horiz-adv-x="834" 
d="M416 -12c-65 0 -121 9 -169 25l-30 -54h-76l46 82c-95 59 -143 166 -143 330c0 264 126 382 372 382c60 0 112 -7 158 -21l29 51h76l-44 -77c102 -57 155 -166 155 -335c0 -265 -127 -383 -374 -383zM416 59c212 0 297 109 297 311c0 130 -36 221 -118 270l-314 -561
c38 -14 82 -20 135 -20zM121 370c0 -125 32 -214 106 -264l313 558c-35 10 -77 16 -124 16c-211 0 -295 -108 -295 -310zM339 785l151 156h93l-172 -156h-72z" />
    <glyph glyph-name="Scircumflex" unicode="&#x15c;" horiz-adv-x="703" 
d="M143 785l152 156h85l152 -156h-76l-120 107l-118 -107h-75zM348 -10c-112 0 -213 23 -307 85l40 60c89 -56 176 -75 265 -75c153 0 221 43 221 145c0 105 -88 120 -221 144c-160 28 -268 55 -268 205c0 143 92 199 268 199c116 0 199 -26 258 -66l-42 -64
c-53 35 -132 58 -216 58c-133 0 -190 -37 -190 -125c0 -94 77 -112 209 -136c162 -29 279 -53 279 -212c0 -147 -94 -218 -296 -218z" />
    <glyph glyph-name="Tbar" unicode="&#x166;" horiz-adv-x="688" 
d="M162 332v65h143v269h-278v75h635v-75h-278v-269h142v-65h-142v-332h-79v332h-143z" />
    <glyph glyph-name="Ubreve" unicode="&#x16c;" horiz-adv-x="778" 
d="M388 -12c-263 0 -306 133 -306 279v474h79v-465c0 -126 40 -215 227 -215c189 0 232 87 232 215v465h76v-474c0 -147 -46 -279 -308 -279zM388 775c-132 0 -171 68 -187 148l58 12c12 -54 38 -97 129 -97c90 0 116 43 129 97l59 -11c-18 -81 -57 -149 -188 -149z" />
    <glyph glyph-name="Utilde" unicode="&#x168;" horiz-adv-x="778" 
d="M388 -12c-263 0 -306 133 -306 279v474h79v-465c0 -126 40 -215 227 -215c189 0 232 87 232 215v465h76v-474c0 -147 -46 -279 -308 -279zM247 788l-48 37c33 41 78 74 122 74c68 0 89 -48 139 -48c26 0 53 25 78 54l46 -37c-34 -42 -77 -81 -123 -81
c-60 0 -90 49 -139 49c-24 0 -53 -19 -75 -48z" />
    <glyph glyph-name="Wacute" unicode="&#x1e82;" horiz-adv-x="1083" 
d="M466 785l151 156h93l-172 -156h-72zM274 -5l-239 746h81l195 -613l199 613h68l198 -613l196 613h76l-238 -746h-68l-200 617l-199 -617h-69z" />
    <glyph glyph-name="Wcircumflex" unicode="&#x174;" horiz-adv-x="1083" 
d="M347 785l152 156h85l152 -156h-76l-120 107l-118 -107h-75zM274 -5l-239 746h81l195 -613l199 613h68l198 -613l196 613h76l-238 -746h-68l-200 617l-199 -617h-69z" />
    <glyph glyph-name="Wdieresis" unicode="&#x1e84;" horiz-adv-x="1083" 
d="M401 787v102h70v-102h-70zM612 787v102h69v-102h-69zM274 -5l-239 746h81l195 -613l199 613h68l198 -613l196 613h76l-238 -746h-68l-200 617l-199 -617h-69z" />
    <glyph glyph-name="Wgrave" unicode="&#x1e80;" horiz-adv-x="1083" 
d="M274 -5l-239 746h81l195 -613l199 613h68l198 -613l196 613h76l-238 -746h-68l-200 617l-199 -617h-69zM548 785l-172 156h93l151 -156h-72z" />
    <glyph glyph-name="Ycircumflex" unicode="&#x176;" horiz-adv-x="700" 
d="M311 0v288l-298 453h86l252 -382l254 382h81l-297 -452v-289h-78zM154 785l152 156h85l152 -156h-76l-120 107l-118 -107h-75z" />
    <glyph glyph-name="Ygrave" unicode="&#x1ef2;" horiz-adv-x="700" 
d="M311 0v288l-298 453h86l252 -382l254 382h81l-297 -452v-289h-78zM357 785l-172 156h93l151 -156h-72z" />
    <glyph glyph-name="aeacute" unicode="&#x1fd;" horiz-adv-x="985" 
d="M385 610l151 156h93l-172 -156h-72zM707 -11c-131 0 -196 43 -229 110c-44 -87 -120 -109 -239 -109c-130 0 -195 48 -195 164c0 157 88 204 368 204h33c-2 94 -22 136 -149 136c-70 0 -132 -25 -167 -47l-38 58c36 25 119 60 211 60c116 0 168 -29 190 -88
c36 54 100 88 211 88c227 0 230 -153 227 -314h-416c4 -116 38 -196 193 -196c90 0 133 24 177 56l41 -53c-56 -42 -115 -69 -218 -69zM250 55c138 0 195 60 195 194v40h-29c-240 0 -299 -26 -299 -130c0 -66 30 -104 133 -104zM702 497c-139 0 -179 -71 -187 -177h343
c-4 98 -12 177 -156 177z" />
    <glyph glyph-name="aringacute" unicode="&#x1fb;" 
d="M238 -10c-155 0 -194 71 -194 164c0 157 88 204 368 204h33c-2 94 -22 136 -149 136c-70 0 -130 -25 -165 -48l-40 59c36 25 119 60 211 60c186 0 216 -65 216 -223v-208c0 -59 4 -67 57 -67v-66c-5 -2 -15 -2 -30 -2c-64 0 -81 20 -90 69c-34 -52 -93 -78 -217 -78z
M249 55c139 0 196 60 196 194v40h-29c-240 0 -299 -26 -299 -130c0 -66 30 -104 132 -104zM234 883l151 156h93l-172 -156h-72zM311 599c-84 0 -120 53 -120 123s36 124 120 124c80 0 119 -54 119 -124s-39 -123 -119 -123zM311 644c52 0 74 34 74 78s-22 78 -74 78
c-54 0 -75 -34 -75 -78s21 -78 75 -78z" />
    <glyph glyph-name="ccircumflex" unicode="&#x109;" horiz-adv-x="563" 
d="M96 610l152 156h85l152 -156h-76l-120 107l-118 -107h-75zM313 -10c-206 0 -264 112 -264 287s58 288 266 288c99 0 159 -36 199 -79l-55 -52c-27 27 -70 58 -144 58c-145 0 -190 -79 -190 -217c0 -136 43 -217 190 -217c63 0 106 20 148 58l51 -48
c-55 -50 -109 -78 -201 -78z" />
    <glyph glyph-name="cdotaccent" unicode="&#x10b;" horiz-adv-x="563" 
d="M313 -10c-206 0 -264 112 -264 287s58 288 266 288c99 0 159 -36 199 -79l-55 -52c-27 27 -70 58 -144 58c-145 0 -190 -79 -190 -217c0 -136 43 -217 190 -217c63 0 106 20 148 58l51 -48c-55 -50 -109 -78 -201 -78zM260 609v107h76v-107h-76z" />
    <glyph glyph-name="ebreve" unicode="&#x115;" horiz-adv-x="593" 
d="M314 -11c-222 0 -265 127 -265 288c0 160 48 288 262 288c222 0 229 -153 227 -314h-416c4 -116 38 -196 192 -196c91 0 134 24 178 56l41 -53c-55 -42 -117 -69 -219 -69zM309 497c-139 0 -178 -71 -186 -177h343c-5 98 -12 177 -157 177zM296 600
c-132 0 -171 68 -187 148l58 12c12 -54 38 -97 129 -97c90 0 116 43 129 97l59 -11c-18 -81 -57 -149 -188 -149z" />
    <glyph glyph-name="eng" unicode="&#x14b;" 
d="M392 -167v61h6c64 0 73 20 73 85v346c0 100 -9 168 -145 168c-147 0 -174 -77 -174 -182v-311h-76v547l60 4l7 -82c24 50 77 95 205 95c178 0 199 -91 199 -227v-361c0 -106 -27 -143 -142 -143h-13z" />
    <glyph glyph-name="gcircumflex" unicode="&#x11d;" horiz-adv-x="597" 
d="M100 619l152 156h85l152 -156h-76l-120 107l-118 -107h-75zM288 202c-37 0 -68 3 -96 9c-10 -12 -17 -27 -17 -41c0 -35 25 -42 116 -42c199 0 266 -28 266 -141s-70 -166 -272 -166c-177 0 -255 27 -255 138c0 64 23 120 109 137c-23 10 -35 35 -35 65c0 27 10 54 26 74
c-46 29 -68 76 -68 145c0 124 68 185 226 185c18 0 37 -1 54 -3l192 23v-63h-92c48 -26 74 -69 74 -142c0 -122 -71 -178 -228 -178zM288 268c110 0 153 34 153 112c0 79 -53 114 -153 114c-109 0 -152 -35 -152 -114c0 -78 43 -112 152 -112zM287 -116c157 0 193 34 193 98
c0 67 -49 80 -193 80c-159 0 -181 -42 -181 -92c0 -67 56 -86 181 -86z" />
    <glyph glyph-name="gdotaccent" unicode="&#x121;" horiz-adv-x="597" 
d="M288 202c-37 0 -68 3 -96 9c-10 -12 -17 -27 -17 -41c0 -35 25 -42 116 -42c199 0 266 -28 266 -141s-70 -166 -272 -166c-177 0 -255 27 -255 138c0 64 23 120 109 137c-23 10 -35 35 -35 65c0 27 10 54 26 74c-46 29 -68 76 -68 145c0 124 68 185 226 185
c18 0 37 -1 54 -3l192 23v-63h-92c48 -26 74 -69 74 -142c0 -122 -71 -178 -228 -178zM288 268c110 0 153 34 153 112c0 79 -53 114 -153 114c-109 0 -152 -35 -152 -114c0 -78 43 -112 152 -112zM287 -116c157 0 193 34 193 98c0 67 -49 80 -193 80
c-159 0 -181 -42 -181 -92c0 -67 56 -86 181 -86zM260 609v107h76v-107h-76z" />
    <glyph glyph-name="hbar" unicode="&#x127;" 
d="M76 0v631h-76v55h76v90h76v-90h165v-55h-165v-134c21 37 73 68 196 68c178 0 199 -92 199 -228v-337h-76v324c0 98 -9 166 -145 166c-147 0 -174 -76 -174 -180v-310h-76z" />
    <glyph glyph-name="hcircumflex" unicode="&#x125;" 
d="M-80 791l152 156h85l152 -156h-76l-120 107l-118 -107h-75zM76 0v776h76v-279c21 37 73 68 196 68c178 0 199 -92 199 -228v-337h-76v324c0 98 -9 166 -145 166c-147 0 -174 -76 -174 -180v-310h-76z" />
    <glyph glyph-name="ibreve" unicode="&#x12d;" horiz-adv-x="238" 
d="M81 0v552h75v-552h-75zM120 600c-132 0 -171 68 -187 148l58 12c12 -54 38 -97 129 -97c90 0 116 43 129 97l59 -11c-18 -81 -57 -149 -188 -149z" />
    <glyph glyph-name="ij" unicode="&#x133;" horiz-adv-x="476" 
d="M81 0v552h75v-552h-75zM81 625v108h76v-108h-76zM239 -167v63h6c63 1 73 20 73 86v570h75v-570c0 -112 -25 -149 -141 -149h-13zM318 625v108h76v-108h-76z" />
    <glyph glyph-name="itilde" unicode="&#x129;" horiz-adv-x="238" 
d="M81 0v552h75v-552h-75zM-25 613l-48 37c33 41 78 74 122 74c68 0 89 -48 139 -48c26 0 53 25 78 54l46 -37c-34 -42 -77 -81 -123 -81c-60 0 -90 49 -139 49c-24 0 -53 -19 -75 -48z" />
    <glyph glyph-name="jcircumflex" unicode="&#x135;" horiz-adv-x="238" 
d="M2 -167v61h6c63 0 73 20 73 85v572h75v-571c0 -110 -25 -147 -141 -147h-13zM-74 610l152 156h85l152 -156h-76l-120 107l-118 -107h-75z" />
    <glyph glyph-name="kgreenlandic" unicode="&#x138;" horiz-adv-x="542" 
d="M76 0v552h75v-304l266 304h84l-200 -231l221 -321h-84l-187 266l-100 -113v-153h-75z" />
    <glyph glyph-name="ldot" unicode="&#x140;" horiz-adv-x="490" 
d="M196 -1c-90 0 -115 39 -115 133v644h75v-636c0 -54 7 -73 64 -73h24v-66c-8 -1 -27 -2 -48 -2zM315 274v113h100v-113h-100z" />
    <glyph glyph-name="napostrophe" unicode="&#x149;" horiz-adv-x="842" 
d="M86 503l-22 41c44 24 55 40 55 82h-50v115h100v-87c0 -85 -15 -117 -83 -151zM298 0v548l60 4l7 -58c24 38 77 71 205 71c178 0 199 -92 199 -228v-337h-76v324c0 98 -9 166 -145 166c-147 0 -174 -76 -174 -180v-310h-76z" />
    <glyph glyph-name="obreve" unicode="&#x14f;" horiz-adv-x="631" 
d="M315 -11c-191 0 -266 98 -266 288s75 288 266 288s267 -98 267 -288s-76 -288 -267 -288zM315 58c139 0 190 76 190 217c0 142 -51 218 -190 218s-190 -76 -190 -218c0 -141 51 -217 190 -217zM314 600c-132 0 -171 68 -187 148l58 12c12 -54 38 -97 129 -97
c90 0 116 43 129 97l59 -11c-18 -81 -57 -149 -188 -149z" />
    <glyph glyph-name="oslashacute" unicode="&#x1ff;" horiz-adv-x="631" 
d="M315 -11c-48 0 -88 6 -121 17l-29 -48h-71l45 76c-64 47 -90 128 -90 243c0 190 72 288 266 288c48 0 88 -7 122 -19l29 49h70l-44 -76c63 -47 90 -128 90 -242c0 -190 -74 -288 -267 -288zM315 56c140 0 192 77 192 219c0 82 -17 141 -58 178l-222 -383
c24 -9 53 -14 88 -14zM124 275c0 -81 16 -141 56 -177l221 383c-24 8 -52 13 -86 13c-141 0 -191 -76 -191 -219zM237 610l151 156h93l-172 -156h-72z" />
    <glyph glyph-name="scircumflex" unicode="&#x15d;" horiz-adv-x="522" 
d="M62 610l152 156h85l152 -156h-76l-120 107l-118 -107h-75zM260 -10c-73 0 -155 13 -230 62l40 59c65 -42 136 -55 194 -55c100 0 146 19 146 97c0 62 -40 74 -146 95c-128 25 -208 47 -208 166c0 95 56 151 208 151c83 0 151 -18 202 -48l-36 -62c-42 23 -98 40 -165 40
c-104 0 -134 -31 -134 -81c0 -61 40 -76 137 -95c134 -27 215 -45 215 -163c0 -126 -70 -166 -223 -166z" />
    <glyph glyph-name="tbar" unicode="&#x167;" horiz-adv-x="406" 
d="M31 483v69h101l13 166l60 11v-177h152v-69h-152v-156h152v-62h-152v-114c0 -51 7 -84 84 -84h68v-67c-8 -1 -69 -1 -80 -1c-124 0 -147 50 -147 143v123h-99v62h99v156h-99z" />
    <glyph glyph-name="ubreve" unicode="&#x16d;" horiz-adv-x="614" 
d="M309 -10c-214 0 -236 90 -236 237v325h75v-327c0 -91 0 -166 161 -166c160 0 158 75 158 170v323h74v-322c0 -150 -19 -240 -232 -240zM306 600c-132 0 -171 68 -187 148l58 12c12 -54 38 -97 129 -97c90 0 116 43 129 97l59 -11c-18 -81 -57 -149 -188 -149z" />
    <glyph glyph-name="utilde" unicode="&#x169;" horiz-adv-x="614" 
d="M309 -10c-214 0 -236 90 -236 237v325h75v-327c0 -91 0 -166 161 -166c160 0 158 75 158 170v323h74v-322c0 -150 -19 -240 -232 -240zM164 613l-48 37c33 41 78 74 122 74c68 0 89 -48 139 -48c26 0 53 25 78 54l46 -37c-34 -42 -77 -81 -123 -81c-60 0 -90 49 -139 49
c-24 0 -53 -19 -75 -48z" />
    <glyph glyph-name="wacute" unicode="&#x1e83;" horiz-adv-x="876" 
d="M360 610l151 156h93l-172 -156h-72zM214 -5l-199 557h79l159 -447l149 447h75l148 -446l159 446h77l-199 -557h-75l-149 443l-149 -443h-75z" />
    <glyph glyph-name="wcircumflex" unicode="&#x175;" horiz-adv-x="876" 
d="M242 610l152 156h85l152 -156h-76l-120 107l-118 -107h-75zM214 -5l-199 557h79l159 -447l149 447h75l148 -446l159 446h77l-199 -557h-75l-149 443l-149 -443h-75z" />
    <glyph glyph-name="wdieresis" unicode="&#x1e85;" horiz-adv-x="876" 
d="M297 612v102h70v-102h-70zM508 612v102h69v-102h-69zM214 -5l-199 557h79l159 -447l149 447h75l148 -446l159 446h77l-199 -557h-75l-149 443l-149 -443h-75z" />
    <glyph glyph-name="wgrave" unicode="&#x1e81;" horiz-adv-x="876" 
d="M214 -5l-199 557h79l159 -447l149 447h75l148 -446l159 446h77l-199 -557h-75l-149 443l-149 -443h-75zM442 610l-172 156h93l151 -156h-72z" />
    <glyph glyph-name="ycircumflex" unicode="&#x177;" horiz-adv-x="530" 
d="M126 -167c-8 0 -38 0 -48 1v62h43c51 0 71 14 86 57l20 51l-216 548h80l176 -459l174 459h78l-238 -607c-30 -79 -69 -112 -155 -112zM72 610l152 156h85l152 -156h-76l-120 107l-118 -107h-75z" />
    <glyph glyph-name="ygrave" unicode="&#x1ef3;" horiz-adv-x="530" 
d="M126 -167c-8 0 -38 0 -48 1v62h43c51 0 71 14 86 57l20 51l-216 548h80l176 -459l174 459h78l-238 -607c-30 -79 -69 -112 -155 -112zM276 610l-172 156h93l151 -156h-72z" />
    <glyph glyph-name="aringacute.alt" horiz-adv-x="642" 
d="M242 883l151 156h93l-172 -156h-72zM319 599c-84 0 -120 53 -120 123s36 124 120 124c80 0 119 -54 119 -124s-39 -123 -119 -123zM319 644c52 0 74 34 74 78s-22 78 -74 78c-54 0 -75 -34 -75 -78s21 -78 75 -78zM286 -9c-183 0 -237 114 -237 288c0 172 54 285 239 285
c120 0 179 -22 209 -74l15 71l54 -5v-553l-59 -5l-9 71c-35 -55 -90 -78 -212 -78zM300 60c137 0 190 55 190 219c0 162 -51 214 -190 214c-137 0 -174 -80 -174 -214c0 -136 37 -219 174 -219z" />
    <glyph glyph-name="gcircumflex.alt" horiz-adv-x="647" 
d="M128 610l152 156h85l152 -156h-76l-120 107l-118 -107h-75zM310 -179c-89 0 -180 18 -228 36l25 67c45 -16 126 -34 196 -34c177 0 192 57 192 160v21c-43 -55 -98 -74 -210 -74c-175 0 -236 111 -236 284s56 284 239 284c119 0 179 -21 214 -74l15 70l54 -5v-489
c0 -152 -19 -246 -261 -246zM300 66c138 0 195 54 195 214s-55 213 -195 213c-136 0 -174 -80 -174 -213c0 -132 37 -214 174 -214z" />
    <glyph glyph-name="gdotaccent.alt" horiz-adv-x="647" 
d="M310 -179c-89 0 -180 18 -228 36l25 67c45 -16 126 -34 196 -34c177 0 192 57 192 160v21c-43 -55 -98 -74 -210 -74c-175 0 -236 111 -236 284s56 284 239 284c119 0 179 -21 214 -74l15 70l54 -5v-489c0 -152 -19 -246 -261 -246zM300 66c138 0 195 54 195 214
s-55 213 -195 213c-136 0 -174 -80 -174 -213c0 -132 37 -214 174 -214zM282 609v107h76v-107h-76z" />
    <glyph glyph-name="ldot.alt" horiz-adv-x="488" 
d="M81 0v776h75v-776h-75zM311 274v113h100v-113h-100z" />
    <glyph glyph-name="ubreve.alt" horiz-adv-x="619" 
d="M273 -11c-176 0 -200 96 -200 233v330h75v-319c0 -101 11 -174 145 -174c147 0 173 81 173 186v307h76v-549l-58 -5l-9 65c-26 -40 -85 -74 -202 -74zM303 600c-132 0 -171 68 -187 148l58 12c12 -54 38 -97 129 -97c90 0 116 43 129 97l59 -11
c-18 -81 -57 -149 -188 -149z" />
    <glyph glyph-name="utilde.alt" horiz-adv-x="619" 
d="M273 -11c-176 0 -200 96 -200 233v330h75v-319c0 -101 11 -174 145 -174c147 0 173 81 173 186v307h76v-549l-58 -5l-9 65c-26 -40 -85 -74 -202 -74zM163 613l-48 37c33 41 78 74 122 74c68 0 89 -48 139 -48c26 0 53 25 78 54l46 -37c-34 -42 -77 -81 -123 -81
c-60 0 -90 49 -139 49c-24 0 -53 -19 -75 -48z" />
    <glyph glyph-name="tonos" unicode="&#x384;" horiz-adv-x="590" 
d="M244 610l67 155h75l-78 -155h-64z" />
    <glyph glyph-name="dieresistonos" unicode="&#x385;" horiz-adv-x="590" 
d="M141 609v99h55v-99h-55zM395 609v99h55v-99h-55zM243 609l62 154h65l-74 -154h-53z" />
    <glyph glyph-name="Alphatonos" unicode="&#x386;" horiz-adv-x="732" 
d="M63 588l67 155h75l-78 -155h-64zM30 0l297 746h79l297 -746h-80l-68 171h-380l-67 -171h-78zM202 243h325l-162 408z" />
    <glyph glyph-name="Epsilontonos" unicode="&#x388;" horiz-adv-x="822" 
d="M63 587l67 155h75l-78 -155h-64zM270 0v741h490v-75h-411v-245h401v-74h-401v-275h415v-72h-494z" />
    <glyph glyph-name="Etatonos" unicode="&#x389;" horiz-adv-x="960" 
d="M63 587l67 155h75l-78 -155h-64zM270 0v741h79v-316h445v316h78v-741h-78v348h-445v-348h-79z" />
    <glyph glyph-name="Iotatonos" unicode="&#x38a;" horiz-adv-x="446" 
d="M63 587l67 155h75l-78 -155h-64zM272 0v741h77v-741h-77z" />
    <glyph glyph-name="Omicrontonos" unicode="&#x38c;" horiz-adv-x="986" 
d="M63 587l67 155h75l-78 -155h-64zM567 -12c-237 0 -372 118 -372 383c0 264 135 382 372 382c238 0 374 -118 374 -382c0 -265 -136 -383 -374 -383zM567 61c202 0 295 108 295 309c0 200 -93 308 -295 308c-201 0 -293 -108 -293 -308c0 -201 92 -309 293 -309z" />
    <glyph glyph-name="Upsilontonos" unicode="&#x38e;" horiz-adv-x="938" 
d="M63 587l67 155h75l-78 -155h-64zM548 0v288l-298 453h86l252 -382l254 382h81l-297 -452v-289h-78z" />
    <glyph glyph-name="Omegatonos" unicode="&#x38f;" horiz-adv-x="996" 
d="M572 753c251 0 373 -136 373 -338c0 -166 -84 -273 -221 -305v-41h223v-69h-282v147c139 31 201 126 201 259c0 171 -99 275 -294 275c-196 0 -296 -104 -296 -275c0 -133 63 -228 202 -259v-147h-282v69h223v41c-137 32 -221 139 -221 305c0 202 122 338 374 338z
M63 587l67 155h75l-78 -155h-64z" />
    <glyph glyph-name="Alpha" unicode="&#x391;" horiz-adv-x="726" 
d="M25 0l297 746h79l297 -746h-80l-68 171h-380l-67 -171h-78zM197 243h325l-162 408z" />
    <glyph glyph-name="Beta" unicode="&#x392;" horiz-adv-x="703" 
d="M87 0v741h322c163 0 236 -60 236 -180c0 -85 -36 -151 -102 -171c81 -20 120 -81 120 -185c0 -150 -89 -205 -262 -205h-314zM164 71h245c120 0 175 41 175 141c0 94 -54 136 -177 136h-243v-277zM164 420h247c122 0 154 56 154 131c0 77 -44 118 -154 118h-247v-249z
" />
    <glyph glyph-name="Gamma" unicode="&#x393;" horiz-adv-x="600" 
d="M166 670v-670h-79v741h477v-71h-398z" />
    <glyph glyph-name="Epsilon" unicode="&#x395;" horiz-adv-x="639" 
d="M87 0v741h490v-75h-411v-245h401v-74h-401v-275h415v-72h-494z" />
    <glyph glyph-name="Zeta" unicode="&#x396;" horiz-adv-x="665" 
d="M45 0v63l464 603h-447v75h544v-68l-462 -601h473v-72h-572z" />
    <glyph glyph-name="Eta" unicode="&#x397;" horiz-adv-x="777" 
d="M87 0v741h79v-316h445v316h78v-741h-78v348h-445v-348h-79z" />
    <glyph glyph-name="Theta" unicode="&#x398;" horiz-adv-x="834" 
d="M272 336v69h282v-69h-282zM416 -12c-237 0 -372 118 -372 383c0 264 135 382 372 382c238 0 374 -118 374 -382c0 -265 -136 -383 -374 -383zM416 61c202 0 295 108 295 309c0 200 -93 308 -295 308c-201 0 -293 -108 -293 -308c0 -201 92 -309 293 -309z" />
    <glyph glyph-name="Iota" unicode="&#x399;" horiz-adv-x="267" 
d="M95 0v741h77v-741h-77z" />
    <glyph glyph-name="Kappa" unicode="&#x39a;" horiz-adv-x="704" 
d="M577 0l-265 393l-148 -162v-231h-77v741h77v-409l375 409h91l-266 -291l302 -450h-89z" />
    <glyph glyph-name="Lambda" unicode="&#x39b;" horiz-adv-x="723" 
d="M27 0l295 746h79l296 -746h-81l-253 647l-255 -647h-81z" />
    <glyph glyph-name="Mu" unicode="&#x39c;" horiz-adv-x="914" 
d="M87 0v741h102l268 -632l270 632h100v-741h-77v610l-261 -610h-66l-261 610v-610h-75z" />
    <glyph glyph-name="Nu" unicode="&#x39d;" horiz-adv-x="779" 
d="M87 0v741h86l443 -611v611h76v-741h-72l-457 629v-629h-76z" />
    <glyph glyph-name="Xi" unicode="&#x39e;" horiz-adv-x="661" 
d="M65 666v75h533v-75h-533zM131 351v74h400v-74h-400zM52 0v72h555v-72h-555z" />
    <glyph glyph-name="Omicron" unicode="&#x39f;" horiz-adv-x="834" 
d="M416 -12c-237 0 -372 118 -372 383c0 264 135 382 372 382c238 0 374 -118 374 -382c0 -265 -136 -383 -374 -383zM416 61c202 0 295 108 295 309c0 200 -93 308 -295 308c-201 0 -293 -108 -293 -308c0 -201 92 -309 293 -309z" />
    <glyph glyph-name="Pi" unicode="&#x3a0;" horiz-adv-x="706" 
d="M87 0v741h532v-741h-78v671h-377v-671h-77z" />
    <glyph glyph-name="Rho" unicode="&#x3a1;" horiz-adv-x="706" 
d="M87 0v741h325c172 0 250 -69 250 -221c0 -154 -77 -235 -251 -235h-247v-285h-77zM164 358h249c110 0 171 42 171 159c0 116 -59 151 -174 151h-246v-310z" />
    <glyph glyph-name="Sigma" unicode="&#x3a3;" horiz-adv-x="654" 
d="M45 0v60l276 315l-265 301v65h532v-75h-427l256 -291l-264 -301h452v-74h-560z" />
    <glyph glyph-name="Tau" unicode="&#x3a4;" horiz-adv-x="688" 
d="M305 0v666h-278v75h635v-75h-278v-666h-79z" />
    <glyph glyph-name="Upsilon" unicode="&#x3a5;" horiz-adv-x="700" 
d="M311 0v288l-298 453h86l252 -382l254 382h81l-297 -452v-289h-78z" />
    <glyph glyph-name="Phi" unicode="&#x3a6;" horiz-adv-x="892" 
d="M406 0v54c-233 10 -362 121 -362 317c0 195 129 306 362 316v54h79v-54c233 -10 363 -121 363 -316c0 -196 -129 -307 -363 -317v-54h-79zM769 369c0 138 -86 235 -284 246v-490c198 11 284 109 284 244zM122 369c0 -136 87 -233 284 -244v490
c-198 -12 -284 -108 -284 -246z" />
    <glyph glyph-name="Chi" unicode="&#x3a7;" horiz-adv-x="709" 
d="M582 0l-231 329l-225 -329h-86l271 387l-247 354h86l207 -296l203 296h87l-249 -354l272 -387h-88z" />
    <glyph glyph-name="Psi" unicode="&#x3a8;" horiz-adv-x="702" 
d="M312 0v278c-219 9 -245 98 -245 235v228h75v-229c0 -87 2 -156 170 -165v394h79v-394c168 9 169 79 169 169v225h75v-224c0 -139 -30 -229 -244 -239v-278h-79z" />
    <glyph glyph-name="Iotadieresis" unicode="&#x3aa;" horiz-adv-x="267" 
d="M-6 797v102h70v-102h-70zM205 797v102h69v-102h-69zM95 0v741h77v-741h-77z" />
    <glyph glyph-name="Upsilondieresis" unicode="&#x3ab;" horiz-adv-x="700" 
d="M209 797v102h70v-102h-70zM420 797v102h69v-102h-69zM311 0v288l-298 453h86l252 -382l254 382h81l-297 -452v-289h-78z" />
    <glyph glyph-name="alphatonos" unicode="&#x3ac;" horiz-adv-x="668" 
d="M271 610l67 155h75l-78 -155h-64zM566 556v-422c0 -59 4 -67 57 -67v-66c-5 -2 -15 -2 -30 -2c-64 0 -84 20 -95 70c-35 -55 -90 -78 -212 -78c-183 0 -237 114 -237 288c0 172 54 285 239 285c120 0 179 -22 209 -74l15 71zM300 60c137 0 190 55 190 219
c0 162 -51 214 -190 214c-137 0 -174 -80 -174 -214c0 -136 37 -219 174 -219z" />
    <glyph glyph-name="epsilontonos" unicode="&#x3ad;" horiz-adv-x="480" 
d="M214 610l67 155h75l-78 -155h-64zM245 -12c-141 0 -196 50 -196 168c0 81 24 127 100 144c-59 17 -84 55 -84 127c0 99 61 138 178 138c74 0 145 -18 199 -56l-38 -54c-44 27 -97 40 -153 40c-79 0 -113 -20 -113 -77c0 -58 24 -87 128 -87h74v-69h-74
c-124 0 -144 -37 -144 -100c0 -78 38 -104 129 -104c63 0 110 12 165 44l41 -53c-69 -47 -134 -61 -212 -61z" />
    <glyph glyph-name="etatonos" unicode="&#x3ae;" 
d="M280 610l67 155h75l-78 -155h-64zM76 0v548l60 4l7 -58c24 38 77 71 205 71c178 0 199 -92 199 -228v-502h-76v489c0 98 -9 166 -145 166c-147 0 -174 -76 -174 -180v-310h-76z" />
    <glyph glyph-name="iotatonos" unicode="&#x3af;" horiz-adv-x="238" 
d="M82 610l67 155h75l-78 -155h-64zM81 0v552h75v-552h-75z" />
    <glyph glyph-name="upsilontonos" unicode="&#x3cd;" horiz-adv-x="614" 
d="M270 610l67 155h75l-78 -155h-64zM309 -10c-214 0 -236 90 -236 237v325h75v-327c0 -91 0 -166 161 -166c160 0 158 75 158 170v323h74v-322c0 -150 -19 -240 -232 -240z" />
    <glyph glyph-name="alpha" unicode="&#x3b1;" horiz-adv-x="668" 
d="M566 556v-422c0 -59 4 -67 57 -67v-66c-5 -2 -15 -2 -30 -2c-64 0 -84 20 -95 70c-35 -55 -90 -78 -212 -78c-183 0 -237 114 -237 288c0 172 54 285 239 285c120 0 179 -22 209 -74l15 71zM300 60c137 0 190 55 190 219c0 162 -51 214 -190 214
c-137 0 -174 -80 -174 -214c0 -136 37 -219 174 -219z" />
    <glyph glyph-name="beta" unicode="&#x3b2;" horiz-adv-x="648" 
d="M76 -165v708c0 130 60 236 248 236c159 0 230 -63 230 -192c0 -100 -41 -154 -108 -177c111 -20 165 -78 165 -196c0 -132 -45 -214 -281 -214h-65v69h63c182 0 208 65 208 149c0 100 -50 148 -219 148v64c106 0 162 44 162 140c0 90 -45 133 -156 133
c-121 0 -172 -63 -172 -163v-705h-75z" />
    <glyph glyph-name="gamma" unicode="&#x3b3;" horiz-adv-x="543" 
d="M231 -5l-220 557h80l181 -467l182 467h78l-220 -557h-2v-161h-78v161h-1z" />
    <glyph glyph-name="delta" unicode="&#x3b4;" horiz-adv-x="631" 
d="M315 -11c-191 0 -266 98 -266 276c0 177 75 276 266 276c10 0 21 0 31 -1l-218 181v55h376v-65h-268l254 -215c64 -45 92 -122 92 -231c0 -178 -76 -276 -267 -276zM315 58c139 0 190 74 190 205c0 135 -51 209 -190 209s-190 -74 -190 -209c0 -131 51 -205 190 -205z
" />
    <glyph glyph-name="epsilon" unicode="&#x3b5;" horiz-adv-x="485" 
d="M245 -12c-141 0 -196 50 -196 168c0 81 24 127 100 144c-59 17 -84 55 -84 127c0 99 61 138 178 138c74 0 145 -18 199 -56l-38 -54c-44 27 -97 40 -153 40c-79 0 -113 -20 -113 -77c0 -58 24 -87 128 -87h74v-69h-74c-124 0 -144 -37 -144 -100c0 -78 38 -104 129 -104
c63 0 110 12 165 44l41 -53c-69 -47 -134 -61 -212 -61z" />
    <glyph glyph-name="zeta" unicode="&#x3b6;" horiz-adv-x="502" 
d="M300 -148c-49 0 -85 11 -116 29l23 42c27 -14 58 -23 91 -23c67 0 78 26 78 52c0 33 -15 44 -93 53c-176 13 -234 101 -234 232c0 149 74 272 314 474h-313v65h410v-58c-287 -238 -335 -352 -335 -474c0 -96 42 -163 170 -177c106 -11 138 -44 138 -105
c0 -68 -29 -110 -133 -110z" />
    <glyph glyph-name="eta" unicode="&#x3b7;" 
d="M76 0v548l60 4l7 -58c24 38 77 71 205 71c178 0 199 -92 199 -228v-502h-76v489c0 98 -9 166 -145 166c-147 0 -174 -76 -174 -180v-310h-76z" />
    <glyph glyph-name="theta" unicode="&#x3b8;" horiz-adv-x="729" 
d="M365 -11c-233 0 -285 174 -285 396c0 223 52 394 285 394c230 0 284 -171 284 -394c0 -222 -54 -396 -284 -396zM365 707c-167 0 -203 -126 -207 -288h413c-4 162 -41 288 -206 288zM365 59c164 0 202 126 206 288h-413c5 -162 42 -288 207 -288z" />
    <glyph glyph-name="iota" unicode="&#x3b9;" horiz-adv-x="238" 
d="M81 0v552h75v-552h-75z" />
    <glyph glyph-name="kappa" unicode="&#x3ba;" horiz-adv-x="542" 
d="M76 0v552h75v-304l266 304h84l-200 -231l221 -321h-84l-187 266l-100 -113v-153h-75z" />
    <glyph glyph-name="lambda" unicode="&#x3bb;" horiz-adv-x="540" 
d="M127 777c86 0 128 -34 158 -112l243 -665h-80l-173 483l-187 -483h-76l228 573l-31 84c-17 42 -36 59 -87 59h-43v59c10 1 40 2 48 2z" />
    <glyph glyph-name="uni03BC" unicode="&#x3bc;" horiz-adv-x="622" 
d="M276 -11c-58 0 -100 10 -129 29v-183h-71v717h75v-319c0 -101 11 -174 145 -174c147 0 173 81 173 186v307h76v-549l-58 -5l-9 65c-26 -40 -85 -74 -202 -74z" />
    <glyph glyph-name="nu" unicode="&#x3bd;" horiz-adv-x="543" 
d="M231 -5l-220 557h80l181 -467l182 467h78l-220 -557h-81z" />
    <glyph glyph-name="xi" unicode="&#x3be;" horiz-adv-x="502" 
d="M300 -148c-49 0 -85 11 -116 29l23 42c27 -14 58 -23 91 -23c67 0 78 26 78 52c0 30 -16 45 -93 53c-170 10 -234 89 -234 220c0 116 60 180 174 200c-75 17 -119 61 -119 148c0 62 30 117 82 138h-136v65h410v-65h-135c-91 0 -147 -40 -147 -130c0 -77 33 -126 172 -132
v-56c-13 0 -34 -1 -45 -2c-141 -8 -181 -64 -181 -154c0 -108 55 -158 171 -170c107 -10 138 -44 138 -105c0 -68 -29 -110 -133 -110z" />
    <glyph glyph-name="omicron" unicode="&#x3bf;" horiz-adv-x="631" 
d="M315 -11c-191 0 -266 98 -266 288s75 288 266 288s267 -98 267 -288s-76 -288 -267 -288zM315 58c139 0 190 76 190 217c0 142 -51 218 -190 218s-190 -76 -190 -218c0 -141 51 -217 190 -217z" />
    <glyph glyph-name="rho" unicode="&#x3c1;" horiz-adv-x="647" 
d="M347 60c136 0 174 80 174 215s-36 218 -174 218c-139 0 -195 -54 -195 -218c0 -163 54 -215 195 -215zM342 565c209 0 256 -114 256 -288c0 -172 -53 -286 -239 -286c-120 0 -178 23 -207 74v-230h-76v442c0 190 75 288 266 288z" />
    <glyph glyph-name="sigma1" unicode="&#x3c2;" horiz-adv-x="563" 
d="M329 -148c-49 0 -85 11 -116 29l23 42c27 -14 58 -23 91 -23c67 0 78 26 78 52c0 37 -19 45 -92 45c-206 0 -264 99 -264 279c0 182 58 289 266 289c99 0 160 -37 199 -79l-55 -52c-26 27 -70 58 -144 58c-142 0 -190 -72 -190 -217c0 -144 43 -211 192 -214
c81 -5 145 -14 145 -99c0 -68 -29 -110 -133 -110z" />
    <glyph glyph-name="sigma" unicode="&#x3c3;" horiz-adv-x="643" 
d="M315 -11c-191 0 -266 98 -266 288s75 288 266 288c50 0 92 -7 127 -20h187v-67h-98c35 -48 51 -115 51 -201c0 -190 -76 -288 -267 -288zM315 58c139 0 190 76 190 217c0 142 -51 218 -190 218s-190 -76 -190 -218c0 -141 51 -217 190 -217z" />
    <glyph glyph-name="tau" unicode="&#x3c4;" horiz-adv-x="512" 
d="M10 483v69h492v-69h-208v-483h-76v483h-208z" />
    <glyph glyph-name="upsilon" unicode="&#x3c5;" horiz-adv-x="614" 
d="M309 -10c-214 0 -236 90 -236 237v325h75v-327c0 -91 0 -166 161 -166c160 0 158 75 158 170v323h74v-322c0 -150 -19 -240 -232 -240z" />
    <glyph glyph-name="phi" unicode="&#x3c6;" horiz-adv-x="719" 
d="M49 276c0 123 32 195 92 235l33 -64c-31 -31 -49 -84 -49 -172c0 -142 47 -212 194 -217v506h63c212 0 288 -95 288 -288c0 -186 -73 -282 -272 -287v-154h-79v154c-199 5 -270 101 -270 287zM594 275c0 142 -48 212 -196 217v-434c148 4 196 75 196 217z" />
    <glyph glyph-name="chi" unicode="&#x3c7;" horiz-adv-x="541" 
d="M436 0l-169 234l-165 -234h-82l208 288l-190 264h83l152 -210l149 210h82l-192 -265l209 -287h-85z" />
    <glyph glyph-name="psi" unicode="&#x3c8;" horiz-adv-x="720" 
d="M322 -165v154c-229 4 -249 94 -249 236v326h75v-327c0 -88 -1 -162 174 -165v492h78v-492c175 3 173 77 173 168v324h75v-322c0 -145 -22 -236 -248 -240v-154h-78z" />
    <glyph glyph-name="omega" unicode="&#x3c9;" horiz-adv-x="880" 
d="M477 519v-275c0 -153 57 -186 133 -186c95 0 135 52 135 176c0 79 -14 153 -94 288l61 37c88 -144 107 -235 107 -334c0 -166 -73 -236 -201 -236c-102 0 -156 44 -178 141c-22 -97 -76 -141 -177 -141c-129 0 -202 70 -202 236c0 99 19 190 107 334l61 -37
c-80 -135 -94 -209 -94 -288c0 -124 41 -176 135 -176c77 0 133 34 133 186v275h74z" />
    <glyph glyph-name="iotadieresis" unicode="&#x3ca;" horiz-adv-x="238" 
d="M-21 612v102h70v-102h-70zM190 612v102h69v-102h-69zM81 0v552h75v-552h-75z" />
    <glyph glyph-name="iotadieresistonos" unicode="&#x390;" horiz-adv-x="235" 
d="M-36 609v99h55v-99h-55zM218 609v99h55v-99h-55zM66 609l62 154h65l-74 -154h-53zM81 0v552h75v-552h-75z" />
    <glyph glyph-name="upsilondieresis" unicode="&#x3cb;" horiz-adv-x="614" 
d="M166 612v102h70v-102h-70zM377 612v102h69v-102h-69zM309 -10c-214 0 -236 90 -236 237v325h75v-327c0 -91 0 -166 161 -166c160 0 158 75 158 170v323h74v-322c0 -150 -19 -240 -232 -240z" />
    <glyph glyph-name="upsilondieresistonos" unicode="&#x3b0;" horiz-adv-x="612" 
d="M151 609v99h55v-99h-55zM405 609v99h55v-99h-55zM253 609l62 154h65l-74 -154h-53zM309 -10c-214 0 -236 90 -236 237v325h75v-327c0 -91 0 -166 161 -166c160 0 158 75 158 170v323h74v-322c0 -150 -19 -240 -232 -240z" />
    <glyph glyph-name="omegatonos" unicode="&#x3ce;" horiz-adv-x="867" 
d="M416 610l67 155h75l-78 -155h-64zM481 519v-275c0 -153 57 -186 133 -186c95 0 135 52 135 176c0 79 -14 153 -94 288l61 37c88 -144 107 -235 107 -334c0 -166 -73 -236 -201 -236c-102 0 -156 44 -178 141c-22 -97 -76 -141 -177 -141c-129 0 -202 70 -202 236
c0 99 19 190 107 334l61 -37c-80 -135 -94 -209 -94 -288c0 -124 41 -176 135 -176c77 0 133 34 133 186v275h74z" />
    <glyph glyph-name="omicrontonos" unicode="&#x3cc;" horiz-adv-x="631" 
d="M283 610l67 155h75l-78 -155h-64zM315 -11c-191 0 -266 98 -266 288s75 288 266 288s267 -98 267 -288s-76 -288 -267 -288zM315 58c139 0 190 76 190 217c0 142 -51 218 -190 218s-190 -76 -190 -218c0 -141 51 -217 190 -217z" />
    <glyph glyph-name="longs" unicode="&#x17f;" horiz-adv-x="384" 
d="M135 0v611c0 101 34 172 164 172c14 0 54 0 60 -1v-64h-52c-78 0 -97 -46 -97 -106v-612h-75z" />
    <glyph glyph-name="litre" unicode="&#x2113;" horiz-adv-x="538" 
d="M246 333v-177c0 -74 21 -100 77 -100c59 0 84 33 103 55l31 -41c-25 -29 -65 -80 -155 -80c-88 0 -131 37 -131 159v110l-67 -65l-30 46l97 93v227c0 122 45 182 129 182c77 0 110 -52 110 -129c0 -87 -43 -160 -125 -242zM246 405l15 15c68 65 96 125 96 191
c0 56 -16 77 -50 77c-38 0 -61 -26 -61 -128v-155z" />
    <glyph glyph-name="estimated" unicode="&#x212e;" horiz-adv-x="656" 
d="M621 289h-441c0 -97 0 -143 21 -178c29 -48 84 -78 158 -78c92 0 164 39 205 94h12l26 -31c-55 -68 -147 -108 -247 -108c-196 0 -298 128 -298 305c0 170 105 301 291 301c187 0 273 -159 273 -268v-37zM180 328h308c-5 153 2 227 -154 227c-138 0 -160 -56 -154 -227z
" />
    <glyph glyph-name="uni1EA0" unicode="&#x1ea0;" horiz-adv-x="726" 
d="M25 0l297 746h79l297 -746h-80l-68 171h-380l-67 -171h-78zM197 243h325l-162 408zM324 -176v107h76v-107h-76z" />
    <glyph glyph-name="uni1EA1" unicode="&#x1ea1;" 
d="M238 -10c-155 0 -194 71 -194 164c0 157 88 204 368 204h33c-2 94 -22 136 -149 136c-70 0 -130 -25 -165 -48l-40 59c36 25 119 60 211 60c186 0 216 -65 216 -223v-208c0 -59 4 -67 57 -67v-66c-5 -2 -15 -2 -30 -2c-64 0 -81 20 -90 69c-34 -52 -93 -78 -217 -78z
M249 55c139 0 196 60 196 194v40h-29c-240 0 -299 -26 -299 -130c0 -66 30 -104 132 -104zM269 -176v107h76v-107h-76z" />
    <glyph glyph-name="uni1EA2" unicode="&#x1ea2;" horiz-adv-x="726" 
d="M25 0l297 746h79l297 -746h-80l-68 171h-380l-67 -171h-78zM197 243h325l-162 408zM334 771c-6 49 2 73 45 100c36 22 47 30 47 53c0 22 -13 38 -65 38c-32 0 -59 -7 -85 -20l-23 48c29 15 70 23 111 23c93 0 123 -36 123 -82c0 -43 -22 -64 -59 -86
c-35 -22 -41 -31 -39 -74h-55z" />
    <glyph glyph-name="uni1EA3" unicode="&#x1ea3;" 
d="M238 -10c-155 0 -194 71 -194 164c0 157 88 204 368 204h33c-2 94 -22 136 -149 136c-70 0 -130 -25 -165 -48l-40 59c36 25 119 60 211 60c186 0 216 -65 216 -223v-208c0 -59 4 -67 57 -67v-66c-5 -2 -15 -2 -30 -2c-64 0 -81 20 -90 69c-34 -52 -93 -78 -217 -78z
M249 55c139 0 196 60 196 194v40h-29c-240 0 -299 -26 -299 -130c0 -66 30 -104 132 -104zM275 598c-6 49 2 73 45 100c36 22 47 30 47 53c0 22 -13 38 -65 38c-32 0 -59 -7 -85 -20l-23 48c29 15 70 23 111 23c93 0 123 -36 123 -82c0 -43 -22 -64 -59 -86
c-35 -22 -41 -31 -39 -74h-55z" />
    <glyph glyph-name="uni1EA4" unicode="&#x1ea4;" horiz-adv-x="726" 
d="M25 0l297 746h79l297 -746h-80l-68 171h-380l-67 -171h-78zM197 243h325l-162 408zM167 785l152 156h85l152 -156h-76l-120 107l-118 -107h-75zM64 865l151 156h93l-172 -156h-72z" />
    <glyph glyph-name="uni1EA5" unicode="&#x1ea5;" 
d="M238 -10c-155 0 -194 71 -194 164c0 157 88 204 368 204h33c-2 94 -22 136 -149 136c-70 0 -130 -25 -165 -48l-40 59c36 25 119 60 211 60c186 0 216 -65 216 -223v-208c0 -59 4 -67 57 -67v-66c-5 -2 -15 -2 -30 -2c-64 0 -81 20 -90 69c-34 -52 -93 -78 -217 -78z
M249 55c139 0 196 60 196 194v40h-29c-240 0 -299 -26 -299 -130c0 -66 30 -104 132 -104zM117 610l152 156h85l152 -156h-76l-120 107l-118 -107h-75zM14 690l151 156h93l-172 -156h-72z" />
    <glyph glyph-name="uni1EA6" unicode="&#x1ea6;" horiz-adv-x="726" 
d="M25 0l297 746h79l297 -746h-80l-68 171h-380l-67 -171h-78zM197 243h325l-162 408zM168 785l152 156h85l152 -156h-76l-120 107l-118 -107h-75zM590 865l-172 156h93l151 -156h-72z" />
    <glyph glyph-name="uni1EA7" unicode="&#x1ea7;" 
d="M238 -10c-155 0 -194 71 -194 164c0 157 88 204 368 204h33c-2 94 -22 136 -149 136c-70 0 -130 -25 -165 -48l-40 59c36 25 119 60 211 60c186 0 216 -65 216 -223v-208c0 -59 4 -67 57 -67v-66c-5 -2 -15 -2 -30 -2c-64 0 -81 20 -90 69c-34 -52 -93 -78 -217 -78z
M249 55c139 0 196 60 196 194v40h-29c-240 0 -299 -26 -299 -130c0 -66 30 -104 132 -104zM117 610l152 156h85l152 -156h-76l-120 107l-118 -107h-75zM539 690l-172 156h93l151 -156h-72z" />
    <glyph glyph-name="uni1EA8" unicode="&#x1ea8;" horiz-adv-x="726" 
d="M25 0l297 746h79l297 -746h-80l-68 171h-380l-67 -171h-78zM197 243h325l-162 408zM166 785l152 156h85l152 -156h-76l-120 107l-118 -107h-75zM333 967c-6 49 2 73 45 100c36 22 47 30 47 53c0 22 -13 38 -65 38c-32 0 -59 -7 -85 -20l-23 48c29 15 70 23 111 23
c93 0 123 -36 123 -82c0 -43 -22 -64 -59 -86c-35 -22 -41 -31 -39 -74h-55z" />
    <glyph glyph-name="uni1EA9" unicode="&#x1ea9;" 
d="M238 -10c-155 0 -194 71 -194 164c0 157 88 204 368 204h33c-2 94 -22 136 -149 136c-70 0 -130 -25 -165 -48l-40 59c36 25 119 60 211 60c186 0 216 -65 216 -223v-208c0 -59 4 -67 57 -67v-66c-5 -2 -15 -2 -30 -2c-64 0 -81 20 -90 69c-34 -52 -93 -78 -217 -78z
M249 55c139 0 196 60 196 194v40h-29c-240 0 -299 -26 -299 -130c0 -66 30 -104 132 -104zM115 610l152 156h85l152 -156h-76l-120 107l-118 -107h-75zM282 792c-6 49 2 73 45 100c36 22 47 30 47 53c0 22 -13 38 -65 38c-32 0 -59 -7 -85 -20l-23 48c29 15 70 23 111 23
c93 0 123 -36 123 -82c0 -43 -22 -64 -59 -86c-35 -22 -41 -31 -39 -74h-55z" />
    <glyph glyph-name="uni1EAA" unicode="&#x1eaa;" horiz-adv-x="726" 
d="M25 0l297 746h79l297 -746h-80l-68 171h-380l-67 -171h-78zM197 243h325l-162 408zM166 785l152 156h85l152 -156h-76l-120 107l-118 -107h-75zM222 970l-48 37c33 41 78 74 122 74c68 0 89 -48 139 -48c26 0 53 25 78 54l46 -37c-34 -42 -77 -81 -123 -81
c-60 0 -90 49 -139 49c-24 0 -53 -19 -75 -48z" />
    <glyph glyph-name="uni1EAB" unicode="&#x1eab;" 
d="M238 -10c-155 0 -194 71 -194 164c0 157 88 204 368 204h33c-2 94 -22 136 -149 136c-70 0 -130 -25 -165 -48l-40 59c36 25 119 60 211 60c186 0 216 -65 216 -223v-208c0 -59 4 -67 57 -67v-66c-5 -2 -15 -2 -30 -2c-64 0 -81 20 -90 69c-34 -52 -93 -78 -217 -78z
M249 55c139 0 196 60 196 194v40h-29c-240 0 -299 -26 -299 -130c0 -66 30 -104 132 -104zM116 610l152 156h85l152 -156h-76l-120 107l-118 -107h-75zM172 795l-48 37c33 41 78 74 122 74c68 0 89 -48 139 -48c26 0 53 25 78 54l46 -37c-34 -42 -77 -81 -123 -81
c-60 0 -90 49 -139 49c-24 0 -53 -19 -75 -48z" />
    <glyph glyph-name="uni1EAC" unicode="&#x1eac;" horiz-adv-x="726" 
d="M25 0l297 746h79l297 -746h-80l-68 171h-380l-67 -171h-78zM197 243h325l-162 408zM166 785l152 156h85l152 -156h-76l-120 107l-118 -107h-75zM324 -176v107h76v-107h-76z" />
    <glyph glyph-name="uni1EAD" unicode="&#x1ead;" 
d="M238 -10c-155 0 -194 71 -194 164c0 157 88 204 368 204h33c-2 94 -22 136 -149 136c-70 0 -130 -25 -165 -48l-40 59c36 25 119 60 211 60c186 0 216 -65 216 -223v-208c0 -59 4 -67 57 -67v-66c-5 -2 -15 -2 -30 -2c-64 0 -81 20 -90 69c-34 -52 -93 -78 -217 -78z
M249 55c139 0 196 60 196 194v40h-29c-240 0 -299 -26 -299 -130c0 -66 30 -104 132 -104zM116 610l152 156h85l152 -156h-76l-120 107l-118 -107h-75zM269 -176v107h76v-107h-76z" />
    <glyph glyph-name="uni1EAE" unicode="&#x1eae;" horiz-adv-x="726" 
d="M25 0l297 746h79l297 -746h-80l-68 171h-380l-67 -171h-78zM197 243h325l-162 408zM361 775c-132 0 -171 68 -187 148l58 12c12 -54 38 -97 129 -97c90 0 116 43 129 97l59 -11c-18 -81 -57 -149 -188 -149zM318 965l151 156h93l-172 -156h-72z" />
    <glyph glyph-name="uni1EAF" unicode="&#x1eaf;" 
d="M238 -10c-155 0 -194 71 -194 164c0 157 88 204 368 204h33c-2 94 -22 136 -149 136c-70 0 -130 -25 -165 -48l-40 59c36 25 119 60 211 60c186 0 216 -65 216 -223v-208c0 -59 4 -67 57 -67v-66c-5 -2 -15 -2 -30 -2c-64 0 -81 20 -90 69c-34 -52 -93 -78 -217 -78z
M249 55c139 0 196 60 196 194v40h-29c-240 0 -299 -26 -299 -130c0 -66 30 -104 132 -104zM311 600c-132 0 -171 68 -187 148l58 12c12 -54 38 -97 129 -97c90 0 116 43 129 97l59 -11c-18 -81 -57 -149 -188 -149zM268 790l151 156h93l-172 -156h-72z" />
    <glyph glyph-name="uni1EB0" unicode="&#x1eb0;" horiz-adv-x="726" 
d="M25 0l297 746h79l297 -746h-80l-68 171h-380l-67 -171h-78zM197 243h325l-162 408zM361 775c-132 0 -171 68 -187 148l58 12c12 -54 38 -97 129 -97c90 0 116 43 129 97l59 -11c-18 -81 -57 -149 -188 -149zM335 965l-172 156h93l151 -156h-72z" />
    <glyph glyph-name="uni1EB1" unicode="&#x1eb1;" 
d="M238 -10c-155 0 -194 71 -194 164c0 157 88 204 368 204h33c-2 94 -22 136 -149 136c-70 0 -130 -25 -165 -48l-40 59c36 25 119 60 211 60c186 0 216 -65 216 -223v-208c0 -59 4 -67 57 -67v-66c-5 -2 -15 -2 -30 -2c-64 0 -81 20 -90 69c-34 -52 -93 -78 -217 -78z
M249 55c139 0 196 60 196 194v40h-29c-240 0 -299 -26 -299 -130c0 -66 30 -104 132 -104zM311 600c-132 0 -171 68 -187 148l58 12c12 -54 38 -97 129 -97c90 0 116 43 129 97l59 -11c-18 -81 -57 -149 -188 -149zM285 790l-172 156h93l151 -156h-72z" />
    <glyph glyph-name="uni1EB2" unicode="&#x1eb2;" horiz-adv-x="726" 
d="M25 0l297 746h79l297 -746h-80l-68 171h-380l-67 -171h-78zM197 243h325l-162 408zM361 775c-132 0 -171 68 -187 148l58 12c12 -54 38 -97 129 -97c90 0 116 43 129 97l59 -11c-18 -81 -57 -149 -188 -149zM333 948c-6 49 2 73 45 100c36 22 47 30 47 53
c0 22 -13 38 -65 38c-32 0 -59 -7 -85 -20l-23 48c29 15 70 23 111 23c93 0 123 -36 123 -82c0 -43 -22 -64 -59 -86c-35 -22 -41 -31 -39 -74h-55z" />
    <glyph glyph-name="uni1EB3" unicode="&#x1eb3;" 
d="M238 -10c-155 0 -194 71 -194 164c0 157 88 204 368 204h33c-2 94 -22 136 -149 136c-70 0 -130 -25 -165 -48l-40 59c36 25 119 60 211 60c186 0 216 -65 216 -223v-208c0 -59 4 -67 57 -67v-66c-5 -2 -15 -2 -30 -2c-64 0 -81 20 -90 69c-34 -52 -93 -78 -217 -78z
M249 55c139 0 196 60 196 194v40h-29c-240 0 -299 -26 -299 -130c0 -66 30 -104 132 -104zM311 600c-132 0 -171 68 -187 148l58 12c12 -54 38 -97 129 -97c90 0 116 43 129 97l59 -11c-18 -81 -57 -149 -188 -149zM283 773c-6 49 2 73 45 100c36 22 47 30 47 53
c0 22 -13 38 -65 38c-32 0 -59 -7 -85 -20l-23 48c29 15 70 23 111 23c93 0 123 -36 123 -82c0 -43 -22 -64 -59 -86c-35 -22 -41 -31 -39 -74h-55z" />
    <glyph glyph-name="uni1EB4" unicode="&#x1eb4;" horiz-adv-x="726" 
d="M25 0l297 746h79l297 -746h-80l-68 171h-380l-67 -171h-78zM197 243h325l-162 408zM361 775c-132 0 -171 68 -187 148l58 12c12 -54 38 -97 129 -97c90 0 116 43 129 97l59 -11c-18 -81 -57 -149 -188 -149zM222 978l-48 37c33 41 78 74 122 74c68 0 89 -48 139 -48
c26 0 53 25 78 54l46 -37c-34 -42 -77 -81 -123 -81c-60 0 -90 49 -139 49c-24 0 -53 -19 -75 -48z" />
    <glyph glyph-name="uni1EB5" unicode="&#x1eb5;" 
d="M238 -10c-155 0 -194 71 -194 164c0 157 88 204 368 204h33c-2 94 -22 136 -149 136c-70 0 -130 -25 -165 -48l-40 59c36 25 119 60 211 60c186 0 216 -65 216 -223v-208c0 -59 4 -67 57 -67v-66c-5 -2 -15 -2 -30 -2c-64 0 -81 20 -90 69c-34 -52 -93 -78 -217 -78z
M249 55c139 0 196 60 196 194v40h-29c-240 0 -299 -26 -299 -130c0 -66 30 -104 132 -104zM311 600c-132 0 -171 68 -187 148l58 12c12 -54 38 -97 129 -97c90 0 116 43 129 97l59 -11c-18 -81 -57 -149 -188 -149zM172 803l-48 37c33 41 78 74 122 74c68 0 89 -48 139 -48
c26 0 53 25 78 54l46 -37c-34 -42 -77 -81 -123 -81c-60 0 -90 49 -139 49c-24 0 -53 -19 -75 -48z" />
    <glyph glyph-name="uni1EB6" unicode="&#x1eb6;" horiz-adv-x="726" 
d="M25 0l297 746h79l297 -746h-80l-68 171h-380l-67 -171h-78zM197 243h325l-162 408zM324 -176v107h76v-107h-76zM361 775c-132 0 -171 68 -187 148l58 12c12 -54 38 -97 129 -97c90 0 116 43 129 97l59 -11c-18 -81 -57 -149 -188 -149z" />
    <glyph glyph-name="uni1EB7" unicode="&#x1eb7;" 
d="M238 -10c-155 0 -194 71 -194 164c0 157 88 204 368 204h33c-2 94 -22 136 -149 136c-70 0 -130 -25 -165 -48l-40 59c36 25 119 60 211 60c186 0 216 -65 216 -223v-208c0 -59 4 -67 57 -67v-66c-5 -2 -15 -2 -30 -2c-64 0 -81 20 -90 69c-34 -52 -93 -78 -217 -78z
M249 55c139 0 196 60 196 194v40h-29c-240 0 -299 -26 -299 -130c0 -66 30 -104 132 -104zM269 -176v107h76v-107h-76zM311 600c-132 0 -171 68 -187 148l58 12c12 -54 38 -97 129 -97c90 0 116 43 129 97l59 -11c-18 -81 -57 -149 -188 -149z" />
    <glyph glyph-name="uni1EB8" unicode="&#x1eb8;" horiz-adv-x="639" 
d="M87 0v741h490v-75h-411v-245h401v-74h-401v-275h415v-72h-494zM300 -176v107h76v-107h-76z" />
    <glyph glyph-name="uni1EB9" unicode="&#x1eb9;" horiz-adv-x="593" 
d="M314 -11c-222 0 -265 127 -265 288c0 160 48 288 262 288c222 0 229 -153 227 -314h-416c4 -116 38 -196 192 -196c91 0 134 24 178 56l41 -53c-55 -42 -117 -69 -219 -69zM309 497c-139 0 -178 -71 -186 -177h343c-5 98 -12 177 -157 177zM270 -176v107h76v-107h-76z
" />
    <glyph glyph-name="uni1EBA" unicode="&#x1eba;" horiz-adv-x="639" 
d="M87 0v741h490v-75h-411v-245h401v-74h-401v-275h415v-72h-494zM309 771c-6 49 2 73 45 100c36 22 47 30 47 53c0 22 -13 38 -65 38c-32 0 -59 -7 -85 -20l-23 48c29 15 70 23 111 23c93 0 123 -36 123 -82c0 -43 -22 -64 -59 -86c-35 -22 -41 -31 -39 -74h-55z" />
    <glyph glyph-name="uni1EBB" unicode="&#x1ebb;" horiz-adv-x="593" 
d="M314 -11c-222 0 -265 127 -265 288c0 160 48 288 262 288c222 0 229 -153 227 -314h-416c4 -116 38 -196 192 -196c91 0 134 24 178 56l41 -53c-55 -42 -117 -69 -219 -69zM309 497c-139 0 -178 -71 -186 -177h343c-5 98 -12 177 -157 177zM272 598c-6 49 2 73 45 100
c36 22 47 30 47 53c0 22 -13 38 -65 38c-32 0 -59 -7 -85 -20l-23 48c29 15 70 23 111 23c93 0 123 -36 123 -82c0 -43 -22 -64 -59 -86c-35 -22 -41 -31 -39 -74h-55z" />
    <glyph glyph-name="uni1EBC" unicode="&#x1ebc;" horiz-adv-x="639" 
d="M87 0v741h490v-75h-411v-245h401v-74h-401v-275h415v-72h-494zM185 794l-48 37c33 41 78 74 122 74c68 0 89 -48 139 -48c26 0 53 25 78 54l46 -37c-34 -42 -77 -81 -123 -81c-60 0 -90 49 -139 49c-24 0 -53 -19 -75 -48z" />
    <glyph glyph-name="uni1EBD" unicode="&#x1ebd;" horiz-adv-x="593" 
d="M314 -11c-222 0 -265 127 -265 288c0 160 48 288 262 288c222 0 229 -153 227 -314h-416c4 -116 38 -196 192 -196c91 0 134 24 178 56l41 -53c-55 -42 -117 -69 -219 -69zM309 497c-139 0 -178 -71 -186 -177h343c-5 98 -12 177 -157 177zM150 614l-48 37
c33 41 78 74 122 74c68 0 89 -48 139 -48c26 0 53 25 78 54l46 -37c-34 -42 -77 -81 -123 -81c-60 0 -90 49 -139 49c-24 0 -53 -19 -75 -48z" />
    <glyph glyph-name="uni1EBE" unicode="&#x1ebe;" horiz-adv-x="639" 
d="M124 785l152 156h85l152 -156h-76l-120 107l-118 -107h-75zM21 865l151 156h93l-172 -156h-72zM87 0v741h490v-75h-411v-245h401v-74h-401v-275h415v-72h-494z" />
    <glyph glyph-name="uni1EBF" unicode="&#x1ebf;" horiz-adv-x="593" 
d="M102 610l152 156h85l152 -156h-76l-120 107l-118 -107h-75zM-1 690l151 156h93l-172 -156h-72zM314 -11c-222 0 -265 127 -265 288c0 160 48 288 262 288c222 0 229 -153 227 -314h-416c4 -116 38 -196 192 -196c91 0 134 24 178 56l41 -53c-55 -42 -117 -69 -219 -69z
M309 497c-139 0 -178 -71 -186 -177h343c-5 98 -12 177 -157 177z" />
    <glyph glyph-name="uni1EC0" unicode="&#x1ec0;" horiz-adv-x="639" 
d="M124 785l152 156h85l152 -156h-76l-120 107l-118 -107h-75zM546 865l-172 156h93l151 -156h-72zM87 0v741h490v-75h-411v-245h401v-74h-401v-275h415v-72h-494z" />
    <glyph glyph-name="uni1EC1" unicode="&#x1ec1;" horiz-adv-x="593" 
d="M102 610l152 156h85l152 -156h-76l-120 107l-118 -107h-75zM524 690l-172 156h93l151 -156h-72zM314 -11c-222 0 -265 127 -265 288c0 160 48 288 262 288c222 0 229 -153 227 -314h-416c4 -116 38 -196 192 -196c91 0 134 24 178 56l41 -53c-55 -42 -117 -69 -219 -69z
M309 497c-139 0 -178 -71 -186 -177h343c-5 98 -12 177 -157 177z" />
    <glyph glyph-name="uni1EC2" unicode="&#x1ec2;" horiz-adv-x="639" 
d="M87 0v741h490v-75h-411v-245h401v-74h-401v-275h415v-72h-494zM125 785l152 156h85l152 -156h-76l-120 107l-118 -107h-75zM292 967c-6 49 2 73 45 100c36 22 47 30 47 53c0 22 -13 38 -65 38c-32 0 -59 -7 -85 -20l-23 48c29 15 70 23 111 23c93 0 123 -36 123 -82
c0 -43 -22 -64 -59 -86c-35 -22 -41 -31 -39 -74h-55z" />
    <glyph glyph-name="uni1EC3" unicode="&#x1ec3;" horiz-adv-x="593" 
d="M314 -11c-222 0 -265 127 -265 288c0 160 48 288 262 288c222 0 229 -153 227 -314h-416c4 -116 38 -196 192 -196c91 0 134 24 178 56l41 -53c-55 -42 -117 -69 -219 -69zM309 497c-139 0 -178 -71 -186 -177h343c-5 98 -12 177 -157 177zM100 610l152 156h85l152 -156
h-76l-120 107l-118 -107h-75zM267 792c-6 49 2 73 45 100c36 22 47 30 47 53c0 22 -13 38 -65 38c-32 0 -59 -7 -85 -20l-23 48c29 15 70 23 111 23c93 0 123 -36 123 -82c0 -43 -22 -64 -59 -86c-35 -22 -41 -31 -39 -74h-55z" />
    <glyph glyph-name="uni1EC4" unicode="&#x1ec4;" horiz-adv-x="639" 
d="M87 0v741h490v-75h-411v-245h401v-74h-401v-275h415v-72h-494zM123 785l152 156h85l152 -156h-76l-120 107l-118 -107h-75zM179 970l-48 37c33 41 78 74 122 74c68 0 89 -48 139 -48c26 0 53 25 78 54l46 -37c-34 -42 -77 -81 -123 -81c-60 0 -90 49 -139 49
c-24 0 -53 -19 -75 -48z" />
    <glyph glyph-name="uni1EC5" unicode="&#x1ec5;" horiz-adv-x="593" 
d="M314 -11c-222 0 -265 127 -265 288c0 160 48 288 262 288c222 0 229 -153 227 -314h-416c4 -116 38 -196 192 -196c91 0 134 24 178 56l41 -53c-55 -42 -117 -69 -219 -69zM309 497c-139 0 -178 -71 -186 -177h343c-5 98 -12 177 -157 177zM100 610l152 156h85l152 -156
h-76l-120 107l-118 -107h-75zM156 795l-48 37c33 41 78 74 122 74c68 0 89 -48 139 -48c26 0 53 25 78 54l46 -37c-34 -42 -77 -81 -123 -81c-60 0 -90 49 -139 49c-24 0 -53 -19 -75 -48z" />
    <glyph glyph-name="uni1EC6" unicode="&#x1ec6;" horiz-adv-x="639" 
d="M123 785l152 156h85l152 -156h-76l-120 107l-118 -107h-75zM87 0v741h490v-75h-411v-245h401v-74h-401v-275h415v-72h-494zM300 -176v107h76v-107h-76z" />
    <glyph glyph-name="uni1EC7" unicode="&#x1ec7;" horiz-adv-x="593" 
d="M100 610l152 156h85l152 -156h-76l-120 107l-118 -107h-75zM314 -11c-222 0 -265 127 -265 288c0 160 48 288 262 288c222 0 229 -153 227 -314h-416c4 -116 38 -196 192 -196c91 0 134 24 178 56l41 -53c-55 -42 -117 -69 -219 -69zM309 497c-139 0 -178 -71 -186 -177
h343c-5 98 -12 177 -157 177zM270 -176v107h76v-107h-76z" />
    <glyph glyph-name="uni1EC8" unicode="&#x1ec8;" horiz-adv-x="267" 
d="M95 0v741h77v-741h-77zM107 771c-6 49 2 73 45 100c36 22 47 30 47 53c0 22 -13 38 -65 38c-32 0 -59 -7 -85 -20l-23 48c29 15 70 23 111 23c93 0 123 -36 123 -82c0 -43 -22 -64 -59 -86c-35 -22 -41 -31 -39 -74h-55z" />
    <glyph glyph-name="uni1EC9" unicode="&#x1ec9;" horiz-adv-x="238" 
d="M81 0v552h75v-552h-75zM93 598c-6 49 2 73 45 100c36 22 47 30 47 53c0 22 -13 38 -65 38c-32 0 -59 -7 -85 -20l-23 48c29 15 70 23 111 23c93 0 123 -36 123 -82c0 -43 -22 -64 -59 -86c-35 -22 -41 -31 -39 -74h-55z" />
    <glyph glyph-name="uni1ECA" unicode="&#x1eca;" horiz-adv-x="267" 
d="M95 0v741h77v-741h-77zM96 -176v107h76v-107h-76z" />
    <glyph glyph-name="uni1ECB" unicode="&#x1ecb;" horiz-adv-x="238" 
d="M81 0v552h75v-552h-75zM81 625v108h76v-108h-76zM82 -176v107h76v-107h-76z" />
    <glyph glyph-name="uni1ECC" unicode="&#x1ecc;" horiz-adv-x="834" 
d="M416 -12c-237 0 -372 118 -372 383c0 264 135 382 372 382c238 0 374 -118 374 -382c0 -265 -136 -383 -374 -383zM416 61c202 0 295 108 295 309c0 200 -93 308 -295 308c-201 0 -293 -108 -293 -308c0 -201 92 -309 293 -309zM382 -176v107h76v-107h-76z" />
    <glyph glyph-name="uni1ECD" unicode="&#x1ecd;" horiz-adv-x="631" 
d="M315 -11c-191 0 -266 98 -266 288s75 288 266 288s267 -98 267 -288s-76 -288 -267 -288zM315 58c139 0 190 76 190 217c0 142 -51 218 -190 218s-190 -76 -190 -218c0 -141 51 -217 190 -217zM277 -176v107h76v-107h-76z" />
    <glyph glyph-name="uni1ECE" unicode="&#x1ece;" horiz-adv-x="834" 
d="M416 -12c-237 0 -372 118 -372 383c0 264 135 382 372 382c238 0 374 -118 374 -382c0 -265 -136 -383 -374 -383zM416 61c202 0 295 108 295 309c0 200 -93 308 -295 308c-201 0 -293 -108 -293 -308c0 -201 92 -309 293 -309zM386 786c-6 49 2 73 45 100
c36 22 47 30 47 53c0 22 -13 38 -65 38c-32 0 -59 -7 -85 -20l-23 48c29 15 70 23 111 23c93 0 123 -36 123 -82c0 -43 -22 -64 -59 -86c-35 -22 -41 -31 -39 -74h-55z" />
    <glyph glyph-name="uni1ECF" unicode="&#x1ecf;" horiz-adv-x="631" 
d="M315 -11c-191 0 -266 98 -266 288s75 288 266 288s267 -98 267 -288s-76 -288 -267 -288zM315 58c139 0 190 76 190 217c0 142 -51 218 -190 218s-190 -76 -190 -218c0 -141 51 -217 190 -217zM285 598c-6 49 2 73 45 100c36 22 47 30 47 53c0 22 -13 38 -65 38
c-32 0 -59 -7 -85 -20l-23 48c29 15 70 23 111 23c93 0 123 -36 123 -82c0 -43 -22 -64 -59 -86c-35 -22 -41 -31 -39 -74h-55z" />
    <glyph glyph-name="uni1ED0" unicode="&#x1ed0;" horiz-adv-x="834" 
d="M221 785l152 156h85l152 -156h-76l-120 107l-118 -107h-75zM118 865l151 156h93l-172 -156h-72zM416 -12c-237 0 -372 118 -372 383c0 264 135 382 372 382c238 0 374 -118 374 -382c0 -265 -136 -383 -374 -383zM416 61c202 0 295 108 295 309c0 200 -93 308 -295 308
c-201 0 -293 -108 -293 -308c0 -201 92 -309 293 -309z" />
    <glyph glyph-name="uni1ED1" unicode="&#x1ed1;" horiz-adv-x="631" 
d="M121 610l152 156h85l152 -156h-76l-120 107l-118 -107h-75zM18 690l151 156h93l-172 -156h-72zM315 -11c-191 0 -266 98 -266 288s75 288 266 288s267 -98 267 -288s-76 -288 -267 -288zM315 58c139 0 190 76 190 217c0 142 -51 218 -190 218s-190 -76 -190 -218
c0 -141 51 -217 190 -217z" />
    <glyph glyph-name="uni1ED2" unicode="&#x1ed2;" horiz-adv-x="834" 
d="M222 785l152 156h85l152 -156h-76l-120 107l-118 -107h-75zM644 865l-172 156h93l151 -156h-72zM416 -12c-237 0 -372 118 -372 383c0 264 135 382 372 382c238 0 374 -118 374 -382c0 -265 -136 -383 -374 -383zM416 61c202 0 295 108 295 309c0 200 -93 308 -295 308
c-201 0 -293 -108 -293 -308c0 -201 92 -309 293 -309z" />
    <glyph glyph-name="uni1ED3" unicode="&#x1ed3;" horiz-adv-x="631" 
d="M121 610l152 156h85l152 -156h-76l-120 107l-118 -107h-75zM543 690l-172 156h93l151 -156h-72zM315 -11c-191 0 -266 98 -266 288s75 288 266 288s267 -98 267 -288s-76 -288 -267 -288zM315 58c139 0 190 76 190 217c0 142 -51 218 -190 218s-190 -76 -190 -218
c0 -141 51 -217 190 -217z" />
    <glyph glyph-name="uni1ED4" unicode="&#x1ed4;" horiz-adv-x="834" 
d="M221 785l152 156h85l152 -156h-76l-120 107l-118 -107h-75zM388 967c-6 49 2 73 45 100c36 22 47 30 47 53c0 22 -13 38 -65 38c-32 0 -59 -7 -85 -20l-23 48c29 15 70 23 111 23c93 0 123 -36 123 -82c0 -43 -22 -64 -59 -86c-35 -22 -41 -31 -39 -74h-55zM416 -12
c-237 0 -372 118 -372 383c0 264 135 382 372 382c238 0 374 -118 374 -382c0 -265 -136 -383 -374 -383zM416 61c202 0 295 108 295 309c0 200 -93 308 -295 308c-201 0 -293 -108 -293 -308c0 -201 92 -309 293 -309z" />
    <glyph glyph-name="uni1ED5" unicode="&#x1ed5;" horiz-adv-x="631" 
d="M118 610l152 156h85l152 -156h-76l-120 107l-118 -107h-75zM285 792c-6 49 2 73 45 100c36 22 47 30 47 53c0 22 -13 38 -65 38c-32 0 -59 -7 -85 -20l-23 48c29 15 70 23 111 23c93 0 123 -36 123 -82c0 -43 -22 -64 -59 -86c-35 -22 -41 -31 -39 -74h-55zM315 -11
c-191 0 -266 98 -266 288s75 288 266 288s267 -98 267 -288s-76 -288 -267 -288zM315 58c139 0 190 76 190 217c0 142 -51 218 -190 218s-190 -76 -190 -218c0 -141 51 -217 190 -217z" />
    <glyph glyph-name="uni1ED6" unicode="&#x1ed6;" horiz-adv-x="834" 
d="M416 -12c-237 0 -372 118 -372 383c0 264 135 382 372 382c238 0 374 -118 374 -382c0 -265 -136 -383 -374 -383zM416 61c202 0 295 108 295 309c0 200 -93 308 -295 308c-201 0 -293 -108 -293 -308c0 -201 92 -309 293 -309zM221 785l152 156h85l152 -156h-76
l-120 107l-118 -107h-75zM277 970l-48 37c33 41 78 74 122 74c68 0 89 -48 139 -48c26 0 53 25 78 54l46 -37c-34 -42 -77 -81 -123 -81c-60 0 -90 49 -139 49c-24 0 -53 -19 -75 -48z" />
    <glyph glyph-name="uni1ED7" unicode="&#x1ed7;" horiz-adv-x="631" 
d="M315 -11c-191 0 -266 98 -266 288s75 288 266 288s267 -98 267 -288s-76 -288 -267 -288zM315 58c139 0 190 76 190 217c0 142 -51 218 -190 218s-190 -76 -190 -218c0 -141 51 -217 190 -217zM119 610l152 156h85l152 -156h-76l-120 107l-118 -107h-75zM175 795l-48 37
c33 41 78 74 122 74c68 0 89 -48 139 -48c26 0 53 25 78 54l46 -37c-34 -42 -77 -81 -123 -81c-60 0 -90 49 -139 49c-24 0 -53 -19 -75 -48z" />
    <glyph glyph-name="uni1ED8" unicode="&#x1ed8;" horiz-adv-x="834" 
d="M221 785l152 156h85l152 -156h-76l-120 107l-118 -107h-75zM378 -176v107h76v-107h-76zM416 -12c-237 0 -372 118 -372 383c0 264 135 382 372 382c238 0 374 -118 374 -382c0 -265 -136 -383 -374 -383zM416 61c202 0 295 108 295 309c0 200 -93 308 -295 308
c-201 0 -293 -108 -293 -308c0 -201 92 -309 293 -309z" />
    <glyph glyph-name="uni1ED9" unicode="&#x1ed9;" horiz-adv-x="631" 
d="M119 610l152 156h85l152 -156h-76l-120 107l-118 -107h-75zM277 -176v107h76v-107h-76zM315 -11c-191 0 -266 98 -266 288s75 288 266 288s267 -98 267 -288s-76 -288 -267 -288zM315 58c139 0 190 76 190 217c0 142 -51 218 -190 218s-190 -76 -190 -218
c0 -141 51 -217 190 -217z" />
    <glyph glyph-name="uni1EE4" unicode="&#x1ee4;" horiz-adv-x="778" 
d="M388 -12c-263 0 -306 133 -306 279v474h79v-465c0 -126 40 -215 227 -215c189 0 232 87 232 215v465h76v-474c0 -147 -46 -279 -308 -279zM350 -176v107h76v-107h-76z" />
    <glyph glyph-name="uni1EE5" unicode="&#x1ee5;" horiz-adv-x="614" 
d="M309 -10c-214 0 -236 90 -236 237v325h75v-327c0 -91 0 -166 161 -166c160 0 158 75 158 170v323h74v-322c0 -150 -19 -240 -232 -240zM268 -176v107h76v-107h-76z" />
    <glyph glyph-name="uni1EE6" unicode="&#x1ee6;" horiz-adv-x="778" 
d="M388 -12c-263 0 -306 133 -306 279v474h79v-465c0 -126 40 -215 227 -215c189 0 232 87 232 215v465h76v-474c0 -147 -46 -279 -308 -279zM360 766c-6 49 2 73 45 100c36 22 47 30 47 53c0 22 -13 38 -65 38c-32 0 -59 -7 -85 -20l-23 48c29 15 70 23 111 23
c93 0 123 -36 123 -82c0 -43 -22 -64 -59 -86c-35 -22 -41 -31 -39 -74h-55z" />
    <glyph glyph-name="uni1EE7" unicode="&#x1ee7;" horiz-adv-x="614" 
d="M309 -10c-214 0 -236 90 -236 237v325h75v-327c0 -91 0 -166 161 -166c160 0 158 75 158 170v323h74v-322c0 -150 -19 -240 -232 -240zM277 598c-6 49 2 73 45 100c36 22 47 30 47 53c0 22 -13 38 -65 38c-32 0 -59 -7 -85 -20l-23 48c29 15 70 23 111 23
c93 0 123 -36 123 -82c0 -43 -22 -64 -59 -86c-35 -22 -41 -31 -39 -74h-55z" />
    <glyph glyph-name="uni1EF4" unicode="&#x1ef4;" horiz-adv-x="700" 
d="M311 0v288l-298 453h86l252 -382l254 382h81l-297 -452v-289h-78zM311 -176v107h76v-107h-76z" />
    <glyph glyph-name="uni1EF5" unicode="&#x1ef5;" horiz-adv-x="530" 
d="M126 -167c-8 0 -38 0 -48 1v62h43c51 0 71 14 86 57l20 51l-216 548h80l176 -459l174 459h78l-238 -607c-30 -79 -69 -112 -155 -112zM410 -176v107h76v-107h-76z" />
    <glyph glyph-name="uni1EF6" unicode="&#x1ef6;" horiz-adv-x="700" 
d="M311 0v288l-298 453h86l252 -382l254 382h81l-297 -452v-289h-78zM320 766c-6 49 2 73 45 100c36 22 47 30 47 53c0 22 -13 38 -65 38c-32 0 -59 -7 -85 -20l-23 48c29 15 70 23 111 23c93 0 123 -36 123 -82c0 -43 -22 -64 -59 -86c-35 -22 -41 -31 -39 -74h-55z" />
    <glyph glyph-name="uni1EF7" unicode="&#x1ef7;" horiz-adv-x="530" 
d="M126 -167c-8 0 -38 0 -48 1v62h43c51 0 71 14 86 57l20 51l-216 548h80l176 -459l174 459h78l-238 -607c-30 -79 -69 -112 -155 -112zM238 598c-6 49 2 73 45 100c36 22 47 30 47 53c0 22 -13 38 -65 38c-32 0 -59 -7 -85 -20l-23 48c29 15 70 23 111 23
c93 0 123 -36 123 -82c0 -43 -22 -64 -59 -86c-35 -22 -41 -31 -39 -74h-55z" />
    <glyph glyph-name="uni1EF8" unicode="&#x1ef8;" horiz-adv-x="700" 
d="M311 0v288l-298 453h86l252 -382l254 382h81l-297 -452v-289h-78zM204 794l-48 37c33 41 78 74 122 74c68 0 89 -48 139 -48c26 0 53 25 78 54l46 -37c-34 -42 -77 -81 -123 -81c-60 0 -90 49 -139 49c-24 0 -53 -19 -75 -48z" />
    <glyph glyph-name="uni1EF9" unicode="&#x1ef9;" horiz-adv-x="530" 
d="M126 -167c-8 0 -38 0 -48 1v62h43c51 0 71 14 86 57l20 51l-216 548h80l176 -459l174 459h78l-238 -607c-30 -79 -69 -112 -155 -112zM123 614l-48 37c33 41 78 74 122 74c68 0 89 -48 139 -48c26 0 53 25 78 54l46 -37c-34 -42 -77 -81 -123 -81c-60 0 -90 49 -139 49
c-24 0 -53 -19 -75 -48z" />
    <glyph glyph-name="dong" unicode="&#x20ab;" horiz-adv-x="647" 
d="M329 623v67h166v86h76v-86h76v-67h-76v-620l-59 -5l-9 71c-35 -55 -95 -79 -217 -79c-184 0 -237 115 -237 289c0 172 54 285 239 285c120 0 178 -23 207 -74v133h-166zM300 60c139 0 195 55 195 219c0 162 -53 214 -195 214c-137 0 -174 -80 -174 -214
c0 -136 37 -219 174 -219zM90 -144v65h482v-65h-482z" />
    <glyph glyph-name="hookabovecomb" unicode="&#x309;" horiz-adv-x="590" 
d="M265 567c-6 49 2 73 45 100c36 22 47 30 47 53c0 22 -13 38 -65 38c-32 0 -59 -7 -85 -20l-23 48c29 15 70 23 111 23c93 0 123 -36 123 -82c0 -43 -22 -64 -59 -86c-35 -22 -41 -31 -39 -74h-55z" />
    <glyph glyph-name="circumflexacute" horiz-adv-x="590" 
d="M131 610l152 156h85l152 -156h-76l-120 107l-118 -107h-75zM28 690l151 156h93l-172 -156h-72z" />
    <glyph glyph-name="circumflexgrave" horiz-adv-x="590" 
d="M69 610l152 156h85l152 -156h-76l-120 107l-118 -107h-75zM491 690l-172 156h93l151 -156h-72z" />
    <glyph glyph-name="circumflexhook" horiz-adv-x="590" 
d="M100 610l152 156h85l152 -156h-76l-120 107l-118 -107h-75zM267 792c-6 49 2 73 45 100c36 22 47 30 47 53c0 22 -13 38 -65 38c-32 0 -59 -7 -85 -20l-23 48c29 15 70 23 111 23c93 0 123 -36 123 -82c0 -43 -22 -64 -59 -86c-35 -22 -41 -31 -39 -74h-55z" />
    <glyph glyph-name="circumflextilde" horiz-adv-x="590" 
d="M100 610l152 156h85l152 -156h-76l-120 107l-118 -107h-75zM156 795l-48 37c33 41 78 74 122 74c68 0 89 -48 139 -48c26 0 53 25 78 54l46 -37c-34 -42 -77 -81 -123 -81c-60 0 -90 49 -139 49c-24 0 -53 -19 -75 -48z" />
    <glyph glyph-name="breveacute" horiz-adv-x="590" 
d="M295 600c-132 0 -171 68 -187 148l58 12c12 -54 38 -97 129 -97c90 0 116 43 129 97l59 -11c-18 -81 -57 -149 -188 -149zM252 790l151 156h93l-172 -156h-72z" />
    <glyph glyph-name="brevegrave" horiz-adv-x="590" 
d="M295 600c-132 0 -171 68 -187 148l58 12c12 -54 38 -97 129 -97c90 0 116 43 129 97l59 -11c-18 -81 -57 -149 -188 -149zM269 790l-172 156h93l151 -156h-72z" />
    <glyph glyph-name="brevehook" horiz-adv-x="590" 
d="M295 600c-132 0 -171 68 -187 148l58 12c12 -54 38 -97 129 -97c90 0 116 43 129 97l59 -11c-18 -81 -57 -149 -188 -149zM267 773c-6 49 2 73 45 100c36 22 47 30 47 53c0 22 -13 38 -65 38c-32 0 -59 -7 -85 -20l-23 48c29 15 70 23 111 23c93 0 123 -36 123 -82
c0 -43 -22 -64 -59 -86c-35 -22 -41 -31 -39 -74h-55z" />
    </font>
</defs>
</svg>
